<?xml version="1.0" encoding="UTF-8" standalone="no"?>
<!-- Created with Inkscape (http://www.inkscape.org/) -->

<svg
   width="97.848717mm"
   height="131.65067mm"
   viewBox="0 0 97.848717 131.65066"
   version="1.1"
   id="svg87124"
   inkscape:version="1.2.1 (9c6d41e410, 2022-07-14)"
   sodipodi:docname="boxer.svg"
   inkscape:export-filename="boxer.svg"
   inkscape:export-xdpi="94.6788"
   inkscape:export-ydpi="94.6788"
   xmlns:inkscape="http://www.inkscape.org/namespaces/inkscape"
   xmlns:sodipodi="http://sodipodi.sourceforge.net/DTD/sodipodi-0.dtd"
   xmlns="http://www.w3.org/2000/svg"
   xmlns:svg="http://www.w3.org/2000/svg">
  <sodipodi:namedview
     id="namedview87126"
     pagecolor="#ffffff"
     bordercolor="#666666"
     borderopacity="1.0"
     inkscape:showpageshadow="2"
     inkscape:pageopacity="0.0"
     inkscape:pagecheckerboard="0"
     inkscape:deskcolor="#d1d1d1"
     inkscape:document-units="mm"
     showgrid="false"
     inkscape:zoom="1.1011145"
     inkscape:cx="9.081708"
     inkscape:cy="244.29795"
     inkscape:window-width="1920"
     inkscape:window-height="1028"
     inkscape:window-x="0"
     inkscape:window-y="24"
     inkscape:window-maximized="1"
     inkscape:current-layer="layer1" />
  <defs
     id="defs87121" />
  <g
     inkscape:label="Layer 1"
     inkscape:groupmode="layer"
     id="layer1"
     transform="translate(-0.01519961,-0.410515)">
    <g
       id="g31105"
       transform="translate(-49.90814,-23.344232)">
      <path
         style="display:inline;fill:#e9c6af;fill-opacity:1;stroke:none;stroke-width:0.264583px;stroke-linecap:butt;stroke-linejoin:miter;stroke-opacity:1"
         d="m 84.735801,92.913246 c 0,0 13.483283,-0.218477 15.532949,-0.05957 2.04967,0.158906 14.44111,1.094811 15.07138,1.279244 0.63026,0.184436 1.62157,1.021366 1.92218,1.603148 0.30061,0.581779 0.75228,1.320506 1.09241,1.867109 0.34012,0.546603 0.46073,2.511933 0.46073,3.273663 0,0.76172 0.32115,2.34776 0.32115,3.11284 0,0.76509 -0.22145,3.73456 0.0474,4.58957 0.26885,0.85501 1.19751,6.25713 1.11252,8.37891 -0.085,2.12179 -0.22606,11.28113 -0.0147,12.4954 0.21132,1.21427 1.63601,3.31219 2.06519,4.51776 0.42917,1.20558 4.79197,2.66129 5.99585,3.60424 1.20387,0.94294 2.782,1.66198 3.26116,1.66198 0.47916,0 2.33343,-0.16251 4.41839,0.59873 2.08497,0.76125 2.93873,0.40843 3.27756,0.58671 0.33883,0.17827 0.53371,0.41945 0.53371,0.6962 0,0.27674 -0.37816,0.54307 -0.57321,0.67628 -0.19506,0.1332 0.13609,0.58366 -0.18837,0.78737 -0.32446,0.20372 -1.46457,0.4299 -1.62994,0.56486 -0.16538,0.13496 -2.37967,0.34751 -2.58518,0.37755 -0.20552,0.03 -0.67881,-0.0375 -0.81438,0.15739 -0.13556,0.19486 -16.01198,1.51445 -16.01198,1.51445 0,0 -3.44533,0.30526 -4.16261,0.24939 -0.71728,-0.0559 -1.64396,-0.67877 -1.82086,-1.24756 -0.1769,-0.5688 -0.46447,-2.15014 -0.34901,-2.64576 0.11546,-0.49563 0.39134,-1.66579 0.63153,-2.07382 0.24018,-0.40802 0.96136,-3.80386 0.96136,-3.80386 l -6.18372,-19.05923 c 0,0 0.35779,-5.89517 0.41538,-6.69966 0.0576,-0.80449 0.32571,-2.92056 0.25671,-3.19654 -0.069,-0.27599 -2.8468,-0.571 -3.71816,0.0397 -0.87136,0.61067 -8.5165,5.04838 -11.641388,5.74941 -3.124885,0.70103 -8.297632,1.0762 -11.140705,0.96837 -2.843069,-0.10782 -2.681501,-19.747168 -2.681501,-19.747168 z"
         id="path5144"
         sodipodi:nodetypes="csssssssscssssssssscscssssccssssscc" />
    </g>
    <g
       id="g31108"
       transform="translate(-49.90814,-23.344232)">
      <path
         style="display:inline;fill:#e3b08a;fill-opacity:1;stroke:none;stroke-width:0.264583px;stroke-linecap:butt;stroke-linejoin:miter;stroke-opacity:1"
         d="m 82.289535,113.52216 c 0,0 7.736845,-0.34901 10.209705,-1.04445 2.472862,-0.69544 1.142428,-2.11012 0.874006,-2.25186 -0.26842,-0.14174 -7.332467,-1.60916 -7.332467,-1.60916 l -4.229438,4.14286 z"
         id="path43409" />
      <path
         style="display:inline;fill:#e5b898;fill-opacity:1;stroke:none;stroke-width:0.264583px;stroke-linecap:butt;stroke-linejoin:miter;stroke-opacity:1"
         d="m 107.39943,112.3773 c -0.03,1.14043 -0.2922,3.09004 -0.2922,3.09004 l 5.48621,8.78289 c 0,0 -1.04637,-4.46524 1.65743,-5.64713 2.23022,-0.97487 3.75983,-2.84112 3.51981,-2.90289 -0.77489,-0.19939 -3.00509,2.27018 -3.44257,2.65611 -0.2336,0.20608 -0.47563,-2.29202 -0.83909,-2.45425 -1.04881,-0.46813 -2.71017,-2.32398 -2.97244,-3.88269 -0.0617,-0.36671 0.83844,-4.48622 0.98905,-4.88714 0.15066,-0.40092 -0.14704,-0.34205 -0.117,-0.65231 0.03,-0.31027 -0.64701,-0.537 -0.96728,-0.62898 -0.29227,-0.0839 -0.89206,1.3973 -1.3218,1.62475 -1.01842,0.70791 -1.04672,1.68327 -1.52452,2.67573 -0.32975,0.39881 -0.14556,1.08543 -0.1756,2.22587 z m 1.91654,-7.23519 c 0.44056,-0.49572 1.59469,-1.52291 2.36432,-1.52291 0.76963,0 1.64413,-0.61159 2.395,-0.67215 0.75087,-0.0606 -0.38519,-1.1153 -0.77509,-1.21523 -0.38989,-0.0999 -1.22592,-0.51491 -2.07593,-0.54495 -0.85001,-0.03 -4.70417,0.40319 -5.00316,0.40319 -0.29899,0 -2.65596,0.23912 -3.21033,0.23912 -0.55438,0 -1.40759,0.8354 -1.74672,0.87794 -0.33913,0.0425 -2.107713,1.12472 -2.107713,1.12472 l 3.699293,3.66885 c 0,0 1.22141,-0.83213 1.46939,-0.89234 0.24798,-0.0602 0.81247,-0.25942 1.49778,-0.25942 0.68532,0 1.41188,0.22011 2.08444,0.0955 0.68988,-0.50464 1.08988,-0.94354 1.40872,-1.3023 z"
         id="path48448"
         sodipodi:nodetypes="cccsssssscscccsscscsscccsscss" />
      <path
         style="display:inline;fill:#e5b99b;fill-opacity:1;stroke:none;stroke-width:0.264583px;stroke-linecap:butt;stroke-linejoin:miter;stroke-opacity:1"
         d="m 122.76226,137.29155 c 0,0 4.1964,2.14532 4.54383,2.14532 0.34744,0 2.07545,1.70343 2.41729,1.82417 0.34183,0.12075 0.94571,-0.43127 1.40198,-0.19355 0.45626,0.23772 2.19046,0.611 2.7302,0.611 0.53973,0 1.17118,0.39402 2.08218,0.31351 0.911,-0.0805 1.16155,-0.21172 1.64805,-0.25175 0.4865,-0.04 1.8262,-0.70501 2.04338,-0.90597 0.21719,-0.20097 0.12505,0.52935 -0.0821,0.81603 -0.2072,0.28667 -0.31958,0.33942 -0.30467,0.64774 0.0149,0.30832 -1.64563,0.7785 -1.64563,0.7785 0,0 -2.66687,0.46758 -3.03467,0.43305 -0.36781,-0.0345 -0.66619,0.22687 -0.66619,0.22687 0,0 -2.79711,-0.21407 -3.05983,-0.21407 -0.26271,0 -7.9901,-4.55472 -7.9901,-4.55472 z"
         id="path56758" />
      <path
         style="display:inline;fill:#e5b898;fill-opacity:1;stroke:none;stroke-width:0.264583px;stroke-linecap:butt;stroke-linejoin:miter;stroke-opacity:1"
         d="m 119.36377,134.17229 c 0,0 1.17501,-1.58473 1.00662,-2.85052 -0.1684,-1.26579 -0.42634,-1.97878 -0.42634,-1.97878 0,0 2.17003,3.78675 2.25104,4.25911 0.081,0.47236 0.002,0.75274 0.47275,1.06795 0.47052,0.31521 0.672,0.61346 0.672,0.61346 0,0 -2.0724,0.13822 -2.81836,0.25968 -0.74597,0.12147 -1.15771,-1.3709 -1.15771,-1.3709 z"
         id="path20432" />
      <path
         style="display:inline;fill:#e5b898;fill-opacity:1;stroke:none;stroke-width:0.264583px;stroke-linecap:butt;stroke-linejoin:miter;stroke-opacity:1"
         d="m 117.86751,115.80582 c 0,0 -4.56496,7.2294 -0.40239,17.66718 1.11555,2.79728 -7.96272,-12.01709 -7.96272,-12.01709 l 4.91859,-4.18732 z"
         id="path3754"
         sodipodi:nodetypes="csccc" />
      <path
         style="display:inline;fill:#e5b898;fill-opacity:1;stroke:none;stroke-width:0.264583px;stroke-linecap:butt;stroke-linejoin:miter;stroke-opacity:1"
         d="m 112.54505,138.96369 c 0,0 -0.89998,2.57642 -0.89998,3.05435 0,0.47793 0.33857,2.43591 0.6283,2.65617 0.28972,0.22026 0.73034,0.80072 2.14276,0.80351 1.41242,0.003 4.44996,-0.42418 4.44996,-0.42418 l -4.98022,-6.27887 z"
         id="path4833" />
    </g>
    <g
       id="g31116"
       transform="translate(-49.90814,-23.344232)">
      <path
         style="display:inline;fill:#e3b08a;fill-opacity:1;stroke:none;stroke-width:0.264583px;stroke-linecap:butt;stroke-linejoin:miter;stroke-opacity:1"
         d="m 113.21113,116.61622 c 0,0 2.30679,-2.32896 2.45905,-4.12295 0.15225,-1.79398 -0.10541,-6.55899 -0.7013,-7.78725 -0.5959,-1.22827 1.67024,1.60354 1.91822,3.08246 0.24798,1.47892 0.98766,8.0608 0.98766,8.0608 0,0 -1.25912,1.07716 -1.7638,1.4805 -0.34868,0.22238 -0.86963,0.94799 -1.72946,1.25282 -0.81843,-0.0761 -3.26298,-0.36648 -3.26298,-0.36648 z"
         id="path17028"
         sodipodi:nodetypes="csssccccc" />
    </g>
    <g
       id="g31119"
       transform="translate(-49.90814,-23.344232)">
      <path
         style="display:inline;fill:#e9c6af;fill-opacity:1;stroke:none;stroke-width:0.264583px;stroke-linecap:butt;stroke-linejoin:miter;stroke-opacity:1"
         d="m 75.367959,44.961288 c 0,0 -3.885846,0.879605 -5.36688,1.41551 -1.481032,0.535906 -4.570839,0.947323 -5.439349,1.273181 -0.868511,0.325858 -1.239258,1.153697 -2.037276,1.375613 -0.798018,0.221917 -2.499934,1.270649 -3.461798,2.732567 -0.961861,1.461915 -3.644712,4.155337 -3.923064,4.49249 -0.278352,0.33715 -1.132157,2.432608 -1.085723,3.243487 0.04644,0.810879 -0.950452,1.738336 -0.842822,3.240373 0.10763,1.50204 -0.929545,5.666116 -1.032793,6.154672 -0.103249,0.488555 -0.726337,4.672189 -0.726337,5.215781 0,0.543594 0.203147,2.384915 -0.03495,3.461697 -0.238098,1.07678 0.452126,4.322271 0.75497,5.072737 0.302845,0.750467 0.668515,1.609799 0.159092,3.289242 -0.509421,1.67944 -0.949336,3.330139 -1.001943,4.675309 -0.05261,1.345171 1.058989,2.133029 -0.149622,4.059923 -1.208614,1.926892 -1.321927,7.91725 -1.232363,10.39672 0.08957,2.47947 0.912733,6.00045 1.237316,6.32884 0.324583,0.32839 2.183678,0.61345 2.183678,0.61345 0,0 3.739046,0.8271 5.498785,0.97297 1.759736,0.14587 13.537422,2.33642 14.349497,2.36402 0.812075,0.0276 5.013364,-0.7251 5.977033,-0.9313 0.96367,-0.20619 4.496249,-1.44518 6.20423,-2.38726 1.707983,-0.94207 3.136069,-2.09854 3.773797,-2.06231 0.637728,0.0362 1.983036,0.57432 2.294832,1.5416 0.311795,0.96728 1.886622,4.90308 2.02402,5.61821 0.137398,0.71513 2.776879,9.47643 7.710121,11.97963 4.93325,2.5032 4.55678,3.92504 8.39773,7.77823 3.84094,3.85319 6.72181,6.21874 6.80677,6.90885 0.0849,0.69011 1.33661,2.92046 1.33661,2.92046 0,0 0.78811,2.30791 0.78811,2.72323 0,0.41531 0.88125,2.49736 1.70586,3.15299 0.82461,0.65564 4.09454,0.83443 4.8338,1.24777 0.73927,0.41335 4.89214,2.01715 5.96768,1.45865 1.07553,-0.55849 2.34802,-1.32929 2.79272,-1.41425 0.4447,-0.0849 0.89277,0.0874 1.58363,-0.26772 0.69087,-0.3551 0.7441,-0.3551 0.7441,-0.3551 0,0 1.33433,0.6896 2.09247,0.0779 0.75815,-0.61173 0.69967,-0.95862 0.69967,-0.95862 0,0 1.39373,1.10087 2.13488,0.4703 0.74115,-0.63057 0.91552,-0.73932 0.94555,-1.13599 0.03,-0.39666 0.74693,0.4709 1.25277,0.36538 0.50584,-0.10553 1.28248,-0.25555 1.46196,-0.52542 0.17947,-0.26986 0.40189,-0.90035 0.38001,-1.07445 -0.0219,-0.1741 1.57044,-0.11136 1.97805,-0.95382 0.4076,-0.84247 0.58712,-0.7738 0.64382,-1.26558 0.0567,-0.49179 -0.90464,-0.60496 -0.90464,-0.60496 0,0 -2.7343,-0.83194 -2.97048,-0.94971 -0.23619,-0.11777 -5.89706,-1.2816 -7.05333,-1.72043 -1.15627,-0.43882 -7.03939,-3.32883 -8.89308,-3.9835 -1.85369,-0.65468 -3.64491,-3.03756 -6.58277,-5.0437 -2.93786,-2.00615 -10.30175,-16.43011 -10.95984,-17.42906 -0.6581,-0.99894 -6.56855,-8.88024 -7.28946,-10.76796 -0.72091,-1.88772 -1.40624,-3.54454 -1.6611,-4.62161 -0.25486,-1.07707 0.19269,-1.06935 -0.17598,-1.96158 -0.36866,-0.89222 -0.70919,-3.5739 -1.755203,-4.949056 -1.046019,-1.375156 -1.703631,-1.440037 -2.838386,-1.632283 -1.134753,-0.192246 -6.099826,-0.281567 -7.058081,-0.682726 -0.958254,-0.401155 -6.335773,-1.750308 -8.811529,-1.750308 -2.475754,0 2.975919,-8.487323 2.975919,-8.487323 0,0 0.588851,-3.72918 1.025848,-4.049702 0.436999,-0.320519 2.629672,-1.312653 2.919089,-1.804728 0.289418,-0.492075 0.326123,-1.83134 0.67599,-2.119992 0.349866,-0.288653 0.589748,3.369609 1.874168,4.546642 1.284422,1.177033 2.915737,3.627943 3.030609,3.997719 0.114871,0.369777 11.882976,4.981109 11.882976,4.981109 l 5.4518,0.428964 3.55468,0.759132 c 0,0 0.24047,1.207503 1.74775,2.270495 1.50729,1.06299 1.98738,1.365904 1.98738,1.365904 0,0 -0.21701,1.220057 0.40917,1.627788 0.62617,0.407731 1.2431,-0.04452 1.2431,-0.04452 0,0 0.0252,-0.59803 0.43222,-0.0037 0.40703,0.594352 1.56647,0.752115 1.63954,0.226213 0.0731,-0.525904 0.17507,-0.449561 0.25489,-0.126693 0.0798,0.322866 0.85319,0.76381 1.09542,0.300027 0.24222,-0.46378 0.12248,-0.775795 0.23754,-1.271511 0.11505,-0.495715 -0.22486,-0.521615 0.11917,-0.697203 0.34403,-0.175588 1.42888,-2.207596 0.98497,-3.497906 -0.44392,-1.290309 -3.18843,-4.704016 -3.18843,-4.704016 0,0 -0.73506,-0.580295 -1.29316,-0.769231 -0.5581,-0.188934 -2.07333,-1.315638 -2.2601,-1.527778 -0.18678,-0.212138 -1.4508,-0.967224 -3.40159,-0.746617 -1.95079,0.220607 -1.72006,0.240498 -2.33747,0.310798 -0.6174,0.0703 -0.85444,0.959059 -1.65379,1.137568 -0.79935,0.178512 -3.09373,-0.926542 -4.15458,-0.937316 -1.06084,-0.01077 -2.89494,0.199261 -3.18044,0.829776 -0.28549,0.630513 -1.05173,-0.57518 -1.55636,-0.871331 -0.50464,-0.296151 -0.50346,-1.480939 -0.62366,-1.786514 -0.12021,-0.305578 -1.990701,-6.887324 -2.442694,-7.157718 -0.451993,-0.270396 -0.07422,-4.488585 0.04476,-5.093276 0.118985,-0.604692 0.30041,-3.839554 -0.307243,-5.042726 C 97.372541,62.99353 96.224212,60.06311 95.680515,59.595113 95.13682,59.127115 94.405583,58.600859 93.914,58.371391 c -0.491582,-0.22947 -1.653572,-0.323355 -2.253117,-1.087064 -0.599546,-0.76371 -1.206635,-0.92387 -1.470986,-1.376913 -0.264353,-0.453044 -0.738619,-0.972807 -1.040095,-1.546516 -0.30148,-0.573712 -1.112671,-1.483635 -1.112671,-1.483635 0,0 4.584763,-5.420323 4.728694,-5.713508 0.143931,-0.293182 1.581444,-2.779035 1.62392,-3.146372 0.04248,-0.367337 0.05092,-0.547116 0.496546,-0.622329 0.445622,-0.07521 1.58279,-0.128903 2.448578,-1.051317 0.865789,-0.922414 1.312471,-1.690415 1.393601,-2.316459 0.08113,-0.626046 -0.449983,-1.354862 -0.717799,-1.439219 -0.267814,-0.08436 -0.88252,-0.398587 -1.801932,-0.161666 -0.919414,0.236921 -0.71547,0.438362 -1.15579,0.576157 -0.440322,0.137798 0.339956,1.519097 -0.178469,1.729891 -0.518427,0.210791 0.0068,-0.813218 -0.54986,-0.493186 -0.556667,0.320032 -1.06504,1.715717 -0.868561,2.326547 0.196477,0.610828 0.190913,1.674871 -0.135281,1.674871 -0.326197,0 -0.437102,1.637061 -0.641808,1.405403 -0.204708,-0.231659 -0.129019,1.367478 -0.677669,1.323131 -0.548651,-0.04435 -1.36039,1.751624 -2.36352,1.588233 -1.003134,-0.163391 -1.132131,0.21246 -1.828467,0.340561 -0.696336,0.1281 -1.271545,0.451268 -1.683565,0.413425 -0.412022,-0.03785 -1.007986,0.01027 -1.843765,-0.198483 -0.835779,-0.20874 -3.280878,0.218644 -3.673467,0.01045 -0.392589,-0.208193 -2.473433,-0.78196 -2.585196,-1.034727 -0.11176,-0.252765 -0.822502,-1.177441 -1.458714,-1.403461 -0.636214,-0.226021 -1.268918,-1.278126 -1.196649,-1.723909 z"
         id="path1274" />
    </g>
    <g
       id="g31122"
       transform="translate(-49.90814,-23.344232)">
      <path
         style="display:inline;fill:#e5b898;fill-opacity:1;stroke:none;stroke-width:0.264583px;stroke-linecap:butt;stroke-linejoin:miter;stroke-opacity:1"
         d="m 51.508363,76.316357 c 0,0 0.02527,-1.497036 -0.0024,-1.840129 -0.0277,-0.343093 0.566655,-3.928348 0.784587,-5.226566 0.217935,-1.298218 0.191834,-1.441286 0.362453,-2.226019 0.170617,-0.784735 0.711314,-2.255276 0.711314,-2.255276 l 2.898658,0.108317 3.572103,1.577121 c 0,0 -1.82676,0.07908 -2.216595,0.489127 -0.389832,0.410043 -1.229886,1.73849 -1.552493,2.071201 -0.322606,0.332708 -0.817507,1.273201 0.02283,1.349298 0.840332,0.0761 1.082098,-1.804866 1.602115,-1.96119 0.520018,-0.156321 2.591343,-0.08647 2.795831,0.067 0.204489,0.153464 0.494522,2.045647 0.494522,2.045647 l -2.156666,1.673405 -4.318936,4.429877 -2.42402,1.729163 z"
         id="path80717" />
      <path
         style="display:inline;fill:#e5b898;fill-opacity:1;stroke:none;stroke-width:0.264583px;stroke-linecap:butt;stroke-linejoin:miter;stroke-opacity:1"
         d="m 89.870192,73.183133 c 0,0 1.688113,-3.719489 1.688113,-4.521153 0,-0.801661 1.351634,-0.633486 1.583965,-1.031385 0.23233,-0.397899 0.491019,1.42376 0.242967,1.905288 -0.248053,0.481531 0.937588,0.425749 1.077147,0.677156 0.139563,0.251407 -0.954555,0.08205 -0.954555,0.08205 l -0.928997,0.840328 z"
         id="path50931" />
      <path
         style="display:inline;fill:#e3b08a;fill-opacity:1;stroke:none;stroke-width:0.264583px;stroke-linecap:butt;stroke-linejoin:miter;stroke-opacity:1"
         d="m 97.159687,62.452807 c 0,0 1.260219,2.265556 1.260219,3.398296 0,1.132739 -0.08549,3.890859 -0.08549,3.890859 l -3.26662,0.38654 c 0,0 1.324187,-1.731761 1.153814,-3.162313 -0.170371,-1.430549 -0.76879,-1.777963 -0.52356,-2.318427 0.245226,-0.540462 1.110069,0.669811 1.461637,-2.194955 z"
         id="path53141" />
      <path
         style="display:inline;fill:#e5b898;fill-opacity:1;stroke:none;stroke-width:0.264583px;stroke-linecap:butt;stroke-linejoin:miter;stroke-opacity:1"
         d="m 54.249846,76.912821 c 0,0 1.793192,-2.734707 2.541913,-2.987535 0.748723,-0.25283 2.331251,-0.563785 2.442763,0.160182 0.111514,0.723963 -0.257495,1.43071 0.339494,1.52473 0.596993,0.09402 0.472083,1.583872 0.472083,1.583872 0,0 0.944767,3.015965 1.490324,3.006998 0.54556,-0.009 3.34581,1.078304 3.34581,1.078304 0,0 1.922031,0.08078 2.201701,0.5188 0.279672,0.438018 5.453724,7.751617 5.453724,7.751617 l 5.415891,2.183268 c 0,0 -1.103098,0.109294 -2.173706,0.04105 -1.070607,-0.06824 -4.220977,-1.439241 -5.528783,-1.439241 -1.307806,0 -4.800052,-1.251439 -5.529869,-1.841852 -0.729813,-0.59041 -2.912692,-2.518391 -3.33848,-2.68361 -0.425789,-0.165219 2.49827,-0.384469 2.49827,-0.384469 0,0 1.743554,-0.892945 0.897014,-1.487048 -0.846542,-0.594104 -5.248122,-1.776902 -5.717551,-2.292223 -0.469426,-0.515321 -1.758772,-0.516896 -2.024644,0.0787 -0.265872,0.595604 0.134289,1.699596 0.134289,2.173817 0,0.474218 -0.224033,1.130083 0.335362,2.103969 0.559398,0.973884 0.143439,1.964113 0.406823,2.398051 0.263385,0.433935 -0.282373,2.281664 0.375569,3.566782 0.657944,1.285118 -4.559218,1.386829 -4.857105,1.325473 -0.297884,-0.06136 -1.585719,-0.159875 -1.585719,-0.159875 0,0 -0.07565,-1.405162 -0.22171,-1.816597 -0.146061,-0.411433 -0.184127,-1.850684 0.02389,-2.53223 0.208013,-0.681545 0.968211,-4.110222 0.943981,-4.97084 -0.02424,-0.860616 -0.967121,-2.829436 -0.491144,-4.41111 0.475978,-1.581674 2.149811,-2.488988 2.149811,-2.488988 z"
         id="path83901" />
      <path
         style="display:inline;fill:#e5b898;fill-opacity:1;stroke:none;stroke-width:0.264583px;stroke-linecap:butt;stroke-linejoin:miter;stroke-opacity:1"
         d="m 91.649721,46.85335 -2.736768,4.99051 c 0,0 -0.56688,0.628579 -0.664014,0.769271 -0.09713,0.140692 -0.46863,0.589341 -0.04017,0.917495 0.428464,0.328158 0.870204,0.814211 1.040757,1.276467 0.170556,0.462259 1.104392,1.619271 1.329008,1.726671 0.224615,0.107399 -0.262605,0.121584 -0.419087,-0.03922 -0.156485,-0.160801 -1.15842,-1.140997 -1.599846,-1.43737 -0.441422,-0.296373 -0.456263,0.725337 -0.0032,1.651267 0.453094,0.925933 2.160583,2.46871 -2.741033,3.852421 -1.791659,0.50578 1.543831,5.539639 1.629197,6.161222 0.08536,0.621583 -0.418852,2.938058 -0.481334,3.972661 -0.06248,1.0346 -2.364454,1.659376 -2.696223,2.248259 -0.331771,0.588881 0.658389,4.197525 1.487173,4.197525 0.828783,0 2.086763,-2.15347 2.524175,-2.428005 0.437412,-0.274537 0.578146,-0.721018 0.907939,-0.936659 0.329793,-0.215641 -0.493792,1.378135 -0.801523,1.891027 -0.307729,0.51289 -0.450046,1.35141 -0.514604,1.761731 -0.06456,0.410324 -1.379977,1.344626 -1.623076,1.447051 -0.243102,0.102426 -0.648124,0.203029 -1.534677,0.913255 -0.248457,0.199041 -0.98478,2.744891 -1.110178,3.620885 -0.0924,0.645494 -4.557945,-1.024462 -6.093916,-2.647987 -0.662608,-0.700378 -0.02085,-4.567997 -0.449812,-4.118442 -0.227646,0.238574 3.44411,-0.151818 3.852952,-1.116484 0.408842,-0.964663 2.120871,-6.695895 1.996551,-9.244951 -0.124323,-2.549057 -1.257467,-5.092362 -0.323906,-6.744563 0.933564,-1.652201 4.591844,-8.175178 4.591844,-8.175178 l 1.353608,-3.893692 z"
         id="path40200"
         sodipodi:nodetypes="ccsssssscsssssssssssssssssccc" />
      <path
         style="display:inline;fill:#e5b898;fill-opacity:1;stroke:none;stroke-width:0.264583px;stroke-linecap:butt;stroke-linejoin:miter;stroke-opacity:1"
         d="m 90.351683,80.357889 c 0,0 2.584339,4.2775 3.087838,4.776483 0.503497,0.498986 5.138568,0.908384 5.138568,0.908384 l 0.896655,-0.505847 c 0,0 -2.926035,-3.50824 -3.765772,-4.997222 -0.839738,-1.488982 -1.258044,-4.039926 -1.80086,-5.228537 -0.542817,-1.188614 -0.836581,-2.627249 -1.259076,-3.052498 -0.422494,-0.425252 -2.118111,1.731007 -2.118111,1.731007 l -0.366998,5.225315 z"
         id="path43659" />
      <path
         style="display:inline;fill:#e5b898;fill-opacity:1;stroke:none;stroke-width:0.264583px;stroke-linecap:butt;stroke-linejoin:miter;stroke-opacity:1"
         d="M 82.749288,58.473905 C 82.683,57.910597 82.379017,56.859376 82.5566,56.228683 c 0.177583,-0.63069 1.614448,-2.059982 1.969469,-2.90105 0.355018,-0.841071 1.287478,-2.07966 1.287478,-2.423425 0,-0.343762 -1.650733,-0.301453 -1.891019,0.537628 -0.240287,0.839079 -0.774134,1.581671 -1.035402,2.672316 -0.261266,1.090644 -1.68283,2.176764 -1.797825,2.497301 -0.114996,0.32054 -0.218837,1.565376 0.122322,2.394683 0.341159,0.829307 -1.653911,-0.516631 -1.827567,-1.034664 -0.173657,-0.518035 -0.237046,-2.801453 -0.530601,-3.488115 -0.293553,-0.686666 1.151644,0.487444 1.091594,0.09918 -0.06005,-0.388266 -1.129236,-1.646306 -0.766741,-1.777116 0.362492,-0.130808 2.54704,-1.815526 2.88394,-3.997241 0.336899,-2.181711 5.215371,-0.49267 5.215371,-0.49267 l 0.77956,0.688758 -1.839211,4.693587 -2.338594,3.387278 z"
         id="path48150" />
      <path
         style="display:inline;fill:#e5b898;fill-opacity:1;stroke:none;stroke-width:0.264583px;stroke-linecap:butt;stroke-linejoin:miter;stroke-opacity:1"
         d="m 76.31251,45.197908 c 0,0 -1.165955,0.368298 -1.404216,0.536516 -0.388351,0.274184 -0.96197,0.656703 -1.48755,1.247898 -0.174826,0.19665 -0.272918,1.207811 -0.254527,1.583654 0.01754,0.358386 0.981653,2.52477 1.026533,3.204334 0.05965,0.90333 1.263941,2.289869 1.582809,2.289869 0.318865,0 -1.074256,-1.822206 -1.074256,-2.501021 0,-0.678815 1.200383,0.878633 1.140312,0.201387 -0.06007,-0.677248 -0.730544,-2.43219 -0.322601,-3.160866 0.407945,-0.728675 0.249891,1.543852 1.180793,2.242937 0.584342,0.438827 0.09706,-0.380458 0.05031,-1.705473 -0.02326,-0.659272 0.410262,-0.950982 0.496565,-2.450023 0.05284,-0.91785 -0.934165,-1.489212 -0.934165,-1.489212 z"
         id="path54458"
         sodipodi:nodetypes="cssssssssssscc" />
      <path
         style="display:inline;fill:#e5b898;fill-opacity:1;stroke:none;stroke-width:0.264583px;stroke-linecap:butt;stroke-linejoin:miter;stroke-opacity:1"
         d="m 95.719356,59.700961 2.105295,4.01279 -0.848518,1.844553 -0.703872,3.720835 -1.374957,0.932725 c 0,0 -0.188021,-4.019457 -1.022265,-5.01773 -0.834248,-0.998273 0.609539,-3.20725 0.652015,-3.552026 0.04248,-0.344776 -0.218451,-2.654437 -0.60947,-3.181461 -0.39102,-0.527021 1.801772,1.240314 1.801772,1.240314 z"
         id="path55315" />
      <path
         style="display:inline;fill:#e5b898;fill-opacity:1;stroke:none;stroke-width:0.264583px;stroke-linecap:butt;stroke-linejoin:miter;stroke-opacity:1"
         d="m 81.470933,67.56075 c 0,0 -0.40063,1.116668 -1.782656,1.179148 -0.657037,0.0297 -1.653059,-0.575689 -1.568104,-1.237481 0.08495,-0.661791 0.413845,-3.731373 0.702707,-4.168592 0.288861,-0.437219 0.451122,-2.570202 0.04658,-3.72106 -0.404543,-1.150856 -2.49446,-4.565711 -3.077609,-4.523746 -0.583147,0.04197 -3.899713,5.017487 -3.899713,5.017487 l -0.537522,3.494278 1.952673,4.243163 3.815191,8.775607 3.667463,-1.357651 1.19288,-5.000535 0.597879,-2.176021 z"
         id="path9134"
         sodipodi:nodetypes="cssssscccccccc" />
      <path
         style="display:inline;fill:#e5b898;fill-opacity:1;stroke:none;stroke-width:0.264583px;stroke-linecap:butt;stroke-linejoin:miter;stroke-opacity:1"
         d="m 76.392999,55.639752 c 0,0 -1.352076,-2.436331 -1.528709,-2.765999 -0.176633,-0.329665 -0.300109,-2.273329 -0.300109,-2.273329 l -0.785916,-2.817765 c 0,0 -1.140182,-0.143081 -1.345319,0.771322 -0.205136,0.914402 -0.984729,0.883565 -1.107696,1.430033 -0.122971,0.546465 -1.264068,-0.921062 -1.664079,-0.516319 -0.400007,0.404741 -0.808765,1.378387 -0.638786,1.775947 0.169979,0.397558 4.625234,3.665149 4.625234,3.665149 z"
         id="path9967" />
    </g>
    <g
       id="g31135"
       transform="translate(-49.90814,-23.344232)">
      <path
         style="display:inline;fill:#e3b08a;fill-opacity:1;stroke:none;stroke-width:0.264583px;stroke-linecap:butt;stroke-linejoin:miter;stroke-opacity:1"
         d="m 82.415024,68.496042 c 0,0 0.493282,-1.633824 0.493282,-2.042444 0,-0.408617 1.842426,-0.970578 2.680083,-0.465436 0.837658,0.50514 1.607275,1.86849 1.607275,1.86849 0,0 0.149582,1.107805 -0.724164,1.107805 -0.873747,0 -3.444203,-0.761563 -4.056476,-0.468415 z"
         id="path25698" />
      <path
         style="display:inline;fill:#e3b08a;fill-opacity:1;stroke:none;stroke-width:0.264583px;stroke-linecap:butt;stroke-linejoin:miter;stroke-opacity:1"
         d="m 82.473833,69.461675 c 0,0 -0.190547,1.438051 -0.643792,2.30944 -0.453244,0.871387 1.923712,1.628479 1.923712,1.628479 0,0 0.935185,-0.05252 1.59046,-1.173105 0.655273,-1.120587 0.09331,-1.144796 -0.744879,-1.665935 -0.838186,-0.521137 -1.831829,-0.513443 -2.125501,-1.098879 z"
         id="path28598" />
      <path
         style="display:inline;fill:#e3b08a;fill-opacity:1;stroke:none;stroke-width:0.264583px;stroke-linecap:butt;stroke-linejoin:miter;stroke-opacity:1"
         d="m 80.648701,75.771705 c 0,0 0.03618,2.585095 0.687511,2.94006 0.651328,0.354965 1.28075,0.78431 1.95915,0.972897 0.6784,0.188584 0.943181,0.854837 0.943181,0.854837 0,0 -0.07587,-0.798007 0.546566,-0.942787 0.622435,-0.144777 -0.09691,-1.071925 -0.494361,-1.400638 -0.397452,-0.328713 -2.544384,-2.276314 -2.739088,-2.673943 -0.194704,-0.397629 -0.592161,-0.799182 -0.675222,-0.424167 -0.08306,0.375018 -0.227737,0.673741 -0.227737,0.673741 z"
         id="path34948" />
      <path
         style="display:inline;fill:#e3b08a;fill-opacity:1;stroke:none;stroke-width:0.264583px;stroke-linecap:butt;stroke-linejoin:miter;stroke-opacity:1"
         d="m 88.678738,52.140812 c 0,0 4.10109,-4.84683 4.52968,-5.425818 0.428591,-0.578985 2.254163,-2.959417 2.254163,-2.959417 0,0 -1.668164,-0.06649 -2.392259,-0.468919 -0.724093,-0.402434 -1.910723,2.89066 -1.910723,2.89066 l -2.680158,5.520754 z"
         id="path22660" />
      <path
         style="display:inline;fill:#e3b08a;fill-opacity:1;stroke:none;stroke-width:0.264583px;stroke-linecap:butt;stroke-linejoin:miter;stroke-opacity:1"
         d="m 52.578338,83.029482 c 0,0 0.470053,-2.373548 1.010973,-2.945468 0.540919,-0.571924 1.012066,-1.38965 1.44028,-2.415027 0.428215,-1.025377 1.179426,-1.616266 1.743583,-2.037472 0.564161,-0.421203 0.699786,-1.95013 1.883357,-2.283174 1.183574,-0.333047 0.299488,-1.2319 1.446607,-1.729584 1.147122,-0.497686 0.843174,-0.647057 1.147122,-1.175401 0.303946,-0.528346 0.04262,-1.541459 0.04262,-1.541459 0,0 -1.547336,2.272995 -2.024478,2.556835 -0.477141,0.283837 -2.17215,-0.480129 -2.17215,-0.480129 0,0 -1.228341,0.853186 -1.228341,1.490599 0,0.63741 -0.561866,1.845784 -1.554419,2.392561 -0.99255,0.54678 -0.676921,-1.190178 -1.624862,-0.462492 -0.947941,0.727684 -0.07604,1.903609 -0.305922,2.513071 -0.22988,0.609462 -0.931423,-1.00248 -0.931423,-1.00248 0,0 -0.266232,4.918514 1.127051,7.11962 z"
         id="path67375" />
      <path
         style="display:inline;fill:#e3b08a;fill-opacity:1;stroke:none;stroke-width:0.264583px;stroke-linecap:butt;stroke-linejoin:miter;stroke-opacity:1"
         d="m 53.244056,65.401668 c 0,0 1.491996,0.793882 2.476894,0.42278 0.984901,-0.371099 3.588406,1.184209 3.588406,1.184209 0,0 1.537219,0.764244 1.856378,0.472726 0.319162,-0.291521 -0.871045,-7.662595 -1.505868,-7.992814 -0.634823,-0.330216 -1.300255,-3.489899 -1.300255,-3.489899 0,0 -0.364302,2.724814 -0.05855,4.402939 0.305748,1.678125 -1.237667,2.515127 -1.693574,2.475863 -0.455903,-0.03926 -1.787572,0.928973 -2.520084,0.52918 -0.732513,-0.399794 -0.982232,-0.851406 -0.982232,-0.350346 0,0.501063 0.138888,2.345362 0.138888,2.345362 z"
         id="path68757" />
      <path
         style="display:inline;fill:#e3b08a;fill-opacity:1;stroke:none;stroke-width:0.264583px;stroke-linecap:butt;stroke-linejoin:miter;stroke-opacity:1"
         d="m 57.408071,76.798897 c 0,0 0.770364,0.823211 2.345301,0.819184 1.551163,0.122958 2.023588,0.288314 2.899281,0.472913 0.875694,0.184599 2.083496,0.521991 1.981935,0.226757 -0.151127,-0.439322 -2.723981,-1.79212 -3.30136,-1.993766 -0.965389,-0.337155 -1.281993,-1.236633 -1.553532,-1.279112 -0.271537,-0.04248 -1.45066,0.43057 -1.512195,0.611651 -0.06153,0.181083 -0.387199,1.140661 -0.85943,1.142373 z"
         id="path72801"
         sodipodi:nodetypes="cczssssc" />
      <path
         style="display:inline;fill:#e3b08a;fill-opacity:1;stroke:none;stroke-width:0.264583px;stroke-linecap:butt;stroke-linejoin:miter;stroke-opacity:1"
         d="m 55.278167,79.348877 c 0,0 0.288949,0.969827 0.976879,1.097259 0.687933,0.127431 2.197812,-0.303287 3.727283,-0.24393 1.529472,0.05936 3.607906,1.420121 3.982797,1.589225 0.374891,0.1691 1.36493,0.367974 1.566243,0.0576 0.201311,-0.310374 0.212916,-1.838962 0.152845,-2.110478 -0.06007,-0.271512 -0.293664,-0.04789 -1.09529,-0.04789 -0.801627,0 -2.336925,-0.27937 -2.924141,-0.27937 -0.587219,0 -2.882858,-0.30692 -3.487057,-0.439251 -0.6042,-0.132329 -2.714824,-0.196265 -2.899559,0.376841 z"
         id="path74666" />
      <path
         style="display:inline;fill:#e3b08a;fill-opacity:1;stroke:none;stroke-width:0.264583px;stroke-linecap:butt;stroke-linejoin:miter;stroke-opacity:1"
         d="m 58.853244,82.877603 c 0,0 1.26501,1.743504 2.202299,1.743504 0.937289,0 2.553861,-0.300831 3.516688,-0.06007 0.962827,0.240758 1.007639,1.691264 0.685721,2.130613 -0.321919,0.439348 -3.296153,-0.484648 -5.285161,-1.137309 -1.989005,-0.652658 -2.420069,-0.619215 -3.050489,-0.77016 -0.630421,-0.150945 0.259437,-1.990222 1.177356,-2.223079 0.917919,-0.232855 0.753586,0.316502 0.753586,0.316501 z"
         id="path76088" />
      <path
         style="display:inline;fill:#e3b08a;fill-opacity:1;stroke:none;stroke-width:0.264583px;stroke-linecap:butt;stroke-linejoin:miter;stroke-opacity:1"
         d="m 53.796559,92.898419 c 0,0 1.361662,0.904499 3.490505,0.482262 2.128845,-0.422238 7.688731,-0.08767 8.269832,-0.04958 0.5811,0.03809 1.859249,1.06749 2.329019,1.027461 0.469768,-0.04003 3.846047,-0.717764 3.846047,-0.717764 0,0 -2.196973,-0.98502 -3.315105,-1.337519 -1.118132,-0.352499 -2.110078,-1.64383 -2.420541,-1.64383 -0.310464,0 -1.679397,0.792115 -2.73962,0.567338 -1.060225,-0.224776 -2.390833,-0.939329 -3.200521,-0.819459 -0.809689,0.119869 -1.656541,0.641887 -2.223577,1.036389 -0.567037,0.394501 -3.060925,0.928899 -3.896611,0.845476 -0.83569,-0.08342 -0.139428,0.609229 -0.139428,0.609229 z"
         id="path77747" />
      <path
         style="display:inline;fill:#e3b08a;fill-opacity:1;stroke:none;stroke-width:0.264583px;stroke-linecap:butt;stroke-linejoin:miter;stroke-opacity:1"
         d="m 82.211687,59.822167 c 0,0 0.851233,-3.186309 1.645848,-3.772721 0.794616,-0.586409 3.704487,-5.972291 3.902851,-7.441649 0.198363,-1.469358 1.383424,-1.009142 1.383424,-1.009142 0,0 -1.247566,3.356049 -1.474727,4.181723 -0.227161,0.825675 -1.782712,3.544729 -1.782712,4.074451 0,0.529725 -0.508175,1.356239 0.32045,2.675711 0.828627,1.319474 -0.645345,-0.105241 -0.645345,-0.105241 0,0 -0.480068,-2.590353 -0.797388,-2.029518 -0.31732,0.560832 -1.68406,2.787076 -1.804204,3.265299 -0.120142,0.478224 -0.748197,0.161087 -0.748197,0.161087 z"
         id="path18510" />
      <path
         style="display:inline;fill:#e3b08a;fill-opacity:1;stroke:none;stroke-width:0.264583px;stroke-linecap:butt;stroke-linejoin:miter;stroke-opacity:1"
         d="m 92.19099,70.826727 c 0,0 -2.511709,1.973585 -2.959648,2.678668 -0.447937,0.70508 -0.844524,2.032839 -0.844524,2.032839 0,0 0.410144,2.149462 0.620697,2.69336 0.210553,0.543899 0.947174,1.782797 1.24192,2.281449 0.294746,0.498653 0.949563,0.816227 1.060738,0.554522 0.111175,-0.261705 -0.282059,-2.11006 -0.211907,-3.094482 0.07015,-0.984422 0.829079,-3.063049 0.866055,-3.647093 0.03698,-0.584042 -0.385813,-1.297893 -0.167248,-1.647301 0.218567,-0.349409 0.832945,-0.133903 1.041016,-0.615823 0.208071,-0.481918 -0.194733,-1.062927 0.196424,-1.293143 0.391157,-0.23022 1.207519,-0.415444 1.365459,-0.377847 0.157938,0.0376 -0.06504,-0.266663 -0.224795,-0.287649 -0.159756,-0.02098 -1.374431,0.249967 -1.984187,0.7225 z"
         id="path43105" />
      <path
         style="display:inline;fill:#e3b08a;fill-opacity:1;stroke:none;stroke-width:0.264583px;stroke-linecap:butt;stroke-linejoin:miter;stroke-opacity:1"
         d="m 76.113623,45.303127 c 0,0 -2.688662,1.306019 -2.688662,1.902501 0,0.596482 0.216,1.591276 0.27004,2.204776 0.05403,0.613497 0.430881,1.755445 0.61872,2.025588 0.187841,0.270144 0.525729,-0.522224 0.525729,-0.831557 0,-0.309332 -0.490831,-2.084435 -0.262166,-2.897315 0.228664,-0.812882 1.104556,-1.335571 1.939017,-1.939194 0.834459,-0.603623 -0.402669,-0.464799 -0.402669,-0.464799 z"
         id="path54180"
         sodipodi:nodetypes="csssssscc" />
      <path
         style="display:inline;fill:#e3b08a;fill-opacity:1;stroke:none;stroke-width:0.264583px;stroke-linecap:butt;stroke-linejoin:miter;stroke-opacity:1"
         d="m 72.297247,66.093993 c 0,0 0.437099,-1.177669 0.96815,-1.351542 0.53105,-0.173871 0.04698,1.455904 0.477054,1.370563 0.43008,-0.08534 1.129715,-1.685158 1.571562,-1.7233 0.441849,-0.03814 1.086905,1.667076 1.086905,1.977805 0,0.310732 -0.775697,1.123995 -0.510037,1.215356 0.265658,0.09136 1.244957,2.469951 1.01129,3.09686 -0.233669,0.626912 -0.554743,2.92005 -0.240035,3.614674 0.314709,0.694621 1.41501,1.565508 0.873424,3.12338 -0.541589,1.557872 0.0742,2.517336 0.06355,3.005889 -0.01066,0.48855 -3.323974,-1.697334 -3.466113,-2.51042 -0.14214,-0.813083 -1.835748,-11.819265 -1.835748,-11.819265 z"
         id="path58635" />
      <path
         style="display:inline;fill:#e3b08a;fill-opacity:1;stroke:none;stroke-width:0.264583px;stroke-linecap:butt;stroke-linejoin:miter;stroke-opacity:1"
         d="m 72.148016,60.890684 c 0,0 1.144604,-1.51098 1.833066,-1.958626 0.688459,-0.447646 0.946356,0.08751 1.48178,1.232913 0.535424,1.145408 1.772145,2.539339 2.278854,2.150965 0.506708,-0.388377 -0.594617,-2.439495 -0.535231,-3.245244 0.05939,-0.805752 -0.698845,-3.030373 -1.477328,-3.655311 -0.778484,-0.624938 -5.321906,-3.977363 -6.57484,-4.313537 -1.252934,-0.336174 2.080514,3.628504 2.080514,3.628504 z"
         id="path60845"
         sodipodi:nodetypes="csssssscc" />
      <path
         style="display:inline;fill:#e3b08a;fill-opacity:1;stroke:none;stroke-width:0.264583px;stroke-linecap:butt;stroke-linejoin:miter;stroke-opacity:1"
         d="m 82.737964,68.703821 c 0,0 -2.204511,-1.372883 -2.61339,-1.372883 -0.408879,0 0.0039,-1.748313 0.25105,-1.769438 0.247195,-0.02114 2.355263,0.672597 2.642116,0.925698 0.286851,0.253103 -0.279776,2.216623 -0.279776,2.216623 z"
         id="path3747" />
      <path
         style="display:inline;fill:#e3b08a;fill-opacity:1;stroke:none;stroke-width:0.264583px;stroke-linecap:butt;stroke-linejoin:miter;stroke-opacity:1"
         d="m 82.790603,68.491493 c 0,0 -1.111771,6.646193 -1.980231,7.436477 -0.868461,0.790284 -3.189193,0.895332 -3.189193,0.895332 0,0 -0.571558,-1.155406 -0.571558,-1.334373 0,-0.178967 3.052167,-0.300816 3.401592,-1.145096 0.349424,-0.84428 -0.203909,-2.078294 -0.01058,-2.656147 0.193333,-0.577852 1.692423,-3.031807 1.734386,-3.269892 0.04197,-0.238086 0.615577,0.0737 0.615577,0.0737 z"
         id="path7684" />
      <path
         style="display:inline;fill:#e3b08a;fill-opacity:1;stroke:none;stroke-width:0.264583px;stroke-linecap:butt;stroke-linejoin:miter;stroke-opacity:1"
         d="m 81.350595,72.283703 0.336881,-2.144304 c 0,0 -1.622332,-0.578123 -2.215684,-0.524093 -0.593354,0.05403 -0.195732,2.070024 -0.195732,2.070024 0,0 1.740037,0.274506 2.074535,0.598373 z"
         id="path9274"
         sodipodi:nodetypes="ccscc" />
    </g>
    <g
       id="g31155"
       transform="translate(-49.90814,-23.344232)">
      <path
         style="display:inline;fill:#e7bfa3;fill-opacity:1;stroke:none;stroke-width:0.264583px;stroke-linecap:butt;stroke-linejoin:miter;stroke-opacity:1"
         d="m 64.617504,113.93763 6.052513,1.07907 c 0,0 7.488613,-0.20866 9.111311,-0.67546 1.622694,-0.46681 5.953162,-2.75496 6.474491,-2.75496 0.52133,0 1.858635,-1.21941 2.666902,-1.3653 0.808268,-0.14589 -1.037703,-0.93252 -2.356889,-0.93252 -1.319187,0 -3.035422,-0.30918 -5.095201,-0.0545 -2.059776,0.25471 -2.053399,0.43955 -3.480654,0.43955 -1.427255,0 -8.295005,0.99359 -9.665835,1.47342 -1.370833,0.47984 -4.224354,0.34364 -5.513123,0.59738 -1.28877,0.25374 -4.624679,0.29675 -4.961406,0.40438 -0.336724,0.10764 -0.424153,0.47402 -0.165415,0.47402 0.258739,0 6.933306,1.31489 6.933306,1.31489 z"
         id="path59987" />
      <path
         style="display:inline;fill:#e7bfa3;fill-opacity:1;stroke:none;stroke-width:0.264583px;stroke-linecap:butt;stroke-linejoin:miter;stroke-opacity:1"
         d="m 63.152794,104.74442 c 0,0 8.663856,3.6502 10.472658,3.91888 1.808803,0.26869 9.573438,-1.57025 10.671215,-1.6621 1.097777,-0.0918 -1.150512,-0.86785 -1.500285,-0.86785 -0.349772,0 -5.138227,0.2155 -6.031056,0.2155 -0.892828,0 -5.56528,-1.76701 -7.059612,-1.68205 -1.49433,0.085 -5.091986,-0.67605 -5.590733,-0.4317 -0.498748,0.24435 -0.962187,0.50932 -0.962187,0.50932 z"
         id="path61193" />
      <path
         style="display:inline;fill:#e7bfa3;fill-opacity:1;stroke:none;stroke-width:0.264583px;stroke-linecap:butt;stroke-linejoin:miter;stroke-opacity:1"
         d="m 64.953236,94.289969 c 0,0 1.144165,0.106338 3.549036,-0.476883 2.404872,-0.583221 6.459334,-1.10792 7.319153,-1.10792 0.859819,0 3.726328,-0.678599 4.115882,-0.678599 0.389554,0 4.126526,0.379618 4.126526,0.379618 0,0 -2.624532,-0.06141 -5.318939,0.830977 -1.905788,0.631195 -4.016464,2.277686 -4.507246,2.382848 -1.184651,0.253841 -1.628442,-0.121433 -3.149912,-0.196313 -1.521471,-0.07488 -3.407545,0.263756 -3.876493,0.75913 -0.46895,0.495371 -3.364097,-0.999075 -5.006271,-0.6686 -1.642171,0.330473 2.748264,-1.224261 2.748264,-1.224261 z"
         id="path64815"
         sodipodi:nodetypes="cssscssssscc" />
      <path
         style="display:inline;fill:#e7bfa3;fill-opacity:1;stroke:none;stroke-width:0.264583px;stroke-linecap:butt;stroke-linejoin:miter;stroke-opacity:1"
         d="m 93.052494,115.27459 c 0,0 -1.271077,-4.30772 -2.018025,-4.68247 -0.746948,-0.37476 -0.924962,-0.40888 -0.924962,-0.40888 0,0 3.403936,-1.55166 4.658401,-0.65526 1.729441,1.2358 5.363332,15.06457 8.438442,16.17334 1.35047,0.48693 12.7145,15.14945 13.04809,16.0861 0.33359,0.93666 -0.49483,1.00467 -0.49483,1.00467 0,0 -3.47467,-3.32844 -3.96833,-3.72309 -0.49366,-0.39465 -6.2303,-6.69073 -6.79951,-7.41649 -0.5692,-0.72575 -4.82738,-3.02147 -5.358697,-3.52455 -0.531318,-0.50307 -3.232706,-3.39403 -4.287295,-5.84048 -1.054592,-2.44645 -2.161482,-5.35704 -2.293284,-7.01289 z"
         id="path6086"
         sodipodi:nodetypes="cscssscssssc" />
      <path
         style="display:inline;fill:#e7bfa3;fill-opacity:1;stroke:none;stroke-width:0.264583px;stroke-linecap:butt;stroke-linejoin:miter;stroke-opacity:1"
         d="m 82.38615,92.208857 c 0,0 -6.430817,1.064806 -6.639369,2.049069 -0.208556,0.984264 8.327102,4.220106 10.621888,4.078697 2.294784,-0.141412 4.666099,0.300246 5.611307,-0.188042 0.945211,-0.488289 1.237655,2.187599 2.095297,1.085291 0.857641,-1.102304 0.922342,-3.397919 3.950237,-3.966196 3.02789,-0.568275 -15.63936,-3.058819 -15.63936,-3.058819 z"
         id="path6991"
         sodipodi:nodetypes="csssssc" />
      <path
         style="display:inline;fill:#e7bfa3;fill-opacity:1;stroke:none;stroke-width:0.264583px;stroke-linecap:butt;stroke-linejoin:miter;stroke-opacity:1"
         d="m 98.738956,95.397409 c 0,0 1.998284,3.826814 2.286104,4.697171 0.28782,0.87035 0.4758,2.62384 0.4758,2.90204 0,0.27819 0.82642,3.64924 1.6419,4.87373 0.81548,1.22449 7.14686,10.49229 7.50579,11.31408 0.35894,0.82179 2.88185,5.39293 3.64625,6.5216 0.7644,1.12867 2.45546,4.38211 3.03897,5.00505 0.58352,0.62293 -5.10944,-2.34271 -5.26725,-2.70396 -0.1578,-0.36125 -3.73247,-6.14342 -4.8836,-7.27658 -1.15112,-1.13316 -3.4225,-5.25679 -4.85298,-7.33683 -1.43047,-2.08004 -2.532458,-4.92732 -3.441619,-5.09008 -0.909161,-0.16277 -2.784557,-3.81886 -2.053719,-5.48614 0.730837,-1.66728 0.153082,-3.323167 0.534228,-3.852445 0.381148,-0.529278 0.267829,-3.218204 1.370126,-3.567636 z"
         id="path9822" />
      <path
         style="display:inline;fill:#e7bfa3;fill-opacity:1;stroke:none;stroke-width:0.264583px;stroke-linecap:butt;stroke-linejoin:miter;stroke-opacity:1"
         d="m 118.43629,148.39588 c 0,0 0.36624,3.73884 1.9064,4.04757 1.54016,0.30873 4.73747,0.4683 5.11881,0.62867 0.38134,0.16038 3.40721,2.80704 5.59786,2.01992 2.19065,-0.78712 4.43735,-1.36497 4.91297,-1.92554 0.47562,-0.56058 0.37541,0.60943 1.43374,0.54157 1.05833,-0.0678 1.46667,-1.22128 1.46667,-1.22128 0,0 0.8863,0.82534 1.89062,0.44035 1.00431,-0.38499 1.38327,-0.97321 1.38327,-1.26984 0,-0.29664 0.8842,0.74879 1.64519,0.37036 0.761,-0.37844 1.18087,-0.68261 1.31124,-1.49068 0.13036,-0.80807 0.0898,-0.18101 0.74145,-0.35091 0.65165,-0.16991 1.59712,-0.88653 1.76986,-1.32003 0.17274,-0.43351 0.42912,-1.01312 -0.63829,-1.18711 -1.06741,-0.17399 -2.46099,-0.75075 -2.46099,-0.75075 l 0.13653,0.32873 c 0,0 1.54958,0.58875 1.85737,0.58875 0.30779,0 0.65861,0.13155 0.34279,0.43837 -0.31581,0.30681 -0.84709,0.73983 -0.98855,0.73983 -0.14145,0 -2.84638,-1.18187 -3.30242,-1.25568 -0.45604,-0.0738 -1.5052,-0.48685 -1.62888,-0.52894 -0.12368,-0.0421 0.0467,0.38538 0.66516,0.70047 0.61842,0.3151 2.02696,1.32669 2.35936,1.45914 0.3324,0.13246 1.61152,0.54153 0.98458,0.96197 -0.62693,0.42045 -1.35276,1.16934 -1.71808,1.07243 -0.36532,-0.0969 -0.14918,-0.85536 -0.51355,-1.00981 -0.36437,-0.15445 -1.0731,-0.27536 -1.22264,-0.67397 -0.14955,-0.39861 -2.56038,-1.42172 -2.81872,-1.45511 -0.25833,-0.0334 0.71602,0.72475 1.1368,0.91139 0.42077,0.18665 1.24488,1.10465 1.39791,1.16715 0.15303,0.0625 1.01043,0.4495 0.94816,0.65422 -0.0623,0.20473 -1.48895,1.34456 -1.93462,1.16412 -0.44566,-0.18044 -0.0698,-0.35798 -0.20415,-0.59773 -0.13438,-0.23976 -0.60462,-0.65249 -0.82657,-0.65249 -0.22195,0 -1.58818,-1.42907 -1.89334,-1.46349 -0.30516,-0.0344 -1.40161,-0.23772 -1.40161,-0.23772 0,0 0.95875,0.93093 1.29,1.10517 0.33125,0.17425 1.12563,1.01346 1.29192,1.08172 0.1663,0.0683 -0.12772,0.72738 -0.61354,1.05826 -0.48582,0.33088 -0.96876,0.24969 -1.42149,-0.0962 -0.45273,-0.34588 -1.27103,-1.71328 -1.85829,-1.81035 -0.58727,-0.0971 -1.29499,-0.19015 -1.29499,-0.19015 0,0 1.79493,0.85874 1.87989,1.24708 0.0849,0.38835 -0.45099,1.03509 -0.64002,1.07101 -0.18904,0.0359 -1.56172,0.28906 -2.38485,0.0139 -0.82313,-0.27518 -1.11046,-0.36858 -1.11046,-0.36858 0,0 -2.72142,-0.50221 -3.42504,-0.45617 -0.70363,0.046 -2.5398,-0.71194 -3.22583,-0.64906 -0.68602,0.0629 -3.18629,-1.44318 -3.68702,-2.10324 -0.50073,-0.66007 -2.36855,-1.70828 -2.36855,-1.70828 0,0 0.0838,0.73671 0.11394,0.96097 z"
         id="path12669" />
    </g>
    <g
       id="g31164"
       transform="translate(-49.90814,-23.344232)">
      <path
         style="display:inline;fill:#e9c6af;fill-opacity:1;stroke:none;stroke-width:0.264583px;stroke-linecap:butt;stroke-linejoin:miter;stroke-opacity:1"
         d="m 58.690708,59.296162 c 0,0 0.887481,3.902516 1.134877,4.898265 0.247396,0.995746 0.343375,3.323215 0.578591,4.537467 0.242253,1.250579 1.300713,6.03964 2.361779,7.681441 1.190965,1.842794 2.518759,3.13554 2.665241,3.759473 0.146481,0.623935 4.777845,8.003614 4.777845,8.003614 0,0 1.157335,1.784442 3.515241,2.476759 2.357906,0.692317 7.955428,1.587656 9.102548,1.587656 1.147119,0 12.389136,-0.899337 13.1049,-0.89835 0.715764,0.0011 0.619013,0.141525 1.645173,0.141525 1.02616,0 4.121907,0.586375 4.855307,0.586375 0.73339,0 2.66331,0.127547 3.4954,0.127547 0.83209,0 3.48245,-0.296859 4.10396,-0.296859 0.62151,0 1.837,-1.134486 2.55163,-0.950635 0.71462,0.183854 2.06761,0.873227 2.44703,0.989638 0.37942,0.116414 -0.19378,-0.03778 0.61245,0.366893 0.80626,0.404672 2.68397,0.375576 2.68397,0.375576 0,0 0.35369,-0.807736 -0.25444,-1.094531 -0.60813,-0.286798 -4.09008,-1.96177 -4.50921,-2.638326 -0.41912,-0.676555 -1.35122,-1.071876 -1.46838,-1.452828 -0.11717,-0.38095 -4.67763,-2.520351 -5.39684,-2.769591 -0.71922,-0.249243 -2.24578,-0.863886 -3.39634,-0.739489 -1.15056,0.124394 -5.889588,1.277845 -6.501765,1.118854 C 96.187498,84.947645 84.731512,82.313568 83.574868,81.77413 82.418223,81.234695 79.615302,79.577241 78.102885,79.750186 76.590471,79.923131 76.993611,78.438684 76.803387,77.927408 76.613162,77.41613 76.578356,76.501015 76.259784,75.50011 75.94121,74.499202 74.189975,69.159389 73.822615,68.407401 c -0.367361,-0.751988 -0.867127,-2.010726 -1.031709,-2.65883 -0.169266,-0.666549 -0.667025,-0.777486 -0.667025,-1.95158 0,-1.174091 0.875337,-5.186111 0.755317,-6.995855 -0.120018,-1.809748 -1.71931,-4.620644 -3.589909,-5.582695 -1.870596,-0.962052 -4.499171,-1.289516 -6.356538,-0.98596 -1.85737,0.303557 -4.661432,3.171066 -4.896567,4.812131 -0.235135,1.641067 -0.127053,2.637292 0.654524,4.25155 z"
         id="path3043"
         sodipodi:nodetypes="csssscsscssssssscsssssssssssssssssc" />
    </g>
    <g
       id="g31167"
       transform="translate(-49.90814,-23.344232)">
      <path
         style="display:inline;fill:#e7bfa3;fill-opacity:1;stroke:none;stroke-width:0.264583px;stroke-linecap:butt;stroke-linejoin:miter;stroke-opacity:1"
         d="m 68.041569,63.679532 c 0,0 2.398081,-3.836866 2.398081,-5.630463 0,-1.793594 0.468357,-3.404084 -1.683094,-5.462031 -2.151452,-2.057946 -2.731974,-2.362624 -2.731974,-2.362624 0,0 3.184292,0.25219 4.641008,2.034665 1.456717,1.782476 2.035768,3.371257 2.179828,4.36264 0.144061,0.99138 -0.459417,4.623202 -0.459417,4.968568 0,0.345369 -0.546375,2.091835 0.09235,3.581953 0.638722,1.490117 3.470621,9.056116 3.70917,10.157671 0.238551,1.101556 0.648274,2.810346 0.768053,3.319447 0.119777,0.509101 0.67785,1.131845 0.09063,1.072414 -0.587217,-0.05943 -2.769209,-1.525272 -2.806076,-2.608259 -0.03687,-1.082988 -0.639241,-2.414299 -0.916522,-2.937735 -0.277281,-0.523436 -1.348047,-6.534899 -1.421294,-6.984728 -0.07324,-0.449828 -0.240146,-2.944738 -0.928992,-2.176515 -0.688845,0.768223 -1.211662,1.163582 -2.079196,1.183619 -0.867534,0.02003 -2.095762,0.337182 -2.52998,-0.219498 -0.434218,-0.556679 0.848405,-0.768541 1.677426,-2.299124 z"
         id="path33386" />
      <path
         style="display:inline;fill:#e7bfa3;fill-opacity:1;stroke:none;stroke-width:0.264583px;stroke-linecap:butt;stroke-linejoin:miter;stroke-opacity:1"
         d="m 64.663967,50.219144 c 0,0 -3.234457,0.933365 -3.065449,3.150674 0.169011,2.217309 1.359051,3.054337 1.418373,3.865374 0.05933,0.811041 -0.893998,3.775531 0.02241,4.859954 0.916417,1.084422 1.651598,3.463857 0.299252,5.761554 -1.352346,2.297694 2.166776,4.530841 2.639012,5.973421 0.472237,1.442577 1.726132,1.057079 2.295478,2.648897 0.569346,1.591815 0.153194,4.036941 0.39348,4.941043 0.240287,0.904106 2.333877,3.400579 2.829676,4.236259 0.475475,0.801424 0.588751,1.342386 0.725074,2.75366 0.746267,1.676179 1.475003,1.420167 3.035635,2.569619 0,0 -1.008182,-0.01546 -1.480566,-0.242003 -0.472385,-0.226547 -2.203397,-1.097328 -2.376369,-1.228749 -1.293096,-0.982469 -4.87463,-6.689635 -5.802556,-8.825732 -0.927925,-2.136095 -2.517364,-3.699309 -2.874319,-4.224734 -0.356955,-0.525426 -2.084869,-6.032543 -2.293866,-7.233378 -0.209,-1.200838 -0.683133,-6.686968 -1.385694,-8.575151 -0.702562,-1.888186 -1.507274,-3.845229 -1.08543,-5.425768 0.421844,-1.580539 1.477042,-2.835862 2.39662,-3.544054 0.919575,-0.708192 2.114105,-1.534361 2.584241,-1.564259 0.470135,-0.0299 1.72499,0.103373 1.72499,0.103373 z"
         id="path35999"
         sodipodi:nodetypes="cssssssssccssssssssscc" />
      <path
         style="display:inline;fill:#e7bfa3;fill-opacity:1;stroke:none;stroke-width:0.264583px;stroke-linecap:butt;stroke-linejoin:miter;stroke-opacity:1"
         d="m 81.293744,92.017115 c 0,0 19.545386,-0.164991 19.954096,-0.321238 0.40871,-0.156247 4.63296,0.306123 5.20078,0.0077 0.56781,-0.298402 -2.33094,-2.911004 -3.26819,-2.971075 -0.93725,-0.06007 -3.14901,0.210077 -3.846893,0.313775 -5.471678,0.04556 -4.819571,-0.197119 -9.137285,0.36385 -3.168693,0.411685 -5.700623,-1.71024 -10.530763,-0.214604 0.713379,1.254879 -1.543831,0.305908 -1.586105,0.771071 -0.05257,0.578398 -0.696473,1.34915 -1.060209,1.336468 -0.363738,-0.01267 1.078881,0.513996 2.410373,0.650243 z"
         id="path38027"
         sodipodi:nodetypes="cssscscsscc" />
      <path
         style="display:inline;fill:#e7bfa3;fill-opacity:1;stroke:none;stroke-width:0.264583px;stroke-linecap:butt;stroke-linejoin:miter;stroke-opacity:1"
         d="m 75.431009,82.594594 c 0,0 0.703376,-1.184986 1.079195,-1.268954 0.37582,-0.08397 0.6291,-0.201772 0.836576,-0.159293 0.207473,0.04248 1.182502,0.543735 1.92396,0.271375 0.741458,-0.272362 0.704093,-0.06837 1.289661,0.128487 0.585571,0.196861 -0.281487,0.886482 -0.645401,0.971434 -0.363913,0.08495 -1.35219,0.494443 -1.818939,0.371708 -0.466751,-0.122738 -0.935243,0.20951 -0.99115,0.519237 -0.05591,0.309726 -0.965351,1.101703 -1.122114,1.332923 -0.15676,0.231222 -0.670422,-0.101479 -0.70263,-0.494517 -0.03221,-0.393036 0.150842,-1.6724 0.150842,-1.6724 z"
         id="path40752" />
    </g>
    <g
       id="g31173"
       transform="translate(-49.90814,-23.344232)">
      <path
         style="display:inline;fill:#e9c6af;fill-opacity:1;stroke:none;stroke-width:0.264583px;stroke-linecap:butt;stroke-linejoin:miter;stroke-opacity:1"
         d="m 79.800179,35.783811 c 0,0 0.384802,-1.30795 0.661347,-1.537073 0.276543,-0.229122 0.113956,-1.298327 0.737579,-1.498267 0.623621,-0.199938 0.88878,-0.309949 0.88878,-0.754571 0,-0.444622 0.161986,-0.872855 0.291354,-1.13729 0.129368,-0.264435 -0.03324,-1.133612 0.203304,-1.400937 0.236545,-0.267322 0.999969,-0.708496 1.262216,-1.013222 0.262244,-0.304726 1.745033,-1.874303 2.213311,-2.24207 0.468275,-0.367768 1.3273,-0.685529 1.3273,-0.685529 l 0.339252,-0.107101 c 0,0 0.177599,-0.428388 0.300379,-0.428388 0.12278,0 1.765781,0.04577 1.851702,0.04577 0.08592,0 5.736132,1.357022 5.736132,1.357022 l 1.681467,6.388558 -2.676126,4.414071 -3.981399,2.311717 -5.197007,0.04361 -1.429964,-3.201218 -2.749839,-0.704016 z"
         id="path86424"
         sodipodi:nodetypes="csssssssccsscccccccc" />
    </g>
    <g
       id="g31176"
       transform="translate(-49.90814,-23.344232)">
      <path
         style="display:inline;fill:#e5b898;fill-opacity:1;stroke:none;stroke-width:0.264583px;stroke-linecap:butt;stroke-linejoin:miter;stroke-opacity:1"
         d="m 86.523104,38.82006 c 0,0 0.423714,-3.251644 1.383924,-3.755543 0.96021,-0.503899 1.575549,0.48564 2.301955,0.226819 0.726403,-0.25882 0.80219,-1.096502 0.883523,-1.258898 0.08133,-0.162396 -0.69002,-1.467434 -0.628695,-1.949558 0.06132,-0.482127 0.79398,-0.645298 1.337797,-0.869027 0.543814,-0.223726 0.853249,-1.45229 1.274852,-1.494933 0.421603,-0.04264 1.467998,-0.176643 2.073886,-0.112241 0.605888,0.0644 0.93195,1.01192 0.93195,1.01192 l 0.0038,3.863761 -2.944958,3.209864 -5.560052,1.288351 z"
         id="path13934" />
      <path
         style="display:inline;fill:#e5b898;fill-opacity:1;stroke:none;stroke-width:0.264583px;stroke-linecap:butt;stroke-linejoin:miter;stroke-opacity:1"
         d="m 82.467531,32.511047 c 0,0 -0.313939,0.657447 -0.154305,1.310648 0.159631,0.653201 1.308177,0.489297 1.482746,0.381751 0.17457,-0.107545 0.514808,-0.430937 0.474438,-0.935458 -0.04037,-0.504518 -0.323424,-0.633116 -0.596159,-0.571741 -0.272736,0.06138 0.164467,0.348721 0.0052,0.488413 -0.159234,0.139692 -0.320908,-0.237095 -0.342146,0.02559 -0.02125,0.262678 -0.336481,0.08803 -0.376573,-0.144585 -0.04009,-0.232619 -0.120616,-0.444277 -0.493231,-0.554611 z"
         id="path19019" />
    </g>
    <g
       id="g31180"
       transform="translate(-49.90814,-23.344232)">
      <path
         style="fill:#ffffff;fill-opacity:1;stroke:none;stroke-width:0.264583px;stroke-linecap:butt;stroke-linejoin:miter;stroke-opacity:1"
         d="m 87.175701,33.034808 c 0,0 0.564169,-0.733271 1.006446,-0.842385 0.442275,-0.109112 1.095045,0.05632 1.274257,0.402613 0.179211,0.346298 0.534162,1.114701 0.494017,1.320901 -0.04015,0.2062 -1.293513,-0.114586 -1.551749,-0.216363 -0.258234,-0.101775 -0.983335,-0.304371 -1.222971,-0.664766 z"
         id="path13366" />
      <path
         style="fill:#ffffff;fill-opacity:1;stroke:none;stroke-width:0.264583px;stroke-linecap:butt;stroke-linejoin:miter;stroke-opacity:1"
         d="m 82.801187,32.108981 c 0,0 0.116675,-0.177967 0.277277,-0.390337 0.160603,-0.212368 0.751573,-1.026634 0.751573,-1.026634 0,0 -0.13735,-0.227155 -0.619236,-0.193542 -0.481886,0.03362 -0.932188,0.418383 -0.991216,0.650258 -0.05903,0.231878 -0.219626,0.859719 -0.08705,0.880957 0.13258,0.02125 0.206309,0.0709 0.390204,0.07424 z"
         id="path13449"
         sodipodi:nodetypes="cscssssc" />
    </g>
    <g
       id="g31184"
       transform="translate(-49.90814,-23.344232)">
      <path
         style="fill:#28170b;fill-opacity:1;stroke:none;stroke-width:0.264583px;stroke-linecap:butt;stroke-linejoin:miter;stroke-opacity:1"
         d="m 77.864048,37.117411 c 0,0 -1.293214,0.582435 -1.571193,1.648309 -0.27798,1.065877 -0.738318,0.933606 -0.738318,0.933606 0,0 -0.274608,0.649224 -0.417062,1.07161 -0.142455,0.422387 -0.282118,0.705581 -0.316831,0.965235 -0.03472,0.259654 0.251354,0.463912 0.304869,0.688385 0.05351,0.22447 0.159882,0.385048 0.103489,0.755941 -0.05639,0.370893 -0.343874,0.887566 -0.05455,1.195149 0.289322,0.307586 0.295661,0.758743 0.295661,0.899097 0,0.140353 0.290873,1.316418 1.090943,1.445344 0.800074,0.128927 1.036744,1.201277 1.450393,1.517142 0.41365,0.315868 2.065478,0.768361 2.32224,0.878163 0.25676,0.109802 1.220499,0.318447 1.948961,0.08933 0.728461,-0.229113 3.487647,0.354415 3.843305,0.316373 0.355661,-0.03804 1.13219,-0.387829 1.463747,-0.427786 0.331557,-0.03996 0.841293,-0.102582 1.260988,-0.30066 0.419695,-0.19808 0.968145,-0.01204 1.493999,-0.164319 0.525854,-0.152292 0.717068,-0.898266 1.443135,-1.243566 0.726067,-0.345299 0.897557,-0.590515 0.997765,-0.993724 0.100209,-0.40321 0.07715,-1.388894 0.383469,-1.690773 0.306319,-0.301879 0.788268,-0.95409 0.644747,-1.157917 -0.14352,-0.203827 -0.346469,-1.23155 -0.264544,-1.468038 0.08192,-0.23649 -0.263408,-0.217805 0.203447,-0.927526 0.466852,-0.709721 0.185065,-0.479041 0.432808,-0.563115 0.24774,-0.08407 0.263382,0.174747 0.398679,0.223755 0.135297,0.04901 0.266853,0.122899 0.404897,-0.05881 0.138047,-0.181708 0.109826,-0.384953 0.124674,-0.544036 0.01484,-0.159086 -0.156606,-1.006727 -0.0392,-1.05622 0.1174,-0.04949 0.365881,-0.158342 0.454667,-0.287983 0.08879,-0.129643 1.242169,-0.604546 1.885038,-0.37311 0.642871,0.231439 1.182547,0.654929 1.242618,1.060334 0.06007,0.405402 0.02188,1.012888 -0.283829,1.445326 -0.305705,0.432437 -1.037029,1.595289 -1.484876,1.868 -0.447847,0.272714 -1.870046,0.344348 -2.16026,0.595567 -0.290213,0.251219 -0.453218,1.253178 -0.710932,1.606098 -0.257715,0.352919 -1.192395,1.614535 -1.248805,2.014706 -0.05641,0.400172 0.760408,0.236742 0.916464,0.01439 0.156057,-0.222346 0.529378,-0.811133 0.951225,-1.114984 0.421849,-0.303852 1.17267,-0.918104 1.17267,-1.182208 0,-0.264107 0.851993,-0.981774 1.113832,-1.158539 0.261837,-0.176768 0.388644,-0.463362 0.06475,-0.436571 -0.323892,0.02679 0.007,-0.192849 0.165529,-0.183414 0.15857,0.0094 0.879396,-0.279847 1.018159,-0.48686 0.138763,-0.207012 0.34884,-0.262326 0.570055,-0.426569 0.221218,-0.164243 -0.01273,-0.531191 0.06782,-0.685572 0.08053,-0.15438 0.02082,-0.546876 0.283614,-0.315323 0.2628,0.231553 0.407554,-0.09052 0.54247,-0.184454 0.134917,-0.09394 0.374425,-0.323879 0.374425,-0.484532 0,-0.160652 0.10282,-0.962403 0.46921,-1.255842 0.36639,-0.293436 0.55788,-0.842206 0.55788,-1.125238 0,-0.283036 0.003,-0.449472 0.003,-0.708724 0,-0.259252 0.44641,-0.549468 0.50937,-1.095552 0.063,-0.546084 0.12065,-0.858914 -0.12764,-0.814438 -0.24829,0.04448 0.0386,-0.490207 -0.16294,-0.592047 -0.20149,-0.101841 -0.22651,-0.761551 -0.22651,-0.761551 0,0 0.26836,-0.349406 0.26836,-0.665667 0,-0.316262 -0.69016,-1.285389 -0.80505,-1.455857 -0.11489,-0.170471 -0.538035,-2.0028 -1.046599,-2.553345 -0.508563,-0.550545 -0.648745,-0.111697 -0.708816,-0.357275 -0.06007,-0.245579 -1.064911,-2.269866 -2.089007,-2.834999 -1.024096,-0.565134 -1.702967,-0.908567 -1.887156,-0.938603 -0.18419,-0.03004 -0.996622,-0.480526 -1.092901,-0.480239 -0.09628,2.91e-4 -0.0073,-0.102987 -0.08939,-0.286385 -0.0821,-0.183398 -0.635817,-0.262635 -0.763069,-0.262635 -0.127254,0 -1.370898,0.210924 -1.499028,-0.06356 -0.128127,-0.274484 -0.328774,-0.425958 -0.657699,-0.425958 -0.328922,0 -0.420751,0.276102 -0.852818,0.276102 -0.43207,0 -1.198282,-0.111352 -1.44267,0.01555 -0.24439,0.126905 -0.260135,0.538483 -0.54379,0.74127 -0.283657,0.202787 0.07246,0.595116 -0.387432,0.617185 -0.459893,0.02207 -1.705996,0.06517 -1.815756,0.455756 -0.10976,0.390588 -0.418703,1.026009 0.250135,0.97101 0.668837,-0.055 0.626782,-0.430697 0.50806,-0.462078 -0.118721,-0.03138 0.166908,-0.203321 0.481301,-0.224277 0.314394,-0.02096 0.501735,-0.115547 0.341069,-0.220405 -0.160665,-0.104857 0.220779,0.01743 0.370258,-0.142851 0.149479,-0.160277 0.140452,-0.466901 0.415835,-0.466901 0.275384,0 0.51616,0.206409 0.748806,0.05958 0.232642,-0.146827 -0.139394,0.390743 0.125349,0.518634 0.264739,0.12789 0.509693,0.225726 0.509693,0.04519 0,-0.180541 0.280215,-0.190251 0.421217,-0.09432 0.141001,0.09593 0.377608,-0.128846 0.86097,-0.02095 0.483364,0.107893 0.352425,-0.263862 0.675386,0.0073 0.322958,0.271152 0.106635,0.515842 0.344199,0.515842 0.237561,0 0.702437,-0.0055 0.985731,-0.09769 0.283298,-0.09215 0.433787,0.387723 0.412549,0.746985 -0.02125,0.359264 -0.211352,0.77941 -0.05334,0.79834 0.158006,0.01894 0.105764,0.340249 0.549732,0.361487 0.443971,0.02125 0.803267,-0.129415 1.016373,-0.193841 0.213109,-0.06443 0.649415,0.175418 0.493975,0.45661 -0.15544,0.281191 -0.848908,0.184118 -0.80341,0.557808 0.0455,0.373692 -0.159396,1.142021 0.658318,1.30838 0.817713,0.166357 0.672576,0.06022 0.818075,0.103812 0.1455,0.04359 -0.687567,0.505148 -0.687567,0.610703 0,0.105556 0.283744,0.06674 0.157287,0.498049 -0.126455,0.431316 -0.191686,1.112057 0.01804,1.561185 0.209738,0.449125 0.507889,1.173834 -0.05351,1.193699 -0.561401,0.01987 -0.528434,0.04616 -0.489588,0.264454 0.03885,0.218292 0.4098,0.820134 0.180679,0.89521 -0.229121,0.07507 -0.177199,-0.252881 -0.434866,-0.04318 -0.257668,0.209704 -0.519367,0.271111 -0.603108,0.57489 -0.08374,0.303778 -0.06054,0.09593 -0.543705,0.09593 -0.483169,0 -1.14046,0.45091 -1.14046,0.844923 0,0.394012 -0.03379,-0.09015 -0.351462,0.103735 -0.317675,0.193884 -0.08811,0.591029 -0.290618,0.666927 -0.20251,0.0759 -1.284206,0.687983 -1.662774,0.730578 -0.378569,0.04259 -2.462615,0.02445 -2.602958,0.02445 -0.140345,0 -0.99396,0.241755 -0.99396,0.241755 0,0 0.211452,-0.245087 0.01958,-0.463976 -0.191865,-0.21889 -0.403762,-0.394801 -0.467214,-0.766175 -0.06345,-0.371375 -0.356098,-0.463333 -0.67682,-0.725864 -0.320723,-0.26253 -0.08376,-0.996407 -0.574337,-1.17948 -0.490574,-0.183071 -0.35569,-0.04914 -0.81356,-0.398145 -0.502583,-0.383081 -0.481074,-0.276365 -1.327939,-0.490598 -0.846868,-0.214231 -0.765351,-0.318824 -1.175712,-0.03566 -0.410363,0.283168 -0.70086,0.420312 -1.057256,0.526222 -0.356396,0.10591 -0.530209,0.518427 -0.819187,0.78004 -0.288978,0.261614 -0.585256,0.666641 -0.958906,0.883382 -0.373647,0.216742 -0.534617,0.336072 -0.534617,0.336072 z"
         id="path85545"
         sodipodi:nodetypes="cscsssssssssssssssssssssssssssssssssssssscssssssssscsccssssssssssssssssssssssssssssscsssssssssssssssssssssscsssssssssscc" />
      <path
         style="fill:#28170b;fill-opacity:1;stroke:none;stroke-width:0.264583px;stroke-linecap:butt;stroke-linejoin:miter;stroke-opacity:1"
         d="m 86.978306,29.41565 c 0,0 0.1249,0.386503 0.330145,0.41743 0.205248,0.03093 0.37633,0.03885 0.656005,0.223406 0.279678,0.18455 0.271423,0.158734 0.485674,0.459203 0.214252,0.300466 0.90151,0.38717 1.112438,0.535049 0.210929,0.147878 0.585291,1.137621 0.741038,1.084061 0.155744,-0.05356 0.631486,-0.520893 0.610518,-0.696428 -0.02096,-0.175535 -0.394807,-0.575194 -0.684261,-0.714894 -0.289454,-0.139698 -0.118424,0.02451 -0.72486,-0.385543 -0.606433,-0.410054 -0.683265,-0.363355 -0.931161,-0.570193 -0.247896,-0.206838 -0.473372,-0.559922 -0.792877,-0.575016 -0.319503,-0.01511 -1.220714,-0.193223 -0.802659,0.222925 z"
         id="path14005"
         sodipodi:nodetypes="cssssssssssc" />
      <path
         style="display:inline;fill:#28170b;fill-opacity:1;stroke:none;stroke-width:0.264583px;stroke-linecap:butt;stroke-linejoin:miter;stroke-opacity:1"
         d="m 83.868561,28.562509 c 0,0 0.335716,-0.01979 0.448069,-0.02003 0.112355,-2.23e-4 0.646705,-0.08309 0.789842,-0.06556 0.143137,0.01754 0.722656,-0.102153 0.971767,0.04297 0.24911,0.145122 -0.762283,0.73002 -0.762283,0.73002 0,0 -0.528135,-0.118443 -0.722874,-0.116316 -0.194738,0.0021 -0.216984,0.335193 -0.705487,0.335193 -0.488501,0 -0.572223,0.345257 -0.885598,0.366495 -0.313375,0.02125 -0.523824,0.391081 -0.523824,0.391081 0,0 -0.06234,-0.19708 -0.01363,-0.34512 0.0487,-0.14804 0.08976,-0.09542 0.109739,-0.258001 0.01998,-0.162575 0.18074,-0.204475 0.218461,-0.317706 0.03772,-0.113231 0.09941,-0.357727 1.075825,-0.743032 z"
         id="path14559" />
    </g>
    <g
       id="g31189"
       transform="translate(-49.90814,-23.344232)">
      <path
         style="display:inline;fill:#a4a6ab;fill-opacity:1;stroke:none;stroke-width:0.0390781px;stroke-linecap:butt;stroke-linejoin:miter;stroke-opacity:1"
         d="m 81.723319,93.071699 c 0,0 0.737491,0.549417 0.910728,0.558752 0.173237,0.0093 0.787793,0.122323 1.315919,0.184851 0.528128,0.06253 18.969944,2.303529 19.247354,2.296151 0.2774,-0.0074 16.5158,-1.909123 16.5158,-1.909123 0,0 -0.0352,-0.06652 0.2627,-0.151083 0.29788,-0.08458 1.43641,-0.582992 1.68032,-0.683176 0.24393,-0.100178 0.20031,-0.388601 0.10272,-0.590512 -0.0976,-0.201918 -8.11548,-20.469898 -8.21472,-20.611337 -0.0992,-0.141439 -0.19692,-0.34086 -0.39994,-0.431226 -0.20304,-0.09037 -17.07668,-3.05615 -17.335142,-3.082478 -0.258462,-0.02634 -0.368123,-0.01152 -0.472796,0.06476 -0.104678,0.07634 -0.343064,0.22857 -0.30141,0.454861 0.04166,0.226293 8.188788,22.555191 8.188788,22.555191 0,0 -1.65534,-0.185954 -1.81286,-0.176636 -0.15751,0.0093 -19.637678,1.224661 -19.746516,1.285359 -0.108837,0.06069 0.05908,0.235663 0.05908,0.235663 z"
         id="path7437"
         sodipodi:nodetypes="ccsscssscsscscsscc" />
    </g>
    <g
       id="g31192"
       transform="translate(-49.90814,-23.344232)">
      <path
         style="display:inline;fill:#95989d;fill-opacity:1;stroke:none;stroke-width:0.264583px;stroke-linecap:butt;stroke-linejoin:miter;stroke-opacity:1"
         d="m 95.380109,69.052341 c 0,0 0.0084,0.07844 0.05278,0.289539 0.04433,0.211093 2.076524,5.521915 2.145496,5.674379 0.06897,0.15246 1.915062,5.037986 1.983803,5.195337 0.06874,0.15735 5.177542,14.11493 5.177542,14.11493 0,0 0.26938,0.694426 0.67028,0.681085 0.4009,-0.01333 3.24023,-0.307684 3.24023,-0.307684 l 3.42086,-0.329522 c 0,0 -0.42299,-0.294489 -0.65928,-0.267057 -0.23628,0.02743 -2.62151,-0.168648 -3.55738,-0.235879 -0.93588,-0.06723 -1.4079,-0.88156 -1.83911,-1.279623 -0.4312,-0.398063 -1.41444,-2.995991 -1.55942,-3.748169 -0.14499,-0.752176 -2.02545,-7.479425 -2.5175,-7.950335 -0.49205,-0.470911 -4.249686,-8.843656 -4.306352,-9.220907 -0.05666,-0.37725 -0.332456,-1.043873 0.109919,-1.329864 0.442375,-0.285994 1.5391,-0.07223 2.058784,-0.10227 0.519679,-0.03003 2.109799,-0.07887 2.347709,-0.07887 0.23791,0 0.70865,-0.341178 0.38405,-0.341178 -0.32461,0 -6.491933,-1.127247 -6.491933,-1.127247 0,0 -0.754979,-0.189454 -0.660478,0.363335 z"
         id="path13084"
         sodipodi:nodetypes="cssscsccsssssssssscc" />
      <path
         style="display:inline;fill:#95989d;fill-opacity:1;stroke:none;stroke-width:0.264583px;stroke-linecap:butt;stroke-linejoin:miter;stroke-opacity:1"
         d="m 119.59215,87.388553 c 0,0 2.2524,5.425919 2.2691,5.541076 0.0167,0.115158 0.0907,0.149075 -0.011,0.164629 -0.10173,0.01556 -4.76934,0.559689 -4.76934,0.559689 0,0 0.44512,-0.652883 0.54786,-0.669473 0.10274,-0.01659 1.41187,-0.470344 1.6106,-1.590556 0.30485,-1.718351 -0.49638,-2.404126 -0.57682,-2.874259 -0.0793,-0.463399 0.01,-1.09189 -0.59177,-2.437993 -0.25096,-0.586925 -0.46078,-2.039618 -0.7357,-2.558342 -0.39973,-0.75421 -0.71857,-1.757471 -0.69789,-2.32395 0.025,-0.684684 -0.26805,-0.84084 0.025,-1.22713 0.0325,-0.04282 0.33181,0.775847 0.33181,0.775847 z"
         id="path31226"
         sodipodi:nodetypes="csscssscssscc" />
    </g>
    <g
       id="g31196"
       transform="translate(-49.90814,-23.344232)">
      <path
         style="fill:#7d8089;fill-opacity:1;stroke:none;stroke-width:0.264583px;stroke-linecap:butt;stroke-linejoin:miter;stroke-opacity:1"
         d="m 81.66265,92.82785 c 0,0 -0.07067,0.09763 -0.0092,0.158797 0.06146,0.06117 22.08804,1.931128 22.08804,1.931128 l 0.82827,0.02679 c 0,0 -0.20904,-0.323025 -0.27382,-0.509982 -0.0648,-0.186957 -1.04132,-2.73893 -1.04132,-2.73893 0,0 -1.70737,-0.152003 -1.92385,-0.152003 -0.21649,0 -19.431794,1.190559 -19.668109,1.284201 z"
         id="path18737" />
      <path
         style="fill:#72777e;fill-opacity:1;stroke:none;stroke-width:0.264583px;stroke-linecap:butt;stroke-linejoin:miter;stroke-opacity:1"
         d="m 89.997012,92.294439 7.289342,0.550799 5.761636,-0.387099 -6.875111,-0.60834 z"
         id="path25217" />
    </g>
  </g>
</svg>
