<?xml version="1.0" encoding="UTF-8" standalone="no"?>
<!-- Created with Inkscape (http://www.inkscape.org/) -->

<svg
   width="98.285263mm"
   height="139.60403mm"
   viewBox="0 0 98.285263 139.60403"
   version="1.1"
   id="svg5"
   inkscape:version="1.2.1 (9c6d41e410, 2022-07-14)"
   sodipodi:docname="orator-icon.svg"
   inkscape:export-filename="../Repos/daniel/images/oratorsvg.svg"
   inkscape:export-xdpi="96"
   inkscape:export-ydpi="96"
   xmlns:inkscape="http://www.inkscape.org/namespaces/inkscape"
   xmlns:sodipodi="http://sodipodi.sourceforge.net/DTD/sodipodi-0.dtd"
   xmlns="http://www.w3.org/2000/svg"
   xmlns:svg="http://www.w3.org/2000/svg">
  <sodipodi:namedview
     id="namedview7"
     pagecolor="#ffffff"
     bordercolor="#666666"
     borderopacity="1.0"
     inkscape:pageshadow="2"
     inkscape:pageopacity="0.0"
     inkscape:pagecheckerboard="0"
     inkscape:document-units="mm"
     showgrid="false"
     inkscape:zoom="1"
     inkscape:cx="74"
     inkscape:cy="205"
     inkscape:window-width="1441"
     inkscape:window-height="1022"
     inkscape:window-x="355"
     inkscape:window-y="24"
     inkscape:window-maximized="0"
     inkscape:current-layer="layer11"
     showguides="true"
     inkscape:guide-bbox="true"
     width="209mm"
     inkscape:showpageshadow="2"
     inkscape:deskcolor="#d1d1d1" />
  <defs
     id="defs2">
    <linearGradient
       id="linearGradient1284"
       inkscape:swatch="gradient">
      <stop
         style="stop-color:#0000e0;stop-opacity:1;"
         offset="0"
         id="stop1280" />
      <stop
         style="stop-color:#000000;stop-opacity:0;"
         offset="1"
         id="stop1282" />
    </linearGradient>
  </defs>
  <g
     inkscape:groupmode="layer"
     id="layer8"
     inkscape:label="toga"
     transform="translate(-0.09318325,-0.27510428)">
    <path
       d="m 59.697455,30.704503 c 0,0 -3.294925,0.17348 -2.864299,-1.30967 0.430626,-1.48315 -3.059606,0.33817 -7.182114,-2.04943 -1.780288,-0.86376 -1.474294,-1.98858 -1.474294,-1.98858 1.046505,-1.26471 2.96359,-0.85761 4.296056,-1.41606 1.880637,-0.78819 2.242504,-0.003 3.159815,-1.87683 0.917308,-1.87413 0.715986,-6.62809 0.238216,-6.47934 -0.477768,0.14875 -1.71083,-1.87591 -1.71083,-1.87591 -2.02343,-2.15898 -1.191438,-3.73435 -1.191438,-3.73435 0,0 0.05676,-0.44592 1.029217,-0.10555 0,0 -0.897379,-6.7279755 3.062667,-8.7011565 3.435045,-1.71158806 6.491845,0.139498 7.051465,0.483741 0.55961,0.344245 2.05825,1.639506 2.19005,3.216011 0.13179,1.576505 1.33135,4.5934345 1.33135,4.5934345 0.56066,0.16811 0.85477,-0.2789395 0.26704,2.37471 -0.58773,2.65364 -1.56096,2.31608 -1.56096,2.31608 -0.67273,1.14146 -0.71876,2.05412 -0.71876,2.05412 l 0.0934,3.64976 1.54688,0.32734 -2.72173,6.06916"
       style="display:inline;fill:#e9c6af;fill-opacity:1;stroke:none;stroke-width:0.352553;stroke-linecap:butt;stroke-linejoin:miter;stroke-miterlimit:4;stroke-dasharray:none;stroke-opacity:1"
       id="path22461"
       sodipodi:nodetypes="cscsccccscssscccsccc" />
    <path
       style="display:inline;fill:#e5b99b;fill-opacity:1;stroke:none;stroke-width:0.264583px;stroke-linecap:butt;stroke-linejoin:miter;stroke-opacity:1"
       d="m 55.716696,2.2917915 c 0,0 1.14188,1.49665 1.780296,1.830448 0.638416,0.333798 -1.127768,1.473294 -1.127768,2.266064 0,0.79277 -0.100028,1.04991 -0.05847,1.20702 0.04156,0.15711 2.028396,-0.0449 2.447335,0.29218 0.418941,0.3371 -0.882507,0.3717 -0.990664,0.61696 -0.108153,0.24525 -1.03038,0.41262 -1.03038,0.41262 0,0 -1.785354,-0.19494 -1.472735,0.19043 0.126241,0.5769295 0.602301,1.1368195 1.155693,1.3088795 0.553395,0.17207 0.848225,0.49111 0.716193,0.99049 -0.132035,0.49937 -0.128014,3.09619 0.407327,3.81425 0.535342,0.71805 1.615051,2.09527 2.104671,1.72693 0.489622,-0.36834 1.205219,-0.68576 1.600181,-0.48892 0.39496,0.19685 0.85335,0.76281 0.951323,0.58922 0.09797,-0.1736 0.763839,-0.63711 0.763839,-0.43344 0,0.20368 -0.07169,0.86581 0.261768,0.90583 0.333461,0.04 -2.665341,0.66129 -3.499612,0.27767 -0.834271,-0.38363 -1.735275,-0.66637 -2.28218,-0.99974 -0.546906,-0.33337 -1.483005,-1.5671 -1.779653,-1.97841 -0.296646,-0.4113 -1.078235,-3.34074 -1.146458,-3.54042 -0.06822,-0.19968 -0.561562,-3.7963795 -0.561562,-4.8357895 0,-1.039415 0.257087,-2.936255 0.753954,-3.321245 0.496866,-0.384992 1.006901,-0.830987 1.006901,-0.830987 z"
       id="path163561"
       sodipodi:nodetypes="csssssccsssssssssssssscc" />
    <path
       style="display:inline;fill:#e5b99b;fill-opacity:1;stroke:none;stroke-width:0.264583px;stroke-linecap:butt;stroke-linejoin:miter;stroke-opacity:1"
       d="m 64.136226,16.728213 c 0,0 1.8641,-2.72455 1.92088,-2.9243 0.0568,-0.19975 0.28181,-1.41537 0.31489,-1.89401 0.0331,-0.47864 -0.11883,-2.13437 -0.11883,-2.13437 0,0 -1.11048,0.89472 -1.20205,1.08581 -0.23793,0.49655 0.15148,2.42009 -0.24625,3.91161 -0.13787,0.51703 -0.40921,1.05075 -0.55429,1.32118 -0.56363,1.0506 -0.64171,1.158 -0.64171,1.158 z"
       id="path170820"
       sodipodi:nodetypes="csscssscc" />
    <path
       style="display:inline;fill:#e3b08a;fill-opacity:1;stroke:none;stroke-width:0.264583px;stroke-linecap:butt;stroke-linejoin:miter;stroke-opacity:1"
       d="m 59.689663,10.176743 0.09081,-2.1734095 c 0,0 0.06319,-0.50725 -0.818237,-0.52657 -0.881427,-0.0193 -2.123839,-0.27222 -2.469618,0.0955 -0.345779,0.36772 1.689005,0.0266 2.363047,0.69435 0.674042,0.66776 0.515542,0.6076 0.515542,0.6076 0,0 0.07745,-0.0913 0.318451,1.3025395 z"
       id="path8045"
       sodipodi:nodetypes="ccssscsc" />
    <path
       style="display:inline;fill:#e3b08a;fill-opacity:1;stroke:none;stroke-width:0.264583px;stroke-linecap:butt;stroke-linejoin:miter;stroke-opacity:1"
       d="m 61.432825,9.0192135 c 0,0 0.659847,-1.38874 1.635318,-1.42317 0.975473,-0.0344 1.369823,0.16864 1.369823,0.16864 0,0 -0.46388,-0.49154 -1.674091,-0.43801 -1.210207,0.0535 -1.496039,-0.28259 -1.461844,0.32038 0.0342,0.60298 0.02913,0.91204 0.130794,1.37216 z"
       id="path8309" />
    <path
       style="display:inline;fill:#e3b08a;fill-opacity:1;stroke:none;stroke-width:0.264583px;stroke-linecap:butt;stroke-linejoin:miter;stroke-opacity:1"
       d="m 56.57013,8.2229035 c 0,0 -0.105135,0.6804 0.506209,0.24512 0.611341,-0.43528 -0.0093,0.39757 -0.145452,0.6324 -0.136141,0.2348295 -0.801206,-0.26767 -0.360757,-0.87752 z"
       id="path8445" />
    <path
       style="display:inline;fill:#e3b08a;fill-opacity:1;stroke:none;stroke-width:0.264583px;stroke-linecap:butt;stroke-linejoin:miter;stroke-opacity:1"
       d="m 63.104127,8.2551935 c 0,0 0.792689,0.047 0.883599,0.61753 0.0909,0.5705395 0.1145,-0.56853 0.51694,-0.61053 0.40244,-0.042 0.46168,-0.54821 -0.0393,-0.3142 -0.50104,0.23401 -1.361189,0.3072 -1.361189,0.3072 z"
       id="path9382" />
    <path
       style="display:inline;fill:#e5b99b;fill-opacity:1;stroke:none;stroke-width:0.264583px;stroke-linecap:butt;stroke-linejoin:miter;stroke-opacity:1"
       d="m 56.148692,20.240683 c 0,0 -0.01788,0.5317 -0.46043,1.5192 -0.515361,1.14997 -2.894265,2.17147 -3.018082,2.35105 -0.123815,0.17958 -0.776356,0.83062 -0.350383,0.94567 0.425977,0.11504 0.989338,-0.89992 1.825184,-0.82528 0.835847,0.0746 0.972473,0.72721 1.236416,0.54421 0.26394,-0.183 0.680985,-0.72039 0.734367,0.0216 0.05338,0.74195 0.560334,0.003 0.560334,0.003 0,0 0.203365,-2.02299 0.40168,-0.41919 0.198316,1.60381 0.899766,0.58599 0.742212,-0.3044 -0.157551,-0.89039 -1.33988,-2.81501 -1.586349,-4.09369 -0.109811,-0.5697 -0.114377,0.62006 -0.114377,0.62006 z"
       id="path28833"
       sodipodi:nodetypes="cssscsscssscc" />
    <path
       d="m 55.85039,15.577183 c -0.47777,0.14875 -1.71083,-1.87591 -1.71083,-1.87591 -2.02343,-2.15898 -1.19144,-3.73435 -1.19144,-3.73435 0,0 0.0568,-0.44592 1.02922,-0.10555 0,0 0.941896,1.67288 1.053312,2.72773 0.111415,1.05485 1.634364,3.09415 2.014291,3.39357 0.757651,0.86639 0.474337,0.61584 2.067834,1.20438 1.281933,0.73396 0.891124,-0.23343 1.478297,-0.3042 0.587174,-0.0708 1.016409,0.11249 0.86048,0.32562 0.445988,0.30478 0.354242,0.31669 1.42856,0.18771 -0.160314,0.0954 0.906582,-0.47842 1.446512,-1.09503 0.53993,-0.61662 -0.91653,1.91869 -1.78964,2.06786 -0.873109,0.14918 -2.061497,0.29315 -3.459906,0.1122 -1.398409,-0.18094 -3.226692,-2.90403 -3.226692,-2.90403 z"
       style="display:inline;fill:#e3b08a;fill-opacity:1;stroke:none;stroke-width:0.352553;stroke-linecap:butt;stroke-linejoin:miter;stroke-miterlimit:4;stroke-dasharray:none;stroke-opacity:1"
       id="path32270"
       sodipodi:nodetypes="scccscccccssscs" />
    <path
       d="m 54.068325,13.800493 c -2.02343,-2.15898 -1.19144,-3.73435 -1.19144,-3.73435 0,0 0.0568,-0.44592 1.02922,-0.10555 l 1.873048,5.71581 z"
       style="display:inline;fill:#e3b08a;fill-opacity:1;stroke:none;stroke-width:0.352553;stroke-linecap:butt;stroke-linejoin:miter;stroke-miterlimit:4;stroke-dasharray:none;stroke-opacity:1"
       id="path94691" />
    <path
       d="m 55.438074,14.638033 c 0.618857,1.29641 2.922088,3.41302 3.417605,3.67593 0.495517,0.26291 2.872974,0.0733 2.872974,0.0733 -0.04495,0.56509 -0.942736,1.9798 -1.429577,1.9564 -0.486842,-0.0234 -1.451941,-0.0339 -1.639414,0.59347 -0.187473,0.62734 -1.434457,0.59905 -1.554482,0.29161 -0.120025,-0.30744 -0.587485,-0.31278 -0.891104,-0.16506 0,0 -0.358096,-5.22935 -0.776002,-6.42565 z"
       style="display:inline;fill:#e5b99b;fill-opacity:1;stroke:none;stroke-width:0.352553;stroke-linecap:butt;stroke-linejoin:miter;stroke-miterlimit:4;stroke-dasharray:none;stroke-opacity:1"
       id="path5102"
       sodipodi:nodetypes="ccscsscc" />
    <path
       style="display:inline;fill:#efb3a4;fill-opacity:1;stroke:none;stroke-width:0.264583px;stroke-linecap:butt;stroke-linejoin:miter;stroke-opacity:1"
       d="m 59.321929,13.934033 c 0,0 0.674701,0.0595 1.035119,-0.0171 0.368084,0.033 0.384712,0.0687 0.572368,0.0168 0.187655,-0.0519 0.961914,0.32994 1.189627,-0.0462 0.227714,-0.37614 -1.10753,-0.52656 -1.10753,-0.52656 l -1.353425,0.0267 -0.664925,0.38799 c 0,0 -0.171601,0.54538 0.328766,0.15834 z"
       id="path43902"
       sodipodi:nodetypes="ccssccccc" />
    <path
       style="display:inline;fill:#efac9b;fill-opacity:1;stroke:none;stroke-width:0.264583px;stroke-linecap:butt;stroke-linejoin:miter;stroke-opacity:1"
       d="m 59.13547,13.788313 c 0,0 0.335687,-0.43391 1.118036,-0.28254 0.782352,0.15137 0.573539,-0.244 1.224975,0.0575 0.651435,0.3015 0.271515,0.14471 0.554607,0.36977 0.08145,0.0648 0.586994,-0.26132 -0.336989,-0.55899 -0.923983,-0.29767 -0.451803,-0.18952 -1.121574,-0.11313 -0.669772,0.0764 -0.449006,-0.31033 -1.295961,0.17933 -0.846952,0.48965 -0.276383,0.49022 -0.276383,0.49022 z"
       id="path33976"
       sodipodi:nodetypes="csssssscc" />
    <path
       style="display:inline;fill:#efb3a4;fill-opacity:1;stroke:none;stroke-width:0.264583px;stroke-linecap:butt;stroke-linejoin:miter;stroke-opacity:1"
       d="m 59.08495,14.598183 c 0,0 -0.239028,-0.56814 0.441665,-0.69228 0.455805,-0.0831 0.758672,0.11146 1.052735,0.0784 0.294063,-0.0331 0.496938,-0.20395 0.864447,0.007 0.627726,0.0199 0.416186,0.54468 0.320013,0.73851 -0.09618,0.19382 -2.393301,0.0477 -2.67886,-0.13146 z"
       id="path37571"
       sodipodi:nodetypes="csccscc" />
    <path
       style="display:inline;fill:#efac9b;fill-opacity:1;stroke:none;stroke-width:0.264583px;stroke-linecap:butt;stroke-linejoin:miter;stroke-opacity:1"
       d="m 59.529683,14.576133 c 0,0 1.514004,0.0926 2.064038,-0.007 0.45323,-0.3087 0.225634,0.30843 -0.280932,0.32776 -0.506566,0.0194 -1.075669,-0.0967 -1.438256,0.0312 -0.362588,0.12789 -0.866959,-0.23153 -0.844277,-0.42751 0.02267,-0.19598 0.300891,0.1023 0.499427,0.0757 z"
       id="path14259"
       sodipodi:nodetypes="cccsscc" />
    <path
       style="display:inline;fill:#f2c3b9;fill-opacity:1;stroke:none;stroke-width:0.264583px;stroke-linecap:butt;stroke-linejoin:miter;stroke-opacity:1"
       d="m 59.382109,13.899363 c 0,0 0.832823,-0.0367 1.208521,-0.0455 0.375695,-0.009 0.616434,-0.0839 0.855988,0.008 0.239556,0.0918 0.442439,-0.10186 -0.440952,-0.15945 -0.883391,-0.0576 -1.086191,-10e-4 -1.310823,0.045 -0.224628,0.0462 -0.297489,0.046 -0.312734,0.15203 z"
       id="path47164" />
    <path
       style="display:inline;fill:#f2c3b9;fill-opacity:1;stroke:none;stroke-width:0.264583px;stroke-linecap:butt;stroke-linejoin:miter;stroke-opacity:1"
       d="m 59.437962,14.226743 c 0,0 0.321641,0.0986 0.641882,0.0361 0.320238,-0.0625 0.742966,-0.015 0.907748,0.008 0.164783,0.0233 0.466908,0.0361 0.480857,-0.0233 0.01394,-0.0594 -0.320101,-0.11302 -0.548212,-0.10129 -0.22811,0.0118 -0.731565,-10e-4 -0.959948,0.0103 -0.22838,0.0117 -0.541427,0.0154 -0.522327,0.0699 z"
       id="path48808" />
    <path
       style="display:inline;fill:#e3b08a;fill-opacity:1;stroke:none;stroke-width:0.264583px;stroke-linecap:butt;stroke-linejoin:miter;stroke-opacity:1"
       d="m 59.682035,11.369503 c 0,0 -0.190447,0.74183 0.04484,0.92003 0.235284,0.1782 0.934495,0.23712 1.147829,0.1447 0.213336,-0.0924 0.678365,-0.0649 0.598241,-0.31223 -0.06474,-0.19989 0.120927,-0.53958 -0.005,-0.82044 -0.06257,-0.13954 -0.123421,-0.98175 -0.123421,-0.98175 0,0 -0.03418,0.52395 -0.03921,1.27002 -0.105947,0.24793 0.03978,0.17154 -0.314593,0.41479 -0.08181,0.0562 -0.198899,0.14262 -0.588737,0.12239 -0.2818,-0.0146 -0.214912,0.0574 -0.502367,-0.15068 -0.287455,-0.20811 -0.152954,-0.13749 -0.217547,-0.60678 z"
       id="path54059"
       sodipodi:nodetypes="cssssccsszcc" />
    <path
       style="display:inline;fill:#e3b08a;fill-opacity:1;stroke:none;stroke-width:0.264583px;stroke-linecap:butt;stroke-linejoin:miter;stroke-opacity:1"
       d="m 61.484402,12.229313 c 0,0 0.342794,0.0716 0.479769,-0.0461 0.136972,-0.1177 0.14551,-0.33571 0.13811,-0.39633 -0.0074,-0.0606 -0.167381,-0.20554 -0.304898,-0.20554 -0.137515,0 0.18009,0.10099 0.05243,0.29433 -0.127654,0.19331 -0.114955,0.0206 -0.33412,0.18841 -0.06454,-0.0408 -0.0313,0.16528 -0.0313,0.16528 z"
       id="path57322"
       sodipodi:nodetypes="cssssccc" />
    <path
       style="display:inline;fill:#e3b08a;fill-opacity:1;stroke:none;stroke-width:0.264583px;stroke-linecap:butt;stroke-linejoin:miter;stroke-opacity:1"
       d="m 59.756045,12.353823 c 0,0 -0.342794,0.0716 -0.479769,-0.0461 -0.136972,-0.1177 -0.14551,-0.33571 -0.13811,-0.39633 0.0074,-0.0606 0.167381,-0.20554 0.304898,-0.20554 0.137515,0 -0.18009,0.10099 -0.05243,0.29433 0.127654,0.19331 0.114955,0.0206 0.33412,0.18841 0.06454,-0.0408 0.0313,0.16528 0.0313,0.16528 z"
       id="path57322-2"
       sodipodi:nodetypes="cssssccc" />
    <path
       style="display:inline;fill:#d39f76;fill-opacity:1;stroke:none;stroke-width:0.264583px;stroke-linecap:butt;stroke-linejoin:miter;stroke-opacity:1"
       d="m 59.322396,12.218243 c 0,0 -0.139939,-0.33693 0.33659,-0.2955 0,0 -0.207981,0.44414 0.646469,0.48108 0.85445,-0.0376 0.820391,-0.12689 1.028571,-0.27638 0.19614,-0.27028 0.07971,-0.13522 0.137477,-0.2914 0.05777,-0.15619 0.404516,-0.0514 0.452876,0.12331 0.04836,0.17463 -0.287432,0.33274 -0.393784,0.26176 -0.106351,-0.071 -0.03261,0.21174 -0.994582,0.33825 -0.770975,-0.0979 -0.866051,-0.19636 -0.866051,-0.19636 0,0 -0.288579,0.0252 -0.347566,-0.14476 z"
       id="path8581"
       sodipodi:nodetypes="ccccsssccc" />
    <path
       style="display:inline;fill:#e5b99b;fill-opacity:1;stroke:none;stroke-width:0.264583px;stroke-linecap:butt;stroke-linejoin:miter;stroke-opacity:1"
       d="m 59.57962,8.9846335 c 0,0 -0.551011,0.5292295 -2.418827,0.0355 0,0 0.498296,0.8920695 0.498296,1.1265695 0,0.2345 0.708331,0.52499 1.145198,0.63137 0.436867,0.10639 0.766863,0.22573 0.825283,0.43153 0.0584,0.2058 0.0451,-1.79352 -0.0499,-2.2249695 z"
       id="path161731-7"
       sodipodi:nodetypes="ccssscc" />
    <path
       style="display:inline;fill:#e3b08a;fill-opacity:1;stroke:none;stroke-width:0.264583px;stroke-linecap:butt;stroke-linejoin:miter;stroke-opacity:1"
       d="m 55.596919,14.960843 c 0,0 0.320579,2.36875 0.303733,2.4926 -0.01685,0.12385 0.111692,0.7703 0.08976,0.87262 -0.02193,0.10232 0.367196,0.0224 0.266232,0.41837 -0.03526,0.13827 0.698246,0.856 0.974635,0.87939 0.276389,0.0234 1.253566,-0.13401 1.547476,-0.33593 0.352901,-0.24246 0.919903,0.001 1.112636,-0.12771 0.192734,-0.12926 1.133277,-0.58189 1.46933,-0.64804 0.336052,-0.0661 0.247925,-0.10634 0.247925,-0.10634 0,0 -2.047751,0.1185 -2.525744,-0.0233 -0.477994,-0.14184 -2.193751,-1.59733 -3.485986,-3.4215 z"
       id="path94847"
       sodipodi:nodetypes="cssssscccccc" />
    <path
       style="display:inline;fill:#e3b08a;fill-opacity:1;stroke:none;stroke-width:0.264583px;stroke-linecap:butt;stroke-linejoin:miter;stroke-opacity:1"
       d="m 56.137828,19.722513 c 0,0 1.572058,3.92332 1.572717,4.10156 5.29e-4,0.17823 -0.310393,-0.0465 -0.310393,-0.0465 0,0 -1.009896,-2.58352 -1.066147,-2.47896 -0.05625,0.10455 0.428297,1.5768 0.395293,1.79713 -0.03301,0.22033 -0.01767,0.61446 -0.553389,0.70358 -0.53572,0.0891 -1.369272,-0.47936 -2.504416,0.25755 -1.135147,0.73691 -0.52646,0.008 -0.52646,0.008 0,0 1.703602,-1.19047 1.848265,-1.41664 0.144664,-0.22618 1.198018,-0.92889 1.14453,-2.92536 z"
       id="path95784"
       sodipodi:nodetypes="cccsssscssc" />
    <path
       style="display:inline;fill:#e5b99b;fill-opacity:1;stroke:none;stroke-width:0.264583px;stroke-linecap:butt;stroke-linejoin:miter;stroke-opacity:1"
       d="m 58.494626,20.944163 c 0,0 1.399976,3.04479 1.512112,3.1238 0.112136,0.079 0.37896,0.39842 0.734989,0.0925 0.356031,-0.30594 2.225172,-3.30067 2.383687,-3.67013 0.158511,-0.36947 -0.463685,0.10628 -0.628844,0.32183 -0.16516,0.21555 -1.921384,3.04084 -2.105706,3.04084 -0.184324,0 -1.542263,-2.86794 -1.565363,-3.16845 -0.0231,-0.30051 -0.330875,0.25963 -0.330875,0.25963 z"
       id="path100853"
       sodipodi:nodetypes="csssssscc" />
    <path
       style="display:inline;fill:#d39f76;fill-opacity:1;stroke:none;stroke-width:0.27566px;stroke-linecap:butt;stroke-linejoin:miter;stroke-opacity:1"
       d="m 55.467505,15.000213 c 0,0 2.944058,3.17383 3.560936,3.35616 0.616874,0.18234 1.455556,0.0959 1.455556,0.0959 0,0 -0.013,0.0551 -0.20133,0.0931 -0.172675,0.0348 -0.514749,0.0509 -0.66234,0.0894 -0.05322,0.0139 -0.660201,-0.10521 -0.740152,-0.13644 -0.07995,-0.0312 -1.267175,-0.97956 -1.352988,-1.06205 -0.08582,-0.0825 -1.984396,-2.13384 -1.984396,-2.13384 z"
       id="path105166"
       sodipodi:nodetypes="cscsssscc" />
    <path
       style="display:inline;fill:#e5b99b;fill-opacity:1;stroke:none;stroke-width:0.253289px;stroke-linecap:butt;stroke-linejoin:miter;stroke-opacity:1"
       d="m 61.375949,25.647453 0.603575,-0.0626 c 0,0 1.057333,-0.0359 1.199954,-0.0414 0.142621,-0.005 0.594008,-0.006 0.630068,0.0551 0.0361,0.062 -0.940131,0.0817 -1.168027,0.0894 -0.227896,0.007 -0.847384,0.12296 -0.955468,0.18406 -0.108085,0.0611 -0.571703,0.3246 -0.571703,0.39428 0,0.0696 -0.280354,0.48922 -0.280354,0.73073 0,0.24151 -0.134946,0.52187 -0.178546,0.41917 -0.04359,-0.1027 0.08378,-1.05201 0.123089,-1.23482 0.03931,-0.18281 0.190308,-0.32138 0.190308,-0.32138 z"
       id="path160610"
       sodipodi:nodetypes="ccsccssssscc" />
    <path
       style="display:inline;fill:#e3b08a;fill-opacity:1;stroke:none;stroke-width:0.264583px;stroke-linecap:butt;stroke-linejoin:miter;stroke-opacity:1"
       d="m 60.971161,25.766963 c 0,0 0.24802,-0.12883 0.558883,-0.19101 0.310861,-0.0622 0.594114,-0.0645 0.645697,0.0101 0.05158,0.0744 -0.131155,0.0643 -0.245542,0.076 -0.114385,0.0117 -0.651911,0.11049 -0.807438,0.20846 -0.164922,0.10389 -0.263489,0.62482 -0.356182,0.57727 -0.08766,-0.045 -0.05449,-0.25952 -0.05449,-0.25952 z"
       id="path159977"
       sodipodi:nodetypes="cscssscc" />
    <path
       style="display:inline;fill:#e5b99b;fill-opacity:1;stroke:none;stroke-width:0.286437px;stroke-linecap:butt;stroke-linejoin:miter;stroke-opacity:1"
       d="m 60.12223,26.562893 c 0,0 0.275351,1.15687 0.247798,1.30243 -0.02757,0.14555 -0.02202,1.04816 -0.0496,1.16493 -0.02757,0.11678 -0.269717,0.36671 -0.269717,0.36671 0,0 0.07256,-0.73581 0.05814,-0.8692 -0.01443,-0.1334 -0.05719,-1.24275 -0.08459,-1.33138 -0.02738,-0.0887 -0.249818,-0.87328 -0.414846,-0.98611 -0.16503,-0.11284 -0.606061,-0.34475 -0.918595,-0.42745 -0.312538,-0.0827 -2.128711,-0.14262 -2.245212,-0.14262 -0.116504,0 0.190679,-0.16836 0.190679,-0.16836 0,0 2.300593,0.18372 2.546752,0.22742 0.246161,0.0437 0.742128,0.28599 0.742128,0.28599 z"
       id="path160398"
       sodipodi:nodetypes="csscssssscscc" />
    <path
       style="display:inline;fill:#e5b99b;fill-opacity:1;stroke:none;stroke-width:0.264583px;stroke-linecap:butt;stroke-linejoin:miter;stroke-opacity:1"
       d="m 52.232022,24.920753 -0.404953,0.19313 0.04608,0.15481 0.857319,0.14944 0.483293,0.0331 c 0,0 -0.415899,-0.13087 -0.465817,-0.21069 -0.04992,-0.0798 -0.191027,-0.27736 -0.145116,-0.32776 0.04591,-0.0504 -0.370806,0.008 -0.370806,0.008 z"
       id="path160900" />
    <path
       style="display:inline;fill:#e3b08a;fill-opacity:1;stroke:none;stroke-width:0.264583px;stroke-linecap:butt;stroke-linejoin:miter;stroke-opacity:1"
       d="m 60.04123,26.020703 c 0,0 -0.13528,-0.25821 -0.281065,-0.28955 -0.468072,-0.10061 -0.968739,-0.0916 -1.018755,-0.067 -0.05158,0.0744 0.178163,0.0724 0.292551,0.0841 0.114385,0.0117 0.75126,0.10981 0.819915,0.21407 0.137728,0.20918 0.125727,0.59464 0.21842,0.54709 0.08766,-0.045 0.04186,-0.24719 0.04186,-0.24719 z"
       id="path159977-3"
       sodipodi:nodetypes="cscssscc" />
    <path
       style="display:inline;fill:#e3b08a;fill-opacity:1;stroke:none;stroke-width:0.264583px;stroke-linecap:butt;stroke-linejoin:miter;stroke-opacity:1"
       d="m 60.307926,27.705233 c 0,0 0.01961,0.97785 -0.01958,1.21007 -0.03919,0.23221 0.0459,0.23375 0.07121,0.0536 0.02529,-0.18018 0.07729,-1.13617 0.0695,-1.25076 -0.0078,-0.1146 -0.123378,-0.11249 -0.121126,-0.0129 z"
       id="path160080" />
    <path
       style="display:inline;fill:#e3b08a;fill-opacity:1;stroke:none;stroke-width:0.264583px;stroke-linecap:butt;stroke-linejoin:miter;stroke-opacity:1"
       d="m 60.691288,28.208143 c 0,0 -0.02027,0.58655 -0.01476,0.67464 0.0055,0.0881 0.184004,-0.0364 0.128569,-0.12384 -0.05544,-0.0874 0.03876,-0.71339 -0.05075,-0.65663 -0.08951,0.0568 -0.06306,0.10583 -0.06306,0.10583 z"
       id="path160220" />
    <path
       style="display:inline;fill:#e3b08a;fill-opacity:1;stroke:none;stroke-width:0.264583px;stroke-linecap:butt;stroke-linejoin:miter;stroke-opacity:1"
       d="m 52.19225,24.978643 c 0,0 -0.46169,0.12977 -0.278022,0.2461 0.183669,0.11633 1.063779,0.17435 1.299845,0.17435 0.236064,0 -0.03605,0.11184 -0.03605,0.11184 0,0 -0.746577,-0.082 -1.040521,-0.11396 -0.293944,-0.0319 -0.454636,-0.17774 -0.367461,-0.24225 0.08717,-0.0645 0.294425,-0.25182 0.378378,-0.21812 0.08395,0.0337 0.04383,0.042 0.04383,0.042 z"
       id="path160614" />
    <path
       style="display:inline;fill:#d39f76;fill-opacity:1;stroke:none;stroke-width:0.264583px;stroke-linecap:butt;stroke-linejoin:miter;stroke-opacity:1"
       d="m 59.785209,8.1353535 c 0,0 -0.01958,2.0619295 -0.08991,2.1379795 -0.07031,0.076 -0.136712,-0.52626 -0.136712,-0.52626 0,0 0.03435,-1.7123695 -0.01396,-1.8799795 -0.04829,-0.16762 -0.763689,-0.28982 -0.996329,-0.3133 -0.232641,-0.0235 0.105073,-0.15048 0.241105,-0.15649 0.505147,-0.0223 0.951563,0.26476 0.951563,0.36761 0,0.10285 0.04423,0.37045 0.04423,0.37045 z"
       id="path161083"
       sodipodi:nodetypes="csczssscc" />
    <path
       style="display:inline;fill:#d39f76;fill-opacity:1;stroke:none;stroke-width:0.264583px;stroke-linecap:butt;stroke-linejoin:miter;stroke-opacity:1"
       d="m 61.299233,7.9618335 c 0,0 -0.02792,1.6122395 0.04241,1.6882895 0.07031,0.076 0.190815,-0.5035795 0.190815,-0.5035795 0,0 -0.0035,-1.15877 0.04485,-1.32638 0.04829,-0.16762 1.709402,-0.17618 1.899509,-0.26652 0.211189,-0.10037 -0.902981,-0.21779 -1.038899,-0.20959 -0.04938,0.003 -1.101532,-0.0652 -1.101532,0.0376 0,0.10285 -0.03715,0.58018 -0.03715,0.58018 z"
       id="path161083-6"
       sodipodi:nodetypes="csczssscc" />
    <path
       style="display:inline;fill:#e5b99b;fill-opacity:1;stroke:none;stroke-width:0.264583px;stroke-linecap:butt;stroke-linejoin:miter;stroke-opacity:1"
       d="m 61.444888,8.8784835 c 0,0 0.957553,0.3533295 2.556608,0.0349 0,0 -0.33959,0.6064495 -0.593903,0.6389995 -0.56351,-0.0282 -1.222234,0.39344 -1.575878,0.57268 -0.368324,0.18668 -0.305351,0.49554 -0.287078,0.73324 0.01709,0.2223 0.08934,0.30626 0.309867,0.60793 -0.07668,-0.0426 -0.175243,-0.13582 -0.428078,-0.18037 -0.204574,0.12908 -0.02208,-0.18248 -0.02208,-0.18248 0,0 -0.115829,-1.60713 -0.05506,-1.83581 0.06077,-0.2286695 0.09561,-0.3891095 0.09561,-0.3891095 z"
       id="path162018"
       sodipodi:nodetypes="cccsscccscc" />
    <path
       style="display:inline;fill:#d39f76;fill-opacity:1;stroke:none;stroke-width:0.314419px;stroke-linecap:butt;stroke-linejoin:miter;stroke-opacity:1"
       d="m 61.727204,8.9891135 c 0,0 1.544979,0.20011 1.965142,0.017 0.42017,-0.18322 -0.500133,-0.0634 -0.500133,-0.0634 0,0 -1.463136,-0.11043 -1.465009,0.0465 z"
       id="path172620" />
    <path
       style="display:inline;fill:#d39f76;fill-opacity:1;stroke:none;stroke-width:0.314419px;stroke-linecap:butt;stroke-linejoin:miter;stroke-opacity:1"
       d="m 59.285136,9.1709935 c 0,0 -1.553781,0.1130795 -1.963,-0.0933 -0.409224,-0.20651 0.5029,-0.0352 0.5029,-0.0352 0,0 1.467026,-0.0281 1.460094,0.12866 z"
       id="path172620-5" />
    <path
       style="display:inline;fill:#7f287f;fill-opacity:1;stroke:none;stroke-width:0.352553;stroke-linecap:butt;stroke-linejoin:miter;stroke-miterlimit:4;stroke-dasharray:none;stroke-opacity:1"
       d="m 32.990041,47.944923 c 0,0 0.661321,1.20702 3.327169,1.42809 2.665847,0.22107 5.221344,-0.67081 6.700703,0.22107 1.479359,0.89188 -0.486266,0.8356 0.822903,2.51397 1.309168,1.67838 0.06008,1.02162 0.257128,2.1147 0.197042,1.09309 -1.206082,-10e-6 -0.611957,1.67288 0.594124,1.6729 -0.3458,-0.13394 -0.446445,1.48258 -0.100644,1.61651 -0.348776,2.45447 -1.468339,3.03915 -1.119565,0.58467 -0.214137,2.8414 0.548455,3.42459 0.762591,0.58319 -1.473768,0.67736 -0.289706,5.00711 1.184061,4.32973 -1.295751,1.41604 -1.322881,6.48736 -0.02714,5.07133 0.941744,7.78526 1.091004,10.56186 0.149259,2.77661 -0.791382,2.31975 2.212626,3.89959 3.004009,1.57987 0.578795,4.23386 0.169268,6.6482 -0.409528,2.41434 -2.330715,2.783328 2.594563,4.849607 0,0 0.347041,0.55588 1.84335,2.43047 1.49631,1.8746 1.261067,2.36332 0.883847,4.69797 -0.377215,2.33468 -3.221302,1.09687 1.143155,6.34601 0,0 -0.968795,0.8099 -0.48212,1.84351 0.486677,1.03362 1.025731,4.31281 2.772777,6.38042 1.747045,2.06761 0.362864,0.57651 0.649113,5.42748 l -0.927694,1.42073 c 0,0 0.836016,2.30524 2.257599,2.29274 5.919144,0.80975 4.152325,4.62435 5.820239,6.42609 0.492576,0.15588 4.422008,0.93606 6.094948,-0.37684 1.67293,-1.31291 1.32043,-4.87364 3.48972,-5.71206 6.16462,-7.79481 5.15248,-1.43322 6.56434,-4.40802 -0.74528,-2.26336 0.13243,-2.59091 2.16428,-4.83063 2.03184,-2.23972 5.22807,-4.54031 5.93259,-6.65629 0.70452,-2.11598 -2.00689,-1.9826 -4.16441,-20.440087 0,0 1.54794,-0.2177 1.63094,-1.92653 v -5e-5 c 0,0 2.57656,-0.80205 2.246,-3.86507 -0.33055,-3.06302 -1.77967,-6.75169 -1.28767,-7.24368 0.44992,-0.44993 -0.31625,-0.71225 -0.0319,-8.63697 0.0266,-0.74107 0.7602,-1.54912 0.44156,-2.43061 0,0 2.21061,-1.31091 4.51889,-1.60387 2.30829,-0.29297 7.4833,-6.24995 9.824067,-8.55176 2.340777,-2.3018 -5.741317,-8.43895 -8.352237,-15.64604 0,0 2.41617,-6.37339 -3.81048,-10.66581 0,0 -1.72234,-1.1943 -1.72234,-3.56107 0,-2.36676 1.38961,-1.8356 1.38961,-1.8356 0,0 2.37264,-1.5161 -1.19802,-2.67061 -3.57067,-1.15452 -5.84451,-4.43587 -8.20229,-4.6455 -2.35778,-0.20963 0.0136,-2.43521 -5.52912,-2.95019 -0.92519,-0.18962 -2.22395,0.50717 -2.47863,0.19649 -0.25469,-0.31069 -1.93109,-0.59193 -1.75589,4.6e-4 0.1752,0.59239 -0.59563,3.44798 -0.59563,3.44798 0,0 -3.504239,3.79277 -5.069865,4.86729 -1.565623,1.07453 -1.593023,2.37922 -1.593023,2.37922 0,0 -0.575667,-1.12099 -1.143042,-1.76855 -0.567375,-0.64755 -5.207681,-0.67209 -7.877709,-1.7832 -2.670028,-1.11112 -0.157593,-1.60291 0.956975,-1.98938 1.114568,-0.38647 4.090912,-2.48031 4.090912,-2.48031 -1.88992,-0.48404 -1.819701,1.14402 -4.520319,1.34023 -2.700618,0.19622 -4.122938,1.75538 -4.122938,1.75538 0,0 -2.807921,0.90486 -3.146819,2.286 -0.267382,1.08968 -2.144561,0.0329 -2.472063,1.85069 -0.327506,1.81789 -7.276852,5.89698 -7.276852,5.89698 0,0 -0.926891,0.94563 -1.508733,2.06791 -0.586854,1.13196 -3.450951,1.31003 -4.692935,2.63191 0,0 4.135743,2.50153 5.526147,3.98632 1.390404,1.48478 1.303643,2.44665 0.137179,3.35569 z"
       id="path16971"
       sodipodi:nodetypes="cscsscscssscscsscsscscccsccsssssscssssssssssssscsscsscccsssscsc" />
    <path
       style="display:inline;fill:#673667;fill-opacity:1;stroke:none;stroke-width:0.264583px;stroke-linecap:butt;stroke-linejoin:miter;stroke-opacity:1"
       d="m 47.577607,27.683673 c 0,0 2.47527,3.30215 2.47527,3.99774 0,0.69559 0.888089,-0.57587 0.888089,-0.57587 0,0 -2.737175,-3.63956 -3.083597,-3.85348 -0.346419,-0.21393 -0.279762,0.43161 -0.279762,0.43161 z"
       id="path24718" />
    <path
       style="display:inline;fill:#673667;fill-opacity:1;stroke:none;stroke-width:0.264583px;stroke-linecap:butt;stroke-linejoin:miter;stroke-opacity:1"
       d="m 46.678426,31.626583 c 0,0 0.13449,3.24937 0.01238,3.53852 -0.122105,0.28914 -0.184576,1.71131 -0.184576,1.71131 l 0.369425,5.18889 0.29519,1.0903 1.663607,-0.12944 c 0,0 -0.662053,-2.63888 0.173959,-2.12529 0.836014,0.5136 1.628246,-0.0104 1.792589,-0.86729 0.16434,-0.85689 -1.397352,-3.38059 -1.961896,-4.10921 -0.564547,-0.72862 -1.907244,-3.17107 -2.160683,-4.29779 z"
       id="path31214" />
    <path
       style="display:inline;fill:#673667;fill-opacity:1;stroke:none;stroke-width:0.264583px;stroke-linecap:butt;stroke-linejoin:miter;stroke-opacity:1"
       d="m 65.018256,26.424283 c 0,0 -1.855802,5.88139 -2.325009,7.8196 -0.469204,1.93821 -2.312175,3.50839 -2.312175,3.50839 l 0.393293,-2.32864 1.211995,-2.97924 1.011589,-2.88673 z"
       id="path35917" />
    <path
       style="display:inline;fill:#673667;fill-opacity:1;stroke:none;stroke-width:0.264583px;stroke-linecap:butt;stroke-linejoin:miter;stroke-opacity:1"
       d="m 74.551056,22.368693 c 0,0 -2.9769,3.48814 -4.45611,6.19949 -1.47922,2.71134 -4.28389,5.81245 -4.53141,6.06404 -0.24754,0.25159 -0.43892,0.0196 -0.43892,0.0196 0,0 4.80604,-6.04266 5.62829,-7.89133 0.82225,-1.84867 1.68797,-3.80827 2.43466,-4.23371 0.74667,-0.42542 1.36349,-0.15803 1.36349,-0.15803 z"
       id="path43095" />
    <path
       style="display:inline;fill:#673667;fill-opacity:1;stroke:none;stroke-width:0.264583px;stroke-linecap:butt;stroke-linejoin:miter;stroke-opacity:1"
       d="m 76.724256,38.289863 c 0,0 2.43384,-1.86983 3.15482,-2.69941 0.72097,-0.82958 2.13434,-1.99813 2.67226,-2.33491 0.53792,-0.33679 0.31571,-1.46451 1.31156,-1.77328 0,0 0.50719,3.2301 1.18874,3.27232 0.68154,0.0422 -1.23255,-0.0555 -1.89182,0.0772 -0.65927,0.13268 -3.04036,1.76835 -3.85693,2.14969 -0.81658,0.38134 -2.57863,1.30842 -2.57863,1.30842 z"
       id="path45719" />
    <path
       style="display:inline;fill:#673667;fill-opacity:1;stroke:none;stroke-width:0.264583px;stroke-linecap:butt;stroke-linejoin:miter;stroke-opacity:1"
       d="m 86.834266,37.519363 c 0,0 2.62712,2.09427 1.94551,4.65084 0,0 -1.44547,-3.07469 -2.36234,-3.07469 -0.91686,0 -3.00637,-1.01207 -3.00637,-1.01207 0,0 1.75281,-0.77483 2.29409,-0.74176 0.54129,0.0331 1.12911,0.17768 1.12911,0.17768 z"
       id="path51724" />
    <path
       style="display:inline;fill:#673667;fill-opacity:1;stroke:none;stroke-width:0.264583px;stroke-linecap:butt;stroke-linejoin:miter;stroke-opacity:1"
       d="m 84.409156,40.175493 c 0,0 2.87668,1.84129 3.85925,3.49585 0.98258,1.65456 0.30087,-0.86377 -1.43739,-2.5277 -1.73827,-1.66393 -2.42186,-0.96815 -2.42186,-0.96815 z"
       id="path55245" />
    <path
       style="display:inline;fill:#673667;fill-opacity:1;stroke:none;stroke-width:0.264583px;stroke-linecap:butt;stroke-linejoin:miter;stroke-opacity:1"
       d="m 79.815786,42.392843 c 0,0 3.44629,1.16726 6.12175,5.18452 2.67546,4.01726 5.24146,7.94322 6.47925,8.61624 1.2378,0.67301 5.680017,4.02537 4.818597,6.51041 l -4.603257,4.57714 -2.48728,2.19686 -1.1069,0.65048 c 0,0 -1.61892,0.51804 -1.98243,0.5532 -0.36352,0.0352 -3.34669,1.25521 -3.34669,1.25521 0,0 -0.19511,-1.69188 0.36323,-2.93474 0.55834,-1.24287 2.78301,-4.49683 2.95105,-5.05851 0.16804,-0.56167 -0.38884,-7.44867 -0.38884,-7.44867 l 0.19886,-4.13695 -1.32386,-2.4725 -1.11464,-2.57827 -2.43401,-2.73117 c 0,0 -1.89118,-2.27498 -2.14483,-2.18325 z"
       id="path57938" />
    <path
       style="display:inline;fill:#673667;fill-opacity:1;stroke:none;stroke-width:0.264583px;stroke-linecap:butt;stroke-linejoin:miter;stroke-opacity:1"
       d="m 77.971046,49.515983 c 0,0 4.84499,9.02321 5.10483,12.20124 0.25984,3.17803 -1.34253,1.40109 -1.34253,1.40109 0,0 -1.74101,-2.6922 -3.78771,-3.32397 -2.0467,-0.63177 0.0254,-10.27836 0.0254,-10.27836 z"
       id="path59113" />
    <path
       style="display:inline;fill:#673667;fill-opacity:1;stroke:none;stroke-width:0.264583px;stroke-linecap:butt;stroke-linejoin:miter;stroke-opacity:1"
       d="m 64.315586,114.24559 c 0,0 2.61466,-4.42067 3.46275,-5.28208 0.84808,-0.86141 1.46551,-2.75817 2.90612,-3.50926 1.44061,-0.75109 3.09473,-3.05537 3.09473,-3.05537 l 0.88683,0.76345 c 0,0 -3.97633,3.03499 -4.16682,3.4386 -0.1905,0.40361 -2.56858,3.57363 -2.56858,3.57363 0,0 -1.2455,1.7935 -1.19933,2.26845 0.0462,0.47496 1.33045,2.48345 1.85208,2.62176 0.52162,0.1383 1.3621,2.04065 1.26819,3.85383 -0.0939,1.81318 -0.0931,2.7485 -0.26532,2.48272 -0.17223,-0.26577 -4.21051,-5.44984 -4.53377,-6.03251 -0.32326,-0.58267 -0.73688,-1.12322 -0.73688,-1.12322 z"
       id="path72136" />
    <path
       style="display:inline;fill:#673667;fill-opacity:1;stroke:none;stroke-width:0.264583px;stroke-linecap:butt;stroke-linejoin:miter;stroke-opacity:1"
       d="m 43.208656,98.284043 c 0,0 -0.0052,2.434157 3.177918,2.702727 3.183099,0.26857 3.392271,-0.45801 3.392271,-0.45801 0,0 -2.81033,0.12883 -1.1406,-0.595059 1.66973,-0.72388 3.292845,-1.948888 3.840165,-2.317108 0.547322,-0.36823 1.673934,1.02211 1.628153,1.50332 -0.04578,0.481208 2.506742,-4.59103 2.764859,-4.93777 0.258117,-0.34675 2.208853,-3.0152 3.117371,-3.50793 0.908521,-0.49274 -0.75987,-0.24535 -1.165254,0.30296 -0.405387,0.54831 -2.015138,2.67754 -2.232941,2.74463 -0.217802,0.0671 1.600002,-2.71726 1.890231,-3.06914 0.290227,-0.35189 0.262467,-1.61141 0.77329,-1.95847 0.510823,-0.34706 -1.525931,-0.4262 -1.870922,-0.3098 -0.34499,0.11639 -1.511998,0.89703 -2.139222,0.63127 -0.627226,-0.26575 -4.523912,5.30156 -5.217909,5.82204 -0.693999,0.52048 -3.667154,3.85152 -4.119313,3.80904 -0.45216,-0.0425 -2.58567,0.956488 -2.698097,-0.3627 z"
       id="path76071" />
    <path
       style="display:inline;fill:#673667;fill-opacity:1;stroke:none;stroke-width:0.264583px;stroke-linecap:butt;stroke-linejoin:miter;stroke-opacity:1"
       d="m 45.449907,91.609243 c 0,0 -0.803124,-1.43016 -1.152549,-1.56046 -0.349427,-0.13029 -2.806094,-0.9235 -2.745909,-2.5668 0.06019,-1.64329 0.02511,-2.91441 -0.147122,-3.8577 -0.172227,-0.94329 -1.056229,-6.59055 -0.925525,-7.45644 0.130707,-0.86589 -0.202383,-2.65299 0.805656,-3.33454 1.008039,-0.68155 1.372664,-0.89532 2.389182,-2.38377 1.016521,-1.48845 2.366219,-1.98206 3.817951,-2.03493 1.451734,-0.0529 -5.628426,8.36886 0.856959,8.87107 0,0 -0.592355,1.82944 0.350619,1.23307 0.942974,-0.59637 1.173558,-0.91612 2.625136,0.60368 0,0 -3.792413,2.70577 -4.26337,2.79951 -0.470956,0.0937 -0.250709,2.83446 0.924276,3.46664 1.174985,0.63218 -1.627739,4.00259 -1.627739,4.00259 0,0 2.12579,0.40389 1.37605,1.22048 -0.749739,0.81658 -2.283615,0.9976 -2.283615,0.9976 z"
       id="path95395" />
    <path
       style="fill:#673667;fill-opacity:1;stroke:none;stroke-width:0.264583px;stroke-linecap:butt;stroke-linejoin:miter;stroke-opacity:1"
       d="m 47.012094,102.47615 c 0,0 0.867734,0.56455 1.348918,1.27787 0.623666,0.92454 1.165916,1.00927 1.149561,2.635 -0.02375,2.36096 -1.537587,3.28941 -1.466866,4.5969 0.09287,1.71697 1.889889,2.72252 1.889889,3.40292 0,0.6804 -0.401843,0.2048 -0.189205,1.27973 0.315843,1.59665 0.712769,2.93901 0.886928,3.51354 0.174157,0.57453 1.179289,2.91272 1.580407,3.58563 0.194139,0.32569 0.763063,1.60339 0.763063,2.51704 0,0.91365 0.526303,1.90645 0.220045,3.1112 -0.351694,1.38348 -1.298942,0.61481 -0.514562,2.29115 0.40774,0.8714 0.736786,1.19673 1.486112,1.56665 0.621297,0.30671 0.709834,-0.17535 1.942996,0.1112 2.68958,0.62499 3.202312,2.853 3.202312,2.853 0,0 1.204267,-3.17171 1.368277,-2.507 0.164013,0.66471 -0.543187,-6.2085 -0.543187,-6.2085 0,0 0.105431,-4.25116 0.219832,-4.83163 0.114398,-0.58047 -0.868193,0.0416 -0.868193,0.0416 l 0.27959,3.59607 -1.57676,-0.1816 c 0,0 -2.762732,-0.0163 -2.762732,-0.96218 0,-0.94593 0.02601,-7.52264 1.192729,-8.55631 1.166706,-1.03367 -1.347992,0.31563 -1.347992,0.31563 0,0 -1.094933,2.4564 -1.154588,1.75556 -0.05966,-0.70085 0.08583,-3.08415 0.248332,-3.5662 0.162502,-0.48205 2.31085,-9.48198 1.75372,-9.07864 -0.557128,0.40334 1.551053,-5.037769 1.551053,-5.037769 0,0 -0.0044,-0.79534 -0.0044,-2.311208 0,-1.51586 -0.781183,2.040478 -0.781183,2.040478 0,0 -2.410968,7.967929 -3.19052,8.505419 -0.77955,0.53748 -2.806057,1.99304 -2.493208,1.30317 0.312848,-0.68986 0.78773,-1.75505 1.49008,-2.74988 0.702352,-0.99483 4.574556,-9.794087 5.056783,-11.891257 0.482224,-2.09716 -0.565555,0.46399 -0.565555,0.46399 0,0 -3.558186,8.284117 -4.086222,8.896727 -0.528035,0.61262 -2.516759,2.93604 -2.516759,2.93604 0,0 1.570979,-2.92529 1.592119,-3.61987 0.02114,-0.69458 1.673627,-4.173209 1.673627,-4.173209 l -1.536062,0.2985 c 0,0 -2.458482,2.229129 -3.669988,2.429709 -1.211506,0.20057 -2.431722,-1.4684 -2.431722,-1.4684 0,0 0.0936,1.42561 0.803344,1.81896 z"
       id="path112490"
       sodipodi:nodetypes="csssssssssssscscscccsscssscscsssscscsccsccc" />
    <path
       style="fill:#673667;fill-opacity:1;stroke:none;stroke-width:0.264583px;stroke-linecap:butt;stroke-linejoin:miter;stroke-opacity:1"
       d="m 68.063606,126.48927 c 0,0 1.22483,-1.50468 2.22029,-2.28575 0.85089,-0.66764 0.96408,-0.81308 0.96408,-0.81308 l 0.58156,-0.83328 c 0,0 -3.19722,2.33006 -3.88534,3.06746 -0.68813,0.7374 -1.43608,2.06245 -1.77573,2.29027 -0.33965,0.22783 -1.43822,1.45267 -1.80384,1.51528 -0.36562,0.0626 0.35717,0.20748 0.43044,0.16694 0.0733,-0.0406 1.34772,-0.82053 1.87168,-1.06207 0.52397,-0.24153 2.41916,-1.24381 2.86657,-1.42184 0.44741,-0.17802 1.68289,-0.88703 1.68289,-0.88703 0,0 -0.45835,-0.16059 -0.76287,-0.13748 -0.30452,0.0231 -2.06142,0.57774 -2.38973,0.40058 z"
       id="path117759"
       sodipodi:nodetypes="csccsssssscsc" />
    <path
       style="fill:#673667;fill-opacity:1;stroke:none;stroke-width:0.264583px;stroke-linecap:butt;stroke-linejoin:miter;stroke-opacity:1"
       d="m 72.889526,120.41698 c 0.1914,-0.2871 3.26008,-4.48988 3.32681,-5.58991 0.0667,-1.10003 0.34069,-3.88744 0.0637,-4.77587 -0.27694,-0.88842 -0.28099,-0.14943 -0.42017,0.45986 -0.13918,0.60928 0.0322,4.47379 -0.28995,4.96368 -0.32217,0.48988 -0.56461,-0.24499 -0.52321,-0.44621 0.0414,-0.20121 -1.49292,3.5831 -2.07546,4.1641 -0.58253,0.581 -3.49045,4.30878 -4.50718,4.52868 -1.01672,0.21991 -1.11027,0.69469 -1.11027,0.69469 0,0 1.99092,-0.23768 2.96915,-1.3702 0.97824,-1.13252 1.94923,-1.91536 2.56653,-2.62882 z"
       id="path120386" />
    <path
       style="fill:#673667;fill-opacity:1;stroke:none;stroke-width:0.264583px;stroke-linecap:butt;stroke-linejoin:miter;stroke-opacity:1"
       d="m 73.703126,121.65147 c 0.4235,-0.29525 3.1635,-2.58568 3.26194,-2.80705 0.0984,-0.22137 -0.23555,3.27923 -0.0291,3.63791 0.20645,0.35868 1.20449,-1.80023 2.16369,-2.16384 0.9592,-0.36361 0.64519,-0.0602 0.64519,-0.0602 0,0 -1.15935,0.69681 -1.34743,1.10061 -0.18808,0.40381 -1.10186,1.61631 -1.14344,2.16865 -0.0416,0.55234 -0.98441,1.15028 -1.09625,1.66065 -0.11183,0.51037 -0.58836,0.15806 -0.64352,-0.52192 -0.0552,-0.67998 -0.0684,-2.67476 -0.17298,-2.99774 -0.10456,-0.32299 -1.22683,1.11641 -1.58266,1.10153 -0.35582,-0.0149 -1.82148,-0.18057 -1.54093,-0.31018 0.28055,-0.12962 1.07247,-0.4569 1.48549,-0.80845 z"
       id="path126255" />
    <path
       style="fill:#673667;fill-opacity:1;stroke:none;stroke-width:0.264583px;stroke-linecap:butt;stroke-linejoin:miter;stroke-opacity:1"
       d="m 36.969411,45.560983 c 0,0 1.383638,-0.41242 1.827535,-0.69166 0.443899,-0.27924 0.933786,2.28555 2.170009,1.99429 1.236224,-0.29125 0.07703,-0.20589 -0.280019,-0.5646 -0.357052,-0.35871 -1.214853,-1.85149 -0.752819,-2.03588 0.462032,-0.18439 1.525358,0.40464 1.69382,0.89537 0.168466,0.49074 1.580396,2.00272 2.605011,1.35811 1.024615,-0.64461 -0.07461,-0.23599 -0.451178,-0.39677 -0.376568,-0.16077 -1.048298,-0.5277 -1.215596,-1.87375 -0.167302,-1.34605 -1.473092,-3.19389 -1.473092,-3.19389 0,0 -0.707832,0.4772 -1.312031,0.0618 -0.604198,-0.41543 -0.257273,1.05909 -1.168662,1.38481 -0.911389,0.32571 -2.577283,0.78774 -2.976491,0.78774 -0.399212,0 0.311655,2.29732 1.333513,2.27446 z"
       id="path129181" />
    <path
       style="fill:#673667;fill-opacity:1;stroke:none;stroke-width:0.264583px;stroke-linecap:butt;stroke-linejoin:miter;stroke-opacity:1"
       d="m 45.260569,66.275883 c 0,0 0.636129,-1.10061 1.876239,-0.50226 1.24011,0.59836 0.653217,-5.57952 0.653217,-5.57952 l -0.461089,-0.97 c 0,0 -1.871568,1.6324 -2.862678,1.6324 -0.991111,0 -3.276706,0.54344 -3.276706,0.54344 0,0 -0.239551,1.06397 0.606605,2.34771 0.846156,1.28375 -0.173644,2.20379 -0.266973,2.70856 -0.09333,0.50477 0.244388,2.56435 0.443172,2.61112 0.198787,0.0468 0.428265,1.66854 0.428265,1.66854 0,0 -0.137141,-0.49496 1.352868,-0.25308 1.490009,0.24187 3.774921,-1.9611 3.774921,-1.9611 0,0 -0.465166,-0.26014 -1.38962,-0.26664 -0.924457,-0.006 -0.878221,-1.97917 -0.878221,-1.97917 z"
       id="path139903" />
    <path
       style="fill:#673667;fill-opacity:1;stroke:none;stroke-width:0.264583px;stroke-linecap:butt;stroke-linejoin:miter;stroke-opacity:1"
       d="m 62.597659,107.98336 c 0,0 3.024497,-4.50502 4.530987,-5.48239 1.50649,-0.97737 1.07699,-2.07621 2.556,-3.255019 1.47902,-1.178798 3.48564,-3.425328 4.2256,-3.827438 0.73997,-0.40212 0.45571,-0.62239 -0.3651,-0.35196 -0.8208,0.27043 -2.34431,2.24671 -2.7732,2.55203 -0.42889,0.30533 -2.87205,2.854477 -2.91882,3.185777 -0.0468,0.3313 -1.16259,1.70937 -1.735,2.12457 -0.57241,0.4152 -3.387099,3.91317 -3.433282,4.15455 -0.04618,0.24137 -0.08719,0.89988 -0.08719,0.89988 z"
       id="path144398" />
    <path
       style="fill:#673667;fill-opacity:1;stroke:none;stroke-width:0.264583px;stroke-linecap:butt;stroke-linejoin:miter;stroke-opacity:1"
       d="m 58.860364,113.76613 c 0,0 1.682458,-2.69787 1.682458,-3.29124 0,-0.59338 0.253363,-1.25608 0.294675,-1.84296 0.04131,-0.58688 0.423413,1.06969 0.557652,0.63758 0.134239,-0.43212 0.440158,-1.48072 0.579882,-0.6218 0.139721,0.85892 0.486174,2.99595 0.758549,3.01273 0.272378,0.0168 -1.328906,2.68019 -1.645621,3.44514 -0.316714,0.76495 0.0361,1.84564 -0.457366,2.03156 -0.493469,0.18592 -1.299163,-0.37242 -1.299163,0.047 0,0.41941 -0.735306,2.16131 -0.04677,2.16131 0.688536,0 1.632386,0.39869 1.845828,0.41693 0.213445,0.0182 -0.937569,1.72883 -1.057372,2.06276 -0.119806,0.33392 -0.967939,-0.13131 -1.463117,-0.20559 -0.495178,-0.0743 -0.19317,-2.36905 -0.19317,-2.36905 l 0.609187,-2.93977 0.07724,-1.5797 z"
       id="path146746" />
    <path
       style="fill:#673667;fill-opacity:1;stroke:none;stroke-width:0.264583px;stroke-linecap:butt;stroke-linejoin:miter;stroke-opacity:1"
       d="m 45.494495,93.538533 c 1.597594,-0.55698 4.349969,-3.253 5.05991,-5.32367 0.709943,-2.07067 1.138745,1.26315 1.175591,1.42075 0.03685,0.15761 1.414399,-0.11167 1.51525,-0.66052 0.100849,-0.54885 -2.831478,5.54806 -4.378351,5.90802 -1.546873,0.35995 -1.775256,2.00789 -1.991035,2.00789 -0.21578,0 -1.865751,-1.5642 -1.865751,-1.5642 z"
       id="path155799" />
    <path
       style="display:inline;fill:#3d1e3d;fill-opacity:1;stroke:none;stroke-width:0.264583px;stroke-linecap:butt;stroke-linejoin:miter;stroke-opacity:1"
       d="m 78.526656,50.000483 -2.02192,-2.02253 -5.71687,-2.9943 -1.73432,2.30078 1.62713,1.45361 c 0,0 1.30491,-0.57854 2.57164,3.70968 1.26673,4.28821 4.56089,7.64307 3.8608,9.8436 -0.70008,2.20053 0.60395,6.04392 1.83834,9.92967 0,0 -1.91025,-17.8695 -0.4248,-22.22051 z"
       id="path120543"
       sodipodi:nodetypes="cccccsscc" />
    <path
       style="display:inline;fill:#3d1e3d;fill-opacity:1;stroke:none;stroke-width:0.264583px;stroke-linecap:butt;stroke-linejoin:miter;stroke-opacity:1"
       d="m 92.917846,60.078183 c 0,0 -4.39281,-5.57157 -6.95367,-9.76848 0,0 0.21958,8.33952 -0.67331,11.47039 -0.89286,3.13087 -1.78176,5.81498 -1.39365,7.73133 0,0 2.438,-4.71834 4.83802,-5.16205 2.40002,-0.44371 -3.98079,-6.01277 -0.58607,-6.72248 0,0 0.94266,-0.42122 4.76868,2.45129 z"
       id="path122045"
       sodipodi:nodetypes="ccscscc" />
    <path
       style="display:inline;fill:#3d1e3d;fill-opacity:1;stroke:none;stroke-width:0.264583px;stroke-linecap:butt;stroke-linejoin:miter;stroke-opacity:1"
       d="m 69.758056,70.452743 c 0,0 -1.47895,4.27207 1.50614,9.34929 2.98508,5.07722 2.74797,6.98319 2.74797,7.85018 0,0.86699 0.39778,4.55117 4.38018,3.52402 3.98241,-1.02714 3.34617,-0.43099 3.34617,-0.43099 0,0 0.64909,-2.44205 -1.24407,-5.93084 -1.89316,-3.4888 -2.42484,-2.36745 -4.36424,-8.0637 -1.93941,-5.69625 -5.71771,-8.88261 -6.94763,-15.41235 z"
       id="path124847"
       sodipodi:nodetypes="cssscsscc" />
    <path
       style="display:inline;fill:#3d1e3d;fill-opacity:1;stroke:none;stroke-width:0.264583px;stroke-linecap:butt;stroke-linejoin:miter;stroke-opacity:1"
       d="m 77.735636,99.299581 c -0.14023,1.964049 1.55673,5.671889 0.16235,6.576549 -1.92224,1.24714 -2.07076,3.15263 -2.71108,-0.59744 -0.35938,-2.10471 -2.15934,-2.34924 -2.15934,-2.34924 0.9798,-2.04148 4.70807,-3.629869 4.70807,-3.629869 z"
       id="path132144"
       sodipodi:nodetypes="csscc" />
    <path
       style="display:inline;fill:#3d1e3d;fill-opacity:1;stroke:none;stroke-width:0.264583px;stroke-linecap:butt;stroke-linejoin:miter;stroke-opacity:1"
       d="m 43.426842,70.750983 c 0,0 -0.915817,1.58882 -1.994445,2.52878 -0.451091,1.40743 -0.231789,5.46255 -0.231789,5.46255 0.919792,5.32143 1.184877,7.47642 0.929492,8.93145 -0.214672,1.22303 2.865818,-0.0966 2.865818,-0.0966 0.749544,-4.2449 -0.889784,-6.08622 -1.269658,-9.58453 -0.379874,-3.49831 -0.299418,-7.24165 -0.299418,-7.24165 z"
       id="path1915"
       sodipodi:nodetypes="ccsczzc" />
    <path
       style="display:inline;fill:#3d1e3d;fill-opacity:1;stroke:none;stroke-width:0.264583px;stroke-linecap:butt;stroke-linejoin:miter;stroke-opacity:1"
       d="m 49.793442,100.60901 c -1.520671,2.80138 -3.858171,-0.0662 -3.858171,-0.0662 0,0 1.644863,0.71908 3.858171,0.0662 z"
       id="path5129"
       sodipodi:nodetypes="ccc" />
    <path
       style="display:inline;fill:#3d1e3d;fill-opacity:1;stroke:none;stroke-width:0.264583px;stroke-linecap:butt;stroke-linejoin:miter;stroke-opacity:1"
       d="m 56.448874,95.490893 c 1.221796,-3.64612 -0.803597,2.43801 -5.508342,5.769237 0,0 0.686657,0.89512 0.355737,4.21541 0,0 3.93081,-6.338527 5.152605,-9.984647 z"
       id="path8630"
       sodipodi:nodetypes="sccs" />
    <path
       style="display:inline;fill:#3d1e3d;fill-opacity:1;stroke:none;stroke-width:0.264583px;stroke-linecap:butt;stroke-linejoin:miter;stroke-opacity:1"
       d="m 60.018376,93.074883 c 0,0 -4.690658,17.717907 -5.640038,23.233557 -0.949383,5.51565 -0.806413,-1.3619 0.04991,-7.11936 0.856319,-5.75745 5.590133,-16.114197 5.590133,-16.114197 z"
       id="path10093" />
    <path
       style="display:inline;fill:#3d1e3d;fill-opacity:1;stroke:none;stroke-width:0.264583px;stroke-linecap:butt;stroke-linejoin:miter;stroke-opacity:1"
       d="m 69.253576,123.56998 c 0,0 -2.17611,0.50932 -1.27375,-1.36107 0.90236,-1.8704 1.50979,0.065 1.50979,0.065 0,0 1.03397,-0.83154 -0.81197,-2.82244 -1.84594,-1.99091 -2.8468,-4.37022 -3.89398,-5.91836 0,0 -3.154043,3.55893 -3.346531,5.49487 -0.09102,0.91543 0.07077,3.19984 0.593908,4.03932 0.523142,0.83949 0.141875,-3.32344 0.32386,-4.4929 0.181986,-1.16946 1.605363,-1.79007 1.570493,1.05915 -0.0349,2.84922 -0.034,7.36083 1.69042,7.78426 0,0 1.59811,-2.13398 3.63776,-3.84783 z"
       id="path10276"
       sodipodi:nodetypes="cscscsssscc" />
    <path
       style="display:inline;fill:#3d1e3d;fill-opacity:1;stroke:none;stroke-width:0.264583px;stroke-linecap:butt;stroke-linejoin:miter;stroke-opacity:1"
       d="m 49.893592,94.310533 c 0,0 -4.816163,5.043648 -5.907918,3.82755 -1.091758,-1.2161 1.094865,-6.81145 1.094865,-6.81145 0,0 0.412665,-1.12812 2.128755,-1.25147 1.71609,-0.12334 0.440727,1.27683 -0.194117,1.31142 -0.634847,0.0346 -2.015966,0.59931 -0.747223,3.94689 1.268746,3.34758 -0.665078,-2.20294 2.368211,-1.34621 z"
       id="path11404"
       sodipodi:nodetypes="cscssscc" />
    <path
       style="display:inline;fill:#3d1e3d;fill-opacity:1;stroke:none;stroke-width:0.264583px;stroke-linecap:butt;stroke-linejoin:miter;stroke-opacity:1"
       d="m 45.768386,66.384713 c 0.378561,-2.53436 0.08641,-1.9663 0.08641,-1.9663 l -2.400067,1.266 c 0,0 -0.850513,-0.53317 1.322753,-2.02705 0,0 -1.339437,1.12602 -2.64478,-0.0419 -1.305343,-1.1679 0.169764,0.73485 -0.113999,1.3646 -0.283765,0.62974 -0.85158,0.7883 -0.113734,2.49673 0.737847,1.70843 -0.356174,-0.89854 -0.746627,3.40855 0,0 4.231481,-1.96627 4.610044,-4.50063 z"
       id="path15598"
       sodipodi:nodetypes="scccssscs" />
    <path
       style="display:inline;fill:#3d1e3d;fill-opacity:1;stroke:none;stroke-width:0.264583px;stroke-linecap:butt;stroke-linejoin:miter;stroke-opacity:1"
       d="m 42.252804,61.780643 c 0,0 5.050896,-0.82343 5.315733,-2.1914 0.264837,-1.36797 -2.456442,0.54114 -2.456442,0.54114 0,0 -3.311379,0.17828 0.405474,-1.05696 3.716851,-1.23524 -0.0016,-0.58224 -0.887963,-1.48363 -0.886396,-0.90138 1.674239,-0.25467 2.028521,-0.79262 0.354282,-0.53796 0.628539,1.76776 2.949744,2.66739 2.321206,0.89964 -1.243965,4.12174 -2.450835,3.73469 -1.206871,-0.38704 -2.268506,1.51079 -4.904232,-1.41861 z"
       id="path16110" />
    <path
       style="display:inline;fill:#3d1e3d;fill-opacity:1;stroke:none;stroke-width:0.264583px;stroke-linecap:butt;stroke-linejoin:miter;stroke-opacity:1"
       d="m 43.67758,29.853313 c 0,0 1.995747,11.02213 1.662176,13.19056 -0.333571,2.16844 0.229706,2.62062 0.229706,2.62062 0,0 1.97123,-5.22022 -1.891882,-15.81118 z"
       id="path16324" />
    <path
       style="display:inline;fill:#3d1e3d;fill-opacity:1;stroke:none;stroke-width:0.264583px;stroke-linecap:butt;stroke-linejoin:miter;stroke-opacity:1"
       d="m 45.387963,29.868083 c 0,0 2.868824,14.64176 2.156677,15.26347 -0.712147,0.62171 -1.393299,-8.29083 -1.393299,-8.29083 0,0 -0.812339,-5.24889 -0.763378,-6.97264 z"
       id="path16507" />
    <path
       style="display:inline;fill:#3d1e3d;fill-opacity:1;stroke:none;stroke-width:0.264583px;stroke-linecap:butt;stroke-linejoin:miter;stroke-opacity:1"
       d="m 85.964176,50.309703 -0.0272,2.23606 c 0,0 -1.03377,-5.0697 -3.15604,-6.56404 0,0 1.71036,7.13095 0.58372,13.05566 0,0 -0.17288,-0.59523 -0.95532,-1.75044 -0.78241,-1.15521 0.6521,-9.34465 -0.62637,-11.83878 -1.27847,-2.49413 -3.46132,-3.62489 -4.81292,-4.1304 -1.3516,-0.5055 5.97464,0.58722 8.99413,8.99194"
       id="path16690"
       sodipodi:nodetypes="ccccsssc" />
    <path
       style="display:inline;fill:#3d1e3d;fill-opacity:1;stroke:none;stroke-width:0.264583px;stroke-linecap:butt;stroke-linejoin:miter;stroke-opacity:1"
       d="m 75.465186,39.858313 c 0,0 1.59723,-2.25737 2.87772,-2.96811 1.28048,-0.71074 2.14029,0.023 2.14029,0.023 0,0 -1.99627,-0.0638 -2.83987,1.34936 -0.8436,1.41312 -0.77679,0.35587 -0.74835,0.70199 0.0284,0.34611 3.52725,-0.44809 4.70699,-1.15344 1.17975,-0.70534 4.56064,-1.43691 5.37937,-0.34306 0.81873,1.09385 -1.01906,-0.21237 -2.35136,0.55459 -1.33229,0.76697 1.25203,-0.69602 3.2016,1.84842 1.94957,2.54444 1.14614,3.50416 1.14614,3.50416 0,0 -1.90073,-5.33257 -6.68865,-4.78999 -4.78792,0.54257 -6.82388,1.27311 -6.82388,1.27311 z"
       id="path16948" />
    <path
       style="display:inline;fill:#3d1e3d;fill-opacity:1;stroke:none;stroke-width:0.264583px;stroke-linecap:butt;stroke-linejoin:miter;stroke-opacity:1"
       d="m 44.159667,54.117803 c 0,0 0.345765,1.64473 1.773555,1.32442 1.427786,-0.32032 -1.575639,-0.78096 -1.773555,-1.32442 z"
       id="path17194" />
    <path
       style="display:inline;fill:#3d1e3d;fill-opacity:1;stroke:none;stroke-width:0.264583px;stroke-linecap:butt;stroke-linejoin:miter;stroke-opacity:1"
       d="m 44.077625,52.454373 c 0,0 1.657312,1.52966 1.979297,1.48789 0.321985,-0.0418 0.429665,-0.98298 -0.565187,-1.54091 -0.994852,-0.55793 -1.496152,-1.6104 -1.41411,0.053 z"
       id="path18648" />
    <path
       style="display:inline;fill:#3d1e3d;fill-opacity:1;stroke:none;stroke-width:0.264583px;stroke-linecap:butt;stroke-linejoin:miter;stroke-opacity:1"
       d="m 72.061736,23.767643 c 0,0 1.04758,-1.59785 2.48966,-1.17715 1.44208,0.4207 1.42459,-0.88956 -0.11245,-1.01659 -1.53703,-0.12704 -2.51542,1.86361 -2.51542,1.86361 0,0 -0.15017,0.18144 0.13821,0.33013 z"
       id="path18946" />
    <path
       style="display:inline;fill:#3d1e3d;fill-opacity:1;stroke:none;stroke-width:0.264583px;stroke-linecap:butt;stroke-linejoin:miter;stroke-opacity:1"
       d="m 65.821636,33.713173 c 0.51761,-0.41409 3.51085,-3.34199 4.54675,-6.00461 1.03591,-2.66262 -2.03812,3.58497 -4.54675,6.00461 z"
       id="path19014" />
    <path
       style="display:inline;fill:#3d1e3d;fill-opacity:1;stroke:none;stroke-width:0.264583px;stroke-linecap:butt;stroke-linejoin:miter;stroke-opacity:1"
       d="m 70.085606,132.25277 c 0,0 -0.48132,0.0765 -0.6828,-0.40293 -0.20147,-0.47946 -0.57654,-1.72173 0.0551,-2.51718 0.63169,-0.79546 1.75017,-1.59328 1.88546,-2.33518 h 5e-5 c 0,0 -6.15698,4.0147 -7.26506,3.77659 -1.10809,-0.23811 -0.937757,0.44974 0.39311,1.70987 1.33086,1.26014 3.3297,2.90011 2.8053,3.8425 -0.52441,0.94238 -0.81972,1.98904 -0.49923,2.27624 0.32049,0.28721 7.97409,0.21882 8.45244,-0.13116"
       id="path19511"
       sodipodi:nodetypes="cssccssssc" />
    <path
       style="display:inline;fill:#3d1e3d;fill-opacity:1;stroke:none;stroke-width:0.264583px;stroke-linecap:butt;stroke-linejoin:miter;stroke-opacity:1"
       d="m 55.031523,132.66196 c 0,0 -0.116698,-0.70842 0.906354,-1.69401 1.023048,-0.98558 2.575694,-2.88342 2.60128,-3.22301 0.02559,-0.33958 0.54374,1.01943 0.509717,1.70995 -0.03402,0.69052 0.326059,1.76742 0.474247,1.86332 0.148185,0.0959 -0.173093,1.98579 0.297995,2.93772 0.471088,0.95193 0.504285,1.16621 0.570693,1.55622 0.06641,0.39002 0.448672,2.74677 0.657074,2.9164 0.208402,0.16963 -1.789541,-0.15792 -1.789541,-0.60544 0,-0.44752 1.373582,-7.00098 -4.227819,-5.46115 z"
       id="path32947" />
    <path
       style="display:inline;fill:#3d1e3d;fill-opacity:1;stroke:none;stroke-width:0.264583px;stroke-linecap:butt;stroke-linejoin:miter;stroke-opacity:1"
       d="m 53.22848,128.71595 c 0,0 2.536468,-1.31507 3.073302,-2.01135 0.536837,-0.69629 1.5983,-0.73196 1.5983,-0.73196 0,0 0.117629,-0.44877 0.745257,-0.63586 0.627626,-0.1871 -0.111207,-4.30466 0.262493,-4.82821 0.373701,-0.52354 0.771269,-0.88907 1.011161,-0.88907 0.23989,0 -0.810114,-1.56066 0.165822,-2.28581 0.97594,-0.72514 -0.581318,-1.38818 -0.575907,-2.35071 0.0054,-0.96252 -0.563071,-2.19257 -0.390107,-2.77976 0.172963,-0.58719 -0.672648,-0.0453 -0.392904,2.70896 0.279741,2.75426 -1.357059,6.88816 -1.287105,7.32233 0.06995,0.43416 0.172751,3.32104 -0.755042,3.15891 -0.927793,-0.16213 -3.308519,2.69262 -3.45527,3.32253 z"
       id="path33128" />
    <path
       style="display:inline;fill:#3d1e3d;fill-opacity:1;stroke:none;stroke-width:0.264583px;stroke-linecap:butt;stroke-linejoin:miter;stroke-opacity:1"
       d="m 60.310719,123.31706 c 0,0 -0.116437,8.80601 1.63571,9.36564 1.752147,0.55963 0.435385,-0.896 0.534199,-1.15927 0.09881,-0.26327 0.928283,1.05048 1.422328,1.08064 0.49405,0.0302 0.89482,1.04367 0.79561,1.4518 -0.0992,0.40814 -0.81974,-1.1392 -1.312986,-0.72678 -0.49325,0.41242 1.256906,2.3934 0.195776,3.18037 -1.061122,0.78697 -0.438486,0.0971 -1.262402,0.0448 -0.823912,-0.0523 -2.211305,-1.52685 -0.929674,-1.55456 1.281629,-0.0277 -0.710493,-1.18337 -0.842785,-1.84162 -0.132292,-0.65825 -1.206169,-5.654 -0.235776,-9.84105 z"
       id="path33309" />
    <path
       style="display:inline;fill:#3d1e3d;fill-opacity:1;stroke:none;stroke-width:0.264583px;stroke-linecap:butt;stroke-linejoin:miter;stroke-opacity:1"
       d="m 64.800326,77.204623 c 0,0 0.0112,-0.19548 0.76187,-0.73724 1.11145,-0.80211 0.20939,1.89123 -0.6544,4.17209 -0.46203,1.21999 1.35039,-1.67788 1.76585,-4.9742 0.41545,-3.29631 -1.87332,1.53935 -1.87332,1.53935 z"
       id="path33490"
       sodipodi:nodetypes="csssc" />
    <path
       style="display:inline;fill:#3d1e3d;fill-opacity:1;stroke:none;stroke-width:0.264583px;stroke-linecap:butt;stroke-linejoin:miter;stroke-opacity:1"
       d="m 51.498293,85.787163 c 0,0 3.802422,-11.48459 5.618712,-13.38088 1.816291,-1.8963 -0.251841,0.46965 -0.546822,1.47785 -0.294981,1.0082 -3.584654,8.41012 -4.197736,10.64465 -0.613085,2.23453 -1.096156,1.6815 -0.874154,1.25838 z"
       id="path21860" />
    <path
       style="display:inline;fill:#3d1e3d;fill-opacity:1;stroke:none;stroke-width:0.264583px;stroke-linecap:butt;stroke-linejoin:miter;stroke-opacity:1"
       d="m 65.524646,29.377993 c 0,0 -1.43509,5.1732 -2.756421,10.74808 -0.210175,0.88676 -0.314912,0.28256 -0.172847,-0.36733 0.142063,-0.64989 2.710528,-12.13945 3.244298,-11.94214 0.53377,0.19731 -0.31503,1.56139 -0.31503,1.56139 z"
       id="path25954"
       sodipodi:nodetypes="csssc" />
    <path
       style="display:inline;fill:#3d1e3d;fill-opacity:1;stroke:none;stroke-width:0.264583px;stroke-linecap:butt;stroke-linejoin:miter;stroke-opacity:1"
       d="m 59.086448,30.781123 c 0,0 -4.258221,8.76982 -4.797558,11.96513 -0.53934,3.1953 -0.503073,-0.12373 -0.503073,-0.12373 0,0 3.818983,-9.65469 4.401027,-10.80013 0.495656,-0.97544 0.899604,-1.04124 0.899604,-1.04124 z"
       id="path2945"
       sodipodi:nodetypes="cscscc" />
    <path
       style="display:inline;fill:#3d1e3d;fill-opacity:1;stroke:none;stroke-width:0.264583px;stroke-linecap:butt;stroke-linejoin:miter;stroke-opacity:1"
       d="m 60.229926,38.149703 c 0.241961,-0.63081 2.284079,-7.94951 3.276867,-9.24715 0.940773,-1.22966 1.827383,-2.89956 1.827383,-2.89956 0,0 0.47078,-1.33796 0.36144,-1.08893 -0.0879,0.20024 -2.881852,4.49284 -2.881852,4.70803 0,0.21519 -2.823603,7.7465 -2.823603,8.18789 0,0.44138 0.239765,0.33972 0.239765,0.33972 z"
       id="path4603"
       sodipodi:nodetypes="cscsssc" />
    <path
       style="display:inline;fill:#3d1e3d;fill-opacity:1;stroke:none;stroke-width:0.264583px;stroke-linecap:butt;stroke-linejoin:miter;stroke-opacity:1"
       d="m 66.685546,19.544493 c 0,0 -0.0123,0.22353 -0.15485,1.22486 -0.17648,1.23951 -0.31727,2.43823 -0.26108,3.11548 0.10158,1.22438 -0.21886,1.09655 -0.21886,1.09655 0,0 -0.13503,-3.39268 0.0941,-3.88566 -0.12145,-0.62611 0.12243,-1.3686 0.12243,-1.3686 z"
       id="path8883"
       sodipodi:nodetypes="csscccc" />
    <path
       style="display:inline;fill:#3d1e3d;fill-opacity:1;stroke:none;stroke-width:0.264583px;stroke-linecap:butt;stroke-linejoin:miter;stroke-opacity:1"
       d="m 42.405402,44.160003 c 0,0 -0.27324,-0.91787 -0.359164,-1.20441 -0.08593,-0.28654 -1.706414,-5.29432 -2.1581,-5.90633 -0.451686,-0.612 -1.396008,-1.49237 -1.396008,-1.49237 0,0 1.272823,2.00416 1.455682,2.75671 0.182856,0.75255 1.517663,4.21462 1.535922,4.9699 0.01826,0.75527 0.921668,0.8765 0.921668,0.8765 z"
       id="path11925" />
    <path
       style="display:inline;fill:#3d1e3d;fill-opacity:1;stroke:none;stroke-width:0.264583px;stroke-linecap:butt;stroke-linejoin:miter;stroke-opacity:1"
       d="m 39.438047,43.171723 c 0,0 0.297937,-1.57516 -0.135715,-2.09403 -0.433649,-0.51887 -1.731039,-2.90475 -1.731039,-2.90475 0,0 1.603557,1.81662 2.107552,2.30191 0.503994,0.48529 0.110633,2.60632 0.110633,2.60632 z"
       id="path13238" />
    <path
       style="display:inline;fill:#3d1e3d;fill-opacity:1;stroke:none;stroke-width:0.264583px;stroke-linecap:butt;stroke-linejoin:miter;stroke-opacity:1"
       d="m 34.819547,47.152743 c 0,0 1.199986,1.6354 1.926012,2.02356 0.237098,0.12676 2.323225,-0.0809 3.543238,-0.18392 1.740072,-0.14698 2.624876,0.13656 2.74152,0.10937 0.198218,-0.0462 0.530886,-1.40548 0.917559,-1.52777 0.386672,-0.12229 0.232296,1.24859 0.03539,1.55932 -0.196903,0.31072 -0.780656,0.70807 -0.780656,0.70807 0,0 -0.106262,-0.64863 -2.331495,-0.60067 -2.225233,0.048 -4.2609,0.20448 -5.299501,0.013 -1.038598,-0.19145 -2.031722,-0.5493 -2.820424,-1.49667 -0.788704,-0.94737 0.938546,-0.96308 1.279329,-0.87842 0.340781,0.0847 0.789025,0.27409 0.789025,0.27409 z"
       id="path17932"
       sodipodi:nodetypes="csssssccssccc" />
    <path
       style="display:inline;fill:#3d1e3d;fill-opacity:1;stroke:none;stroke-width:0.264583px;stroke-linecap:butt;stroke-linejoin:miter;stroke-opacity:1"
       d="m 43.811591,70.555343 c 0,0 0.14057,5.62487 0.27642,6.61658 0.09214,0.67264 0.556564,0.91612 0.556564,0.91612 0,0 0.0123,-2.45424 1.865453,-2.53574 1.853152,-0.0815 -0.7693,-0.41679 -0.7693,-0.41679 l 2.356424,-2.74678 -0.27627,-3.5725 c 0,0 -2.22372,0.40504 -4.009295,1.73911 z"
       id="path99407"
       sodipodi:nodetypes="cscscccsc" />
    <path
       style="display:inline;fill:#3d1e3d;fill-opacity:1;stroke:none;stroke-width:0.264583px;stroke-linecap:butt;stroke-linejoin:miter;stroke-opacity:1"
       d="m 77.681176,116.42095 c 0,0 0.12835,1.92988 -0.31049,2.55504 -0.43883,0.62516 -0.82155,1.30524 -0.82155,1.66047 0,0.35524 -0.30826,1.08298 -0.65172,1.08298 -0.34346,0 -0.26001,-0.30919 -0.12812,-0.64904 0.13188,-0.33985 0.22104,-0.54116 0.20013,-0.7084 -0.0209,-0.16724 -1.16834,0.97125 -1.72697,1.12049 -0.55862,0.14923 0.12143,-0.27655 0.62908,-0.83199 0.50765,-0.55544 1.95902,-1.48872 2.15346,-2.30311 0.19445,-0.81438 0.65618,-1.92644 0.65618,-1.92644 z"
       id="path122182" />
    <path
       style="display:inline;fill:#673667;fill-opacity:1;stroke:none;stroke-width:0.264583px;stroke-linecap:butt;stroke-linejoin:miter;stroke-opacity:1"
       d="m 64.317966,38.936683 c 0.0468,-0.34826 4.17207,-5.2003 5.04954,-6.23809 0.87747,-1.03779 1.93493,-2.64331 2.02486,-2.95788 0.0899,-0.31456 0.56221,1.32589 0.87558,2.18024 0.31336,0.85436 -8.35601,8.77004 -8.753408,8.94095 -0.397396,0.17091 0.803428,-1.92522 0.803428,-1.92522 z"
       id="path132702" />
    <path
       style="display:inline;fill:#3d1e3d;fill-opacity:1;stroke:none;stroke-width:0.264583px;stroke-linecap:butt;stroke-linejoin:miter;stroke-opacity:1"
       d="m 64.746206,72.494033 c 0,0 -4.315924,6.92548 -4.59181,7.63585 -0.275889,0.71037 -2.318139,3.84763 -2.727011,4.25244 -0.408868,0.40481 0.897763,-2.15787 0.897763,-2.15787 0,0 0.747075,-1.23301 1.487721,-2.31159 0.740648,-1.07858 3.270676,-5.45481 3.270676,-5.45481 l 1.331051,-2.09903 z"
       id="path150129" />
    <path
       style="display:inline;fill:#3d1e3d;fill-opacity:1;stroke:none;stroke-width:0.264583px;stroke-linecap:butt;stroke-linejoin:miter;stroke-opacity:1"
       d="m 51.090371,92.785183 c 0,0 2.174261,-2.18242 2.390738,-2.88 0.216474,-0.69758 -0.912606,-0.19605 -0.912606,-0.19605 0,0 -1.612757,2.9185 -1.778122,3.05659 -0.165364,0.1381 0.29999,0.0194 0.29999,0.0194 z"
       id="path153788" />
    <path
       style="display:inline;fill:#28170b;fill-opacity:1;stroke:none;stroke-width:0.264583px;stroke-linecap:butt;stroke-linejoin:miter;stroke-opacity:1"
       d="m 54.628999,12.110083 c 0,0 0.111932,1.26691 -0.299173,0.80779 -0.411107,-0.45912 -0.124534,-1.24484 -0.268403,-1.5753 -0.14387,-0.33045 -0.376698,-1.09167 -0.729338,-1.33671 -0.352636,-0.24505 -0.184422,-1.7180595 -0.5394,-2.5183995 -0.354976,-0.80035 0.24657,-2.696138 0.95523,-3.192559 0.708663,-0.496422 -0.324972,-0.711118 0.7083,-1.476635 1.03327,-0.765516 2.113315,-2.05913806 4.467916,-2.43512406 2.354601,-0.375984 3.835294,0.340222 4.09738,0.464629 0.262083,0.12441 2.207995,1.21745106 2.993785,2.15353706 0.78578,0.936085 1.67197,1.361696 1.15288,3.289012 0,0 0.38974,0.60716 0.3205,2.55193 -0.0693,1.9447695 -0.3829,1.2077495 -0.59822,1.6940095 -0.21532,0.48626 -0.59158,2.03285 -0.8591,1.1429 -0.2442,-0.81235 0.74532,-2.8223695 0.20403,-3.7225795 -0.53259,-0.88575 0.23073,-1.17201 -0.0743,-3.23017 -0.33272,-2.244607 -3.456097,-3.84288906 -4.487653,-4.00138106 -1.031556,-0.158492 -4.139012,-0.428389 -6.071202,1.74519006 -2.353276,2.906149 -0.39445,5.046331 -0.887838,6.257501 -0.476723,1.1356895 0.151797,1.9516395 -0.08534,3.3823595 z"
       id="path1258"
       sodipodi:nodetypes="csssssssssccsssszccsc" />
    <path
       style="display:inline;fill:#28170b;fill-opacity:1;stroke:none;stroke-width:0.264583px;stroke-linecap:butt;stroke-linejoin:miter;stroke-opacity:1"
       d="m 56.849871,7.5732435 c 0,0 -0.665435,0.4767 -0.71473,0.3425 -0.04929,-0.13419 -0.167256,-0.47742 0.05961,-0.78353 0.22687,-0.3061 0.25676,-0.31139 1.178177,-0.31139 0.921416,0 2.487858,-0.26703 2.480426,0.21244 -0.0074,0.47947 -0.442714,0.41195 -1.263663,0.41195 -0.820949,0 -1.15014,-0.0101 -1.15014,-0.0101 z"
       id="path12716"
       sodipodi:nodetypes="cssscscc" />
    <path
       style="display:inline;fill:#28170b;fill-opacity:1;stroke:none;stroke-width:0.264583px;stroke-linecap:butt;stroke-linejoin:miter;stroke-opacity:1"
       d="m 64.138916,7.5398135 c 0,0 0.66544,0.4767 0.71473,0.3425 0.0493,-0.13419 0.16726,-0.47742 -0.0596,-0.78353 -0.22687,-0.3061 -0.25676,-0.31139 -1.17818,-0.31139 -0.921404,0 -2.487844,-0.26703 -2.480414,0.21244 0.007,0.47947 0.44271,0.41195 1.26366,0.41195 0.820946,0 1.150134,-0.0101 1.150134,-0.0101 z"
       id="path12716-6"
       sodipodi:nodetypes="cssscscc" />
    <path
       d="m 77.318486,132.05555 c 1.05524,2.03723 2.74792,2.1583 3.90573,3.43744 1.15781,1.27913 0.10124,3.17193 0.10124,3.17193 -1.31893,0.19549 -6.38827,1.02718 -7.53396,-0.8603 -1.14569,-1.8875 -2.90422,-0.81056 -3.42666,-2.18643 -0.52245,-1.37589 -0.25315,-3.08944 -0.25315,-3.08944 0,0 2.28708,-6.11042 6.22972,-3.7202 1.08764,1.51898 -0.0781,1.20976 0.97708,3.247 z"
       style="display:inline;fill:#deaa87;fill-opacity:1;stroke:none;stroke-width:0.340579;stroke-linecap:butt;stroke-linejoin:miter;stroke-miterlimit:4;stroke-dasharray:none;stroke-opacity:1"
       id="path99821"
       sodipodi:nodetypes="sscssccs" />
    <path
       style="display:inline;fill:#deaa87;fill-opacity:1;stroke:none;stroke-width:0.352553;stroke-linecap:butt;stroke-linejoin:miter;stroke-miterlimit:4;stroke-dasharray:none;stroke-opacity:1"
       d="m 60.514027,138.0144 c -0.515649,0.13943 -1.516117,0.63545 -2.442307,0.97099 -1.47036,0.53268 -9.131822,1.59728 -9.302533,0.20813 -0.170718,-1.38915 1.207856,-2.88235 2.420172,-3.13453 0,0 2.30893,-1.22162 3.846916,-3.4951 0,0 1.091318,-1.48819 2.21422,-1.05226 1.122903,0.43592 1.446115,0.76457 1.74582,1.28365 0.299705,0.51908 0.621706,2.38984 0.969561,2.72492 0.347855,0.33509 0.0912,2.04253 0.548151,2.4942 z"
       id="path27793"
       sodipodi:nodetypes="cssccsssc" />
    <path
       style="display:inline;fill:#b17c58;fill-opacity:1;stroke:none;stroke-width:0.264583px;stroke-linecap:butt;stroke-linejoin:miter;stroke-opacity:1"
       d="m 80.632516,137.94917 c -1.98694,-0.62726 -4.52522,0.0762 -4.77794,-0.37644 -0.25272,-0.45264 -0.43804,-1.01737 0.10399,-1.30137 0.54204,-0.28401 -1.49795,-1.85854 -1.76511,-0.73854 -0.27371,1.14747 -0.88962,0.10994 -0.72749,-2.27029 0.0711,-1.04337 -2.33584,2.88037 -3.35428,-0.4692 0,0 -0.24732,1.84093 0.14631,2.49657 0.39362,0.65564 0.17571,0.94915 1.3634,1.2349 1.18768,0.28574 1.47697,0.35998 2.18689,1.28804 0.70991,0.92805 1.73002,1.67425 6.124,1.00244 0,0 2.68717,-0.23886 0.70023,-0.86611 z"
       id="path20387"
       sodipodi:nodetypes="ssssscssscs" />
    <path
       style="display:inline;fill:#b17c58;fill-opacity:1;stroke:none;stroke-width:0.264583px;stroke-linecap:butt;stroke-linejoin:miter;stroke-opacity:1"
       d="m 56.957792,138.17312 c -0.911195,0.0244 -0.12968,-0.57848 0.555049,-0.39645 0.684731,0.18204 0.501499,-4.50227 -0.701511,-4.55099 -1.20301,-0.0487 -2.180627,0.0721 -2.637113,0.49406 -0.456486,0.42196 1.346372,-1.97509 1.980724,-2.18407 0.634354,-0.20898 2.378932,-0.0486 2.911065,1.36772 0.532135,1.41633 0.994283,2.85244 1.091207,2.99914 0.09692,0.1467 -0.05899,1.1156 0.356811,2.37646 0,0 -1.133259,0.32348 -2.739458,0.84577 0,0 0.09442,-0.97606 -0.816774,-0.95164 z"
       id="path31182"
       sodipodi:nodetypes="sssssssccs" />
    <path
       style="display:inline;fill:#dfdfdf;fill-opacity:1;stroke:none;stroke-width:0.264583px;stroke-linecap:butt;stroke-linejoin:miter;stroke-opacity:1"
       d="m 57.271051,8.7553835 c 0,0 0.0902,-0.74366 1.063595,-0.65777 0.973399,0.0859 1.070455,0.71735 1.070455,0.71735 0,0 -1.134269,0.28899 -2.13405,-0.0596 z"
       id="path8996"
       sodipodi:nodetypes="cscsc" />
    <path
       style="display:inline;fill:#dfdfdf;fill-opacity:1;stroke:none;stroke-width:0.264583px;stroke-linecap:butt;stroke-linejoin:miter;stroke-opacity:1"
       d="m 63.849846,8.6367635 c 0,0 -0.0738,-0.71423 -1.047204,-0.62834 -0.973398,0.0859 -1.086832,0.68792 -1.086832,0.68792 0,0 1.134268,0.28899 2.134036,-0.0596 z"
       id="path8996-3"
       sodipodi:nodetypes="cscsc" />
    <ellipse
       style="display:inline;fill:#231309;fill-opacity:1;stroke:none;stroke-width:0.350853;stroke-opacity:1"
       id="path58178"
       cx="58.336208"
       cy="8.4855089"
       rx="0.44751471"
       ry="0.39444089" />
    <ellipse
       style="display:inline;fill:#231309;fill-opacity:1;stroke:none;stroke-width:0.350853;stroke-opacity:1"
       id="path58178-2"
       cx="62.842155"
       cy="8.3857393"
       rx="0.44751471"
       ry="0.39444089" />
    <path
       style="display:inline;fill:#e9c6af;stroke:none;stroke-width:0.351998px;stroke-linecap:butt;stroke-linejoin:miter;stroke-opacity:1"
       d="m 64.744146,40.970453 c 0,0 1.02798,0.0857 3.97534,0.0532 l 4.71515,-0.0524 c 1.39889,-0.0155 1.88557,3.5991 2.30561,5.16518 0.4255,1.58643 0.79522,1.81789 0.79522,1.81789 0,0 -2.68226,-6.7e-4 -5.71355,-1.37922 -3.03129,-1.37844 -6.00709,-4.59404 -6.00709,-4.59404 z"
       id="path16009"
       sodipodi:nodetypes="cssscccc" />
    <path
       style="display:inline;fill:#e9c6af;stroke:none;stroke-width:0.351998px;stroke-linecap:butt;stroke-linejoin:miter;stroke-opacity:1"
       d="m 27.247099,40.923843 c 0,0 -4.271338,0.47632 -7.531684,4.21255 0,0 -4.99572,3.00462 -6.436955,2.49609 -1.441237,-0.50856 -1.650468,-0.44309 -2.244392,-1.09548 -0.593924,-0.65242 -3.341118,0.56671 -4.817087,-0.72842 -0.903371,-0.79269 -1.420301,-0.19067 -1.477347,0.48521 -0.03616,0.42841 0.354264,0.87197 0.852879,1.12862 0.784031,0.40355 1.695051,0.75535 2.685728,0.78267 0.363821,0.01 -0.233842,0.36806 -0.333576,0.48271 -0.115698,0.133 -1.471886,1.06992 -2.485744,1.45085 -0.870349,0.32701 -4.558414,2.725 -5.132432,3.16732 -0.574018,0.44231 -0.05715,1.50587 1.202688,0.95718 0.79535,-0.3464 2.322748,-1.52714 3.045969,-1.73836 1.114425,-0.32547 1.451844,-0.67546 1.602668,-0.16493 0.194607,0.65872 -1.104475,0.73305 -2.69853,3.1065 -0.179786,0.26769 0.06437,0.65536 0.212453,0.83246 0.242192,0.28965 0.644935,0.3708 0.94176,0.12481 2.011036,-1.66665 1.583597,-2.10778 2.452539,-2.25942 0,0 0.04204,0.10982 -0.336345,0.94968 -0.135913,0.30167 -0.55452,0.77307 -0.377095,1.15226 0.21268,0.45454 0.795557,0.62164 1.165089,0.50476 0.548834,-0.1736 1.459065,-0.85189 1.714027,-1.01745 0.166203,-0.10792 0.343693,-0.0888 0.462747,-0.0468 0.207313,0.0731 0.04639,0.66499 0.326024,0.84823 0.306523,0.20086 1.251405,0.37979 1.606415,-0.20163 0.693334,-1.13553 3.274032,-3.19347 4.503471,-3.24584 1.229439,-0.0524 3.146378,-0.76174 7.273359,-1.34497 4.12698,-0.58321 9.566313,-3.81745 10.801812,-4.34657 2.483672,0.029 -5.279898,-8.54449 -6.978441,-6.49191 z"
       id="path19236"
       sodipodi:nodetypes="ccssssssssssssssscssssssscsccc" />
    <path
       style="display:inline;fill:#e5b99b;fill-opacity:1;stroke:none;stroke-width:0.264583px;stroke-linecap:butt;stroke-linejoin:miter;stroke-opacity:1"
       d="m 11.34747,56.604803 0.123811,-0.23259 0.153293,-0.8214 c 0,0 -0.03512,-0.39293 -0.261361,-0.55663 -0.188628,-0.0988 -0.472857,-0.13513 -0.661518,-0.0672 -0.188661,0.068 -0.284753,0.21558 -0.32261,0.40667 -0.01896,0.0957 -0.08958,0.38529 -0.111352,0.48047 -0.03577,0.15637 -0.197446,0.71045 -0.135724,0.78242 0.06174,0.072 0.744974,0.25438 1.215449,0.008 z"
       id="path69093"
       sodipodi:nodetypes="cccczsscsc" />
    <path
       d="m 4.635982,56.421653 c -0.296825,0.24599 -0.699568,0.16484 -0.94176,-0.12481 -0.148083,-0.1771 -0.392239,-0.56477 -0.212453,-0.83246 l 0.141347,-0.0803 c 0,0 -0.06463,0.67563 0.206183,0.80714 0.129356,0.0628 0.291309,0.19573 0.703581,-0.0222 0.277796,-0.14681 0.946606,-0.78516 1.271764,-1.06434 0.202537,-0.1739 0.521855,-0.52603 0.756481,-0.77815 0.100236,-0.10772 0.773183,-0.37791 0.512463,-0.19773 -0.429923,0.29712 -1.325078,1.31075 -1.517962,1.50131 -0.439497,0.4342 -0.919644,0.79144 -0.919644,0.79144 z"
       style="display:inline;fill:#e3b08a;fill-opacity:1;stroke:none;stroke-width:0.351998px;stroke-linecap:butt;stroke-linejoin:miter;stroke-opacity:1"
       id="path61429"
       sodipodi:nodetypes="csccsssssscc" />
    <path
       d="m 7.948888,48.714333 c 0.09973,-0.11465 0.697397,-0.47271 0.333576,-0.48271 -0.990677,-0.0273 -1.901697,-0.37912 -2.685728,-0.78267 -0.498615,-0.25665 -0.889039,-0.70021 -0.852879,-1.12862 l 0.239962,0.21737 c 0,0 0.541182,0.82089 1.447081,1.07841 0.905899,0.25753 1.873176,0.0681 1.996907,0.19006 0.123731,0.12195 1.179008,-0.004 0.895691,0.40489 -0.283317,0.40901 -2.420695,1.68708 -2.600711,1.41984 -0.180015,-0.26725 0.435939,-0.26809 1.226101,-0.91657 z"
       style="display:inline;fill:#e5b99b;fill-opacity:1;stroke:none;stroke-width:0.351998px;stroke-linecap:butt;stroke-linejoin:miter;stroke-opacity:1"
       id="path61113"
       sodipodi:nodetypes="ccsccssssc" />
    <path
       style="display:inline;fill:#e3b08a;fill-opacity:1;stroke:none;stroke-width:0.264583px;stroke-linecap:butt;stroke-linejoin:miter;stroke-opacity:1"
       d="m 4.296687,52.521133 c 0,0 0.776473,-0.079 1.207815,-0.27563 0.43134,-0.19664 0.703819,-0.17964 0.707655,0.14651 0.0038,0.32615 -0.389281,0.59661 -0.389281,0.59661 0,0 0.589041,-0.022 0.703384,-0.56769 0.114342,-0.54572 -0.456097,-0.67026 -0.598625,-0.65618 -0.142529,0.0141 -0.938107,0.4377 -1.162495,0.44652 -0.22439,0.009 -0.523287,-0.1141 -0.4484,-0.3672 0.07489,-0.25309 -0.452374,-0.12008 -0.02005,0.67706 z"
       id="path60439" />
    <path
       style="display:inline;fill:#e3b08a;fill-opacity:1;stroke:none;stroke-width:0.264583px;stroke-linecap:butt;stroke-linejoin:miter;stroke-opacity:1"
       d="m 4.73829,52.380033 c 0,0 -2.195187,1.22209 -2.269043,1.34637 -0.07386,0.12429 -0.102809,-0.18919 -0.102809,-0.18919 0,0 1.620404,-1.04925 2.007632,-1.1889 0.387231,-0.13966 0.36422,0.0317 0.36422,0.0317 z"
       id="path60822" />
    <path
       style="display:inline;fill:#e3b08a;fill-opacity:1;stroke:none;stroke-width:0.264583px;stroke-linecap:butt;stroke-linejoin:miter;stroke-opacity:1"
       d="m 11.454746,56.577733 c 0,0 0.06368,-0.34283 0.159325,-0.86433 0.06192,-0.33765 -0.296909,-0.3957 -0.397678,-0.41899 -0.05485,-0.0127 -0.003,0.10437 0.04821,0.1363 0.03587,0.0224 0.225371,0.10872 0.158167,0.36109 -0.124261,0.46665 -0.02321,0.54825 -0.185064,0.62442 -0.16185,0.0762 -0.638013,0.20593 -0.782958,0.13913 -0.144951,-0.0668 -0.3231,0.0675 0.0089,0.1731 0.266534,0.0377 0.878975,-0.0199 0.991148,-0.15075 z"
       id="path64696"
       sodipodi:nodetypes="csssssscsc" />
    <path
       style="display:inline;fill:#e5b99b;fill-opacity:1;stroke:none;stroke-width:0.264583px;stroke-linecap:butt;stroke-linejoin:miter;stroke-opacity:1"
       d="m 7.746494,55.356213 0.509519,-0.35063 c 0,0 0.292899,-0.16848 0.444283,-0.13681 0.151384,0.0317 0.485283,0.0783 0.600009,0.27627 0.114726,0.198 0.126703,0.45846 7.94e-4,0.50468 -0.125939,0.0462 -0.17612,0.31124 -0.797288,0.24501 -0.62117,-0.0662 -0.757288,-0.53852 -0.757288,-0.53852 z"
       id="path70651" />
    <path
       style="display:inline;fill:#e5b99b;fill-opacity:1;stroke:none;stroke-width:0.264583px;stroke-linecap:butt;stroke-linejoin:miter;stroke-opacity:1"
       d="m 7.80778,50.307823 c 0,0 0.04299,1.10167 1.415819,1.12618 1.372836,0.0245 2.919836,0.27197 3.754075,-0.27867 0.83424,-0.55064 0.659472,-1.5201 0.659472,-1.5201 0,0 -0.203319,-0.29474 -0.433806,0.58145 -0.230489,0.87619 -3.091241,1.21416 -3.682494,0.60533 -0.591252,-0.60883 -1.647913,-0.73546 -1.713066,-0.51419 z"
       id="path71233" />
    <path
       style="display:inline;fill:#e5b99b;fill-opacity:1;stroke:none;stroke-width:0.264583px;stroke-linecap:butt;stroke-linejoin:miter;stroke-opacity:1"
       d="m 16.110219,52.842403 c 0,0 4.098039,-2.33013 5.39732,-2.45502 1.299282,-0.12488 3.407963,-2.17274 3.996738,-2.63563 0.588772,-0.46289 3.793717,-0.90129 4.547103,-1.30303 0.753385,-0.40174 2.756918,-1.23227 2.835322,-1.83373 0.0784,-0.60147 1.867501,1.1443 1.773957,1.98137 -0.09355,0.83708 -6.143797,3.32051 -6.143797,3.32051 0,0 -3.385097,1.03131 -3.759697,1.15171 -0.3746,0.12039 -6.190681,1.39064 -6.190681,1.39064 z"
       id="path78156" />
    <path
       style="display:inline;fill:#e5b99b;fill-opacity:1;stroke:none;stroke-width:0.264583px;stroke-linecap:butt;stroke-linejoin:miter;stroke-opacity:1"
       d="m 15.41296,51.817063 c 0,0 -0.636307,-1.3899 1.578192,-1.8553 2.214502,-0.46539 2.536604,-0.0508 1.359437,0.23654 -1.117176,0.27266 -2.505573,0.11253 -2.594473,1.09504 -0.0889,0.98251 -0.343156,0.52372 -0.343156,0.52372 z"
       id="path78514"
       sodipodi:nodetypes="csssc" />
    <path
       style="display:inline;fill:#e5b99b;fill-opacity:1;stroke:none;stroke-width:0.264583px;stroke-linecap:butt;stroke-linejoin:miter;stroke-opacity:1"
       d="m 15.594999,49.815993 c 0,0 2.552361,-0.95293 3.270141,-0.99548 0.717781,-0.0426 0.50047,-0.98735 -0.189497,-0.53797 -0.68997,0.44938 -2.994514,0.77188 -3.154105,1.2422 0.0213,0.22977 0.03187,0.26613 0.07346,0.29125 z"
       id="path81255"
       sodipodi:nodetypes="ccscc" />
    <path
       style="display:inline;fill:#d39f76;fill-opacity:1;stroke:none;stroke-width:0.28015px;stroke-linecap:butt;stroke-linejoin:miter;stroke-opacity:1"
       d="m 15.586532,50.615493 c 0,0 0.479409,-0.65937 1.772833,-0.83054 1.04878,-0.13878 1.609876,-0.12979 1.609876,-0.12979 0,0 0.002,0.1092 -0.226882,0.182 -0.228923,0.0728 -1.826372,-0.0128 -3.087678,0.97487 -0.189386,0.1483 -0.124457,-0.0655 -0.06815,-0.19654 z"
       id="path105711"
       sodipodi:nodetypes="csccscc" />
    <path
       style="display:inline;fill:#d39f76;fill-opacity:1;stroke:none;stroke-width:0.264583px;stroke-linecap:butt;stroke-linejoin:miter;stroke-opacity:1"
       d="m 15.595782,49.816523 c 0,0 1.873896,-0.65011 2.03354,-0.69907 0.159644,-0.049 1.071007,-0.28166 1.219549,-0.29819 0.14854,-0.0165 0.300683,-0.0338 0.378804,-0.13392 0.07812,-0.10012 0.07022,-0.22513 -0.0064,-0.21683 -0.07658,0.008 -1.625112,0.46368 -1.866052,0.54234 -0.240938,0.0787 -1.811794,0.48528 -1.814597,0.66336 -6.67e-4,0.0423 0.05722,0.13249 0.05722,0.13249 z"
       id="path105993"
       sodipodi:nodetypes="ccssccscc" />
    <path
       style="display:inline;fill:#d39f76;fill-opacity:1;stroke:none;stroke-width:0.264583px;stroke-linecap:butt;stroke-linejoin:miter;stroke-opacity:1"
       d="m 24.219692,49.876673 c 0,0 2.837816,-2.00935 3.211494,-1.95636 0.837277,0.11871 -0.200994,0.34698 -0.200994,0.34698 0,0 -2.728605,1.7714 -2.84453,1.85472 -0.115927,0.0833 -0.661716,0.66673 -0.978223,0.65454 -0.03566,0.042 -1.255674,0.67445 -1.244724,0.59338 0.01,-0.0739 1.247591,-0.85807 1.285594,-0.90213 0.07967,-0.0923 0.771386,-0.59113 0.771386,-0.59113 z"
       id="path106133"
       sodipodi:nodetypes="cscscsccc" />
    <path
       d="m 34.197492,47.429313 c -1.235499,0.52912 -6.674831,3.76336 -10.801811,4.34657 -4.126981,0.58323 -6.04392,1.29258 -7.273359,1.34498 0,0 -0.748941,-0.045 -0.685377,-0.14646 0.06356,-0.10151 1.458998,-0.49079 1.458998,-0.49079 0,0 6.188944,-1.25561 6.723269,-1.79244 0.534326,-0.53684 4.397972,-2.97511 4.754153,-2.92574 0.356181,0.0494 -3.252918,2.04506 -3.460536,2.62266 -0.207617,0.5776 2.348304,-0.37513 3.104238,-1.1717 0.755934,-0.79658 1.918509,-2.42642 2.411921,-2.14373 0.493411,0.28268 -1.309598,1.0396 -1.617134,2.11211 -0.307536,1.0725 2.929795,-2.3761 4.394942,-2.2987 1.465147,0.0774 1.018906,-0.95558 1.018906,-0.95558 0,0 1.143965,0.99859 -0.02821,1.49882 z"
       style="display:inline;fill:#e3b08a;fill-opacity:1;stroke:none;stroke-width:0.351998px;stroke-linecap:butt;stroke-linejoin:miter;stroke-opacity:1"
       id="path74645" />
    <path
       style="display:inline;fill:#d39f76;fill-opacity:1;stroke:none;stroke-width:0.264583px;stroke-linecap:butt;stroke-linejoin:miter;stroke-opacity:1"
       d="m 28.032527,49.259643 c 0,0 1.922401,-1.99395 2.144874,-2.14858 0.222475,-0.15463 -0.206457,-0.13194 -0.403995,0.0951 -0.197538,0.22699 -2.71793,2.55858 -2.767333,2.67808 -0.0494,0.11949 0.725742,-0.12055 1.026454,-0.62456 z"
       id="path1392" />
    <path
       style="display:inline;fill:#ed977e;fill-opacity:1;stroke:none;stroke-width:0.264583px;stroke-linecap:butt;stroke-linejoin:miter;stroke-opacity:1"
       d="m 59.312703,13.977383 c 0,0 0.921951,-0.0672 1.175943,-0.0332 0.253989,0.034 0.563943,-0.1278 0.834535,-0.0306 0.27059,0.0972 0.427398,0.0791 0.532244,0.18614 0.104846,0.10704 -0.50494,-0.16657 -0.632313,-0.16657 -0.127376,0 -0.431677,0.004 -0.492425,0.0778 -0.293462,-0.0534 -1.22396,-0.0215 -1.353365,0.004 -0.167627,0.0334 -0.407109,0.18104 -0.06462,-0.0378 z"
       id="path43514"
       sodipodi:nodetypes="csssscscc" />
    <path
       d="m 9.235514,55.757723 c -0.254962,0.16556 -1.165193,0.84385 -1.714027,1.01745 -0.369532,0.11688 -0.952409,-0.0502 -1.165089,-0.50476 -0.177425,-0.37919 0.151195,-0.67025 0.287108,-0.97192 0,0 0.407017,-0.43928 0.350874,-0.2365 -0.07874,0.28438 -0.340417,1.04677 -0.106719,0.83904 0.227617,-0.20232 0.596546,-0.47568 0.863889,-0.68471 0.209195,-0.16356 0.542563,-0.28737 0.640833,-0.288 0.223857,-10e-4 0.01684,0.0755 0.03096,0.4 0.02528,0.58107 0.812173,0.4294 0.812173,0.4294 z"
       style="display:inline;fill:#e3b08a;fill-opacity:1;stroke:none;stroke-width:0.351998px;stroke-linecap:butt;stroke-linejoin:miter;stroke-opacity:1"
       id="path63680"
       sodipodi:nodetypes="csscssscsc" />
    <path
       style="display:inline;fill:#f4ebbc;fill-opacity:1;stroke:none;stroke-width:0.387953px;stroke-linecap:butt;stroke-linejoin:miter;stroke-opacity:1"
       d="m 46.836803,45.214643 -0.857065,0.13361 c 0,0 -1.053984,-1.64398 0.599345,-3.3972 0,0 21.386783,0.43107 26.855553,0.0785 0,0 0.81123,1.79623 -0.21707,3.43432 0,0 0.0875,-0.31613 -0.92271,-0.27434 0,0 -0.19197,5.4367 0.18883,9.14192 0.3808,3.70524 -0.3874,7.94011 -0.2858,12.14943 0.10155,4.20932 -0.37588,2.35495 0.16581,3.60183 l 1.00103,0.17067 c 0,0 1.35317,1.35409 0.0705,3.25747 0,0 -24.390593,-0.2025 -27.89403,-0.16801 0,0 -1.682283,-1.67843 -0.03479,-3.55548 l 1.454388,0.24873 c 0,0 0.07819,-4.27532 -0.274513,-5.3844 -0.352701,-1.1091 0.295084,-12.1563 0.244807,-14.96705 -0.05028,-2.81076 0.07052,-2.51129 -0.09429,-4.47"
       id="path8621"
       sodipodi:nodetypes="ccccccssccccccssc"
       inkscape:label="back" />
    <path
       style="display:inline;fill:#e6dca5;fill-opacity:0.486847;stroke:none;stroke-width:0.28973px;stroke-linecap:butt;stroke-linejoin:miter;stroke-opacity:1"
       d="m 46.895632,45.509183 c 0,0 20.833314,-0.7747 24.823144,-0.0511 l 0.56513,0.0921 0.0824,6.4942 c 0,0 -3.43216,-1.25361 -4.67274,-1.72327 -1.2756,-0.48292 -3.76367,1.18605 -4.307605,1.33175 -0.54394,0.1457 -8.401592,-1.62706 -10.384005,-0.51711 -2.115131,1.18374 -5.569317,-0.0136 -5.896697,0.63395 -0.19003,0.3759 -0.209607,-6.25998 -0.209607,-6.25998 z"
       id="path23480-8"
       sodipodi:nodetypes="ccccsssscc"
       inkscape:label="top-2" />
    <path
       style="display:inline;fill:#d1c996;fill-opacity:1;stroke:none;stroke-width:0.271966px;stroke-linecap:butt;stroke-linejoin:miter;stroke-opacity:1"
       d="m 46.913882,45.133613 c 0,0 20.833314,-0.68261 24.823144,-0.045 l 0.56513,0.0811 -0.0396,0.90751 c 0,0 -3.05798,-0.57974 -4.42121,-0.61863 -1.36324,-0.0389 -5.332887,0.22317 -5.876826,0.35155 -0.543937,0.12838 -3.889794,0.36266 -6.107531,-0.0713 -1.944498,-0.38046 -8.52811,-0.47469 -8.855483,0.0959 -0.190037,0.33122 -0.08759,-0.70113 -0.08759,-0.70113 z"
       id="path23480"
       sodipodi:nodetypes="ccccsssscc"
       inkscape:label="top-1" />
    <path
       style="display:inline;fill:#e6dca5;fill-opacity:0.486847;stroke:none;stroke-width:0.28973px;stroke-linecap:butt;stroke-linejoin:miter;stroke-opacity:1"
       d="m 46.760605,69.714243 c 0,0 20.833311,0.7747 24.823141,0.0511 l 0.56513,-0.0921 0.0824,-6.4942 c 0,0 -3.43216,1.25361 -4.67274,1.72327 -1.2756,0.48292 -3.76367,-1.18605 -4.307601,-1.33175 -0.54394,-0.1457 -8.4016,1.62706 -10.38401,0.51711 -2.11513,-1.18374 -4.994082,-0.97952 -6.250616,-0.63395 -0.161106,0.0443 0.151909,1.95681 0.286607,3.13358 0.355527,3.10599 -0.142291,3.1264 -0.142291,3.1264 z"
       id="path23480-8-7"
       sodipodi:nodetypes="ccccssssscc"
       inkscape:label="bot-2" />
    <path
       style="display:inline;fill:#d1c996;fill-opacity:1;stroke:none;stroke-width:0.271966px;stroke-linecap:butt;stroke-linejoin:miter;stroke-opacity:1"
       d="m 47.050757,70.073233 c 0,0 20.561409,0.69919 24.551239,0.0616 l 0.56513,-0.0811 -0.0396,-0.90751 c 0,0 -3.05798,0.57974 -4.42121,0.61863 -1.36324,0.0389 -5.332891,-0.22317 -5.876821,-0.35155 -0.54394,-0.12838 -3.8898,-0.36266 -6.10753,0.0713 -1.9445,0.38046 -8.52811,0.47469 -8.85549,-0.0959 -0.19003,-0.33122 -0.1713,0.56354 -0.1713,0.56354 z"
       id="path23480-9"
       sodipodi:nodetypes="ccccsssscc"
       inkscape:label="bot-1" />
    <path
       style="display:inline;fill:#e9c6af;stroke:none;stroke-width:0.393478px;stroke-linecap:butt;stroke-linejoin:miter;stroke-opacity:1"
       d="m 70.227996,42.234833 -5.79931,0.0928 c -1.248106,0.02 -0.25895,1.5938 -0.83529,2.27081 -0.220742,0.2593 -0.793607,0.096 -0.981001,0.0831 -0.127933,-0.009 -0.11751,-0.55529 -0.258025,-0.58662 -0.06259,-0.014 -0.08846,0.43011 -0.128556,0.58292 -0.247347,0.94268 -0.369465,1.01314 -1.541228,0.57331 -0.60175,-0.8546 -0.982042,0.35734 -0.982042,0.35734 -1.563671,0.38786 -1.606715,-1.31428 -2.155579,-1.6468 -0.09989,-0.0605 -0.02238,0.88302 -0.183702,0.85645 -1.105547,1.52211 -2.042095,-0.49347 -2.042095,-0.49347 -0.421738,-3.00791 0.03844,-1.84397 -1.768724,-2.0228 -0.784539,0.12847 -2.735135,-0.11551 -2.735135,-0.11551 -0.308164,-0.46131 0.02978,-0.86741 0.384804,-1.19255 1.040528,-0.15734 -0.186952,0.1292 1.040528,-0.15734 0.920519,-0.21487 2.182411,-0.39484 2.182411,-0.39484 0.605229,0 0.755339,-0.27264 1.801469,-0.34092 1.046126,-0.0683 0.924576,-0.11595 4.155113,-0.37423 1.613584,-0.12901 2.523512,0.88453 3.202882,1.02407"
       id="path6383"
       sodipodi:nodetypes="csssssccscccccscssc" />
    <path
       style="display:inline;fill:#e5b99b;fill-opacity:1;stroke:none;stroke-width:0.264583px;stroke-linecap:butt;stroke-linejoin:miter;stroke-opacity:1"
       d="m 57.63334,39.996213 c 0,0 -0.213847,0.20666 -0.278723,0.31606 -0.06488,0.1094 0.04005,0.4756 0.06028,0.54701 0.02024,0.0714 0.06459,0.95789 0.09118,1.1702 0.02075,0.16566 0.182574,-0.6539 0.224318,-0.84319 0.05,-0.22673 -0.03499,-0.60349 0.286604,-0.91136 0.08446,-0.0809 0.773091,-0.17652 1.166121,0.30881 0.269039,0.33223 0.422169,1.36513 0.487462,1.54221 0.1573,0.42661 0.370214,1.33196 0.391318,1.32 0.100251,-0.057 -0.196813,-2.55427 -0.137203,-2.81827 0.05961,-0.264 0.0618,-0.46675 -0.02297,-0.57226 -0.08477,-0.10552 -0.300556,-0.29736 -0.300556,-0.29736 l -0.433719,-0.13457 -0.651327,-0.0611 -0.507434,0.1587 z"
       id="path89037"
       sodipodi:nodetypes="cssssssscssccccc" />
    <path
       style="display:inline;fill:#e5b99b;fill-opacity:1;stroke:none;stroke-width:0.264583px;stroke-linecap:butt;stroke-linejoin:miter;stroke-opacity:1"
       d="m 58.279504,45.613363 c 0,0 -0.05474,0.16658 -0.297615,-0.4578 -0.242874,-0.62434 -0.51471,-1.27191 -0.54392,-2.12539 -0.02921,-0.85349 0.103391,-0.62172 0.169116,-0.179 0.06573,0.44272 0.774665,2.25311 1.094748,2.44039 0.907008,0.31101 1.255949,-0.32983 1.209087,-0.13702 -0.05272,0.21693 -0.116251,0.28682 -0.224483,0.42025 -0.09298,0.11462 -0.393173,0.15297 -0.393173,0.15297 z"
       id="path87091"
       sodipodi:nodetypes="cssscsscc" />
    <path
       style="display:inline;fill:#e5b99b;fill-opacity:1;stroke:none;stroke-width:0.264583px;stroke-linecap:butt;stroke-linejoin:miter;stroke-opacity:1"
       d="m 60.383781,44.932103 c 0,0 0.02331,0.52324 0.211064,0.53042 0.241508,0.009 1.076045,0.17998 1.340153,0.0396 0.103019,-0.0548 0.111102,-0.30442 0.111102,-0.30442 0,0 -0.313298,0.0894 -0.642551,0.0592 -0.289693,-0.0266 -0.929938,-0.10035 -1.041873,-1.01009 -0.111934,-0.90974 -0.117246,-1.02876 -0.117246,-1.02876 0,0 -0.20928,-0.18469 -0.08142,0.63898 0.12786,0.82367 0.09174,0.85728 0.220773,1.07509 z"
       id="path87849"
       sodipodi:nodetypes="csscsscssc" />
    <path
       style="display:inline;fill:#e5b99b;fill-opacity:1;stroke:none;stroke-width:0.264583px;stroke-linecap:butt;stroke-linejoin:miter;stroke-opacity:1"
       d="m 62.414916,44.118473 c 0,0 0.08934,0.5554 0.19962,0.5554 0.110281,0 0.52029,0.0906 0.572342,0.0682 0.05205,-0.0224 -0.02911,-0.0998 -0.271852,-0.14851 -0.102724,-0.0206 -0.244056,-0.0738 -0.244056,-0.16913 0,-0.0953 -0.110908,-0.3442 -0.08455,-0.7872 0.02635,-0.44299 -0.221172,-0.0155 -0.171499,0.48126 z"
       id="path88162"
       sodipodi:nodetypes="cssssssc" />
    <path
       style="display:inline;fill:#d39f76;fill-opacity:1;stroke:none;stroke-width:0.264583px;stroke-linecap:butt;stroke-linejoin:miter;stroke-opacity:1"
       d="m 57.586053,39.942673 c 0,0 0.48128,-0.44611 0.810054,-0.44611 0.328774,0 0.776309,0.0278 0.958966,0.0761 0.182656,0.0483 0.364517,0.20096 0.495089,0.30764 0.130572,0.10668 0.05462,0.88407 0.06496,1.03736 0.0068,0.10009 0.04726,0.88107 -0.01808,0.93492 -0.07119,0.0587 -0.04609,-1.4536 -0.06507,-1.58118 -0.04021,-0.27018 -0.100502,-0.28622 -0.156792,-0.35251 -0.0978,-0.11518 -0.708967,-0.2806 -0.96433,-0.2806 -0.255365,0 -0.654321,0.0787 -0.774205,0.21596 -0.03024,0.0346 -0.158238,0.0911 -0.260689,0.16868 -0.138964,0.10527 -0.261147,0.23302 -0.31041,0.2446 -0.06904,0.0162 0.149813,-0.25771 0.22051,-0.32488 0.0707,-0.0672 -3e-6,2e-5 -3e-6,2e-5 z"
       id="path88771"
       sodipodi:nodetypes="cssssssssssszc" />
    <path
       style="display:inline;fill:#e5b99b;fill-opacity:1;stroke:none;stroke-width:0.217046px;stroke-linecap:butt;stroke-linejoin:miter;stroke-opacity:1"
       d="m 60.233947,40.093673 c 0,0 -0.183414,0.16214 -0.239058,0.24798 -0.05565,0.0858 0.03435,0.37316 0.05171,0.42918 0.01736,0.056 0.0554,0.75157 0.0782,0.91815 0.0178,0.12998 0.156591,-0.51305 0.192395,-0.66157 0.04289,-0.1779 -0.03001,-0.4735 0.245817,-0.71506 0.07244,-0.0635 0.66307,-0.1385 1.000171,0.24229 0.230753,0.26067 0.362091,1.07109 0.418089,1.21003 0.134914,0.33472 0.317524,1.04506 0.33563,1.03568 0.08599,-0.0447 -0.168809,-2.00409 -0.117683,-2.21123 0.05112,-0.20714 0.05301,-0.36621 -0.01973,-0.449 -0.07273,-0.0828 -0.257779,-0.23331 -0.257779,-0.23331 l -0.371996,-0.10558 -0.558637,-0.0479 -0.43522,0.12452 z"
       id="path89037-3"
       sodipodi:nodetypes="cssssssscssccccc" />
    <path
       style="display:inline;fill:#d39f76;fill-opacity:1;stroke:none;stroke-width:0.217046px;stroke-linecap:butt;stroke-linejoin:miter;stroke-opacity:1"
       d="m 60.193389,40.051663 c 0,0 0.412789,-0.35002 0.694774,-0.35002 0.281985,0 0.665829,0.0218 0.822495,0.0597 0.156665,0.0379 0.312644,0.15767 0.424632,0.24137 0.111989,0.0837 0.04683,0.69365 0.05575,0.81392 0.006,0.0785 0.04057,0.69129 -0.01552,0.73354 -0.06106,0.0461 -0.03954,-1.1405 -0.05584,-1.2406 -0.03448,-0.21198 -0.08619,-0.22457 -0.134477,-0.27658 -0.08388,-0.0904 -0.608077,-0.22016 -0.827098,-0.22016 -0.219024,0 -0.561204,0.0617 -0.664027,0.16944 -0.02594,0.0271 -0.135719,0.0715 -0.223589,0.13235 -0.119189,0.0826 -0.223983,0.18283 -0.266236,0.19191 -0.05921,0.0127 0.128493,-0.2022 0.189129,-0.2549 0.06064,-0.0527 -2e-6,2e-5 -2e-6,2e-5 z"
       id="path88771-7"
       sodipodi:nodetypes="cssssssssssszc" />
    <path
       style="display:inline;fill:#e5b99b;fill-opacity:1;stroke:none;stroke-width:0.125428px;stroke-linecap:butt;stroke-linejoin:miter;stroke-opacity:1"
       d="m 62.412506,40.500603 c 0,0 -0.10599,0.0937 -0.138144,0.1433 -0.03213,0.0496 0.01988,0.21565 0.02988,0.24802 0.01005,0.0324 0.03201,0.43432 0.04519,0.53058 0.01029,0.0751 0.09049,-0.29648 0.111179,-0.38231 0.02479,-0.1028 -0.01734,-0.27363 0.142056,-0.41322 0.04184,-0.0367 0.383178,-0.08 0.577986,0.14002 0.13334,0.15063 0.20924,0.61896 0.2416,0.69925 0.078,0.19343 0.183493,0.60393 0.193963,0.59851 0.0497,-0.0258 -0.0975,-1.15814 -0.068,-1.27784 0.0295,-0.1197 0.0306,-0.21163 -0.0114,-0.25947 -0.042,-0.0478 -0.14896,-0.13483 -0.14896,-0.13483 l -0.21497,-0.061 -0.322829,-0.0277 -0.251507,0.072 z"
       id="path89037-3-5"
       sodipodi:nodetypes="cssssssscssccccc" />
    <path
       style="display:inline;fill:#d39f76;fill-opacity:1;stroke:none;stroke-width:0.125428px;stroke-linecap:butt;stroke-linejoin:miter;stroke-opacity:1"
       d="m 62.389073,40.476323 c 0,0 0.238539,-0.20227 0.401497,-0.20227 0.162952,0 0.384773,0.0126 0.475303,0.0345 0.0905,0.0219 0.18068,0.0911 0.2454,0.13948 0.0647,0.0484 0.027,0.40085 0.0322,0.47036 0.003,0.0454 0.0235,0.39948 -0.009,0.4239 -0.0353,0.0266 -0.0228,-0.65908 -0.0322,-0.71693 -0.0199,-0.1225 -0.0498,-0.12977 -0.0777,-0.15983 -0.0485,-0.0522 -0.351397,-0.12723 -0.477965,-0.12723 -0.126569,0 -0.324309,0.0357 -0.383733,0.0979 -0.01497,0.0157 -0.07842,0.0413 -0.129204,0.0765 -0.06888,0.0477 -0.12944,0.10566 -0.153856,0.11091 -0.03421,0.007 0.07425,-0.11685 0.109296,-0.14731 0.03502,-0.0305 0,10e-6 0,10e-6 z"
       id="path88771-7-9"
       sodipodi:nodetypes="cssssssssssszc" />
    <path
       style="display:inline;fill:#e5b99b;fill-opacity:1;stroke:none;stroke-width:0.222508px;stroke-linecap:butt;stroke-linejoin:miter;stroke-opacity:1"
       d="m 55.260585,40.324713 c 0,0 -0.185872,0.16815 -0.24226,0.25717 -0.05636,0.0889 0.03488,0.387 0.05241,0.44509 0.01763,0.0581 0.05614,0.77941 0.07925,0.95216 0.01803,0.13477 0.158688,-0.53205 0.19497,-0.68607 0.04347,-0.18448 -0.03042,-0.49106 0.24911,-0.74156 0.07331,-0.0659 0.671968,-0.14357 1.013599,0.25128 0.233831,0.27031 0.366935,1.11077 0.423683,1.25486 0.136784,0.34711 0.321777,1.08378 0.340139,1.07405 0.08715,-0.0463 -0.170982,-2.07836 -0.119254,-2.29316 0.05173,-0.21481 0.05366,-0.37978 -0.02,-0.46565 -0.07367,-0.0858 -0.261226,-0.24197 -0.261226,-0.24197 l -0.376983,-0.1095 -0.566135,-0.0497 -0.44105,0.12921 z"
       id="path89037-3-5-2"
       sodipodi:nodetypes="cssssssscssccccc" />
    <path
       style="display:inline;fill:#d39f76;fill-opacity:1;stroke:none;stroke-width:0.222508px;stroke-linecap:butt;stroke-linejoin:miter;stroke-opacity:1"
       d="m 55.219488,40.281153 c 0,0 0.418319,-0.36298 0.704095,-0.36298 0.285759,0 0.674755,0.0226 0.833514,0.0619 0.158706,0.0393 0.316852,0.1635 0.430348,0.2503 0.113457,0.0869 0.04737,0.71936 0.05646,0.8441 0.0052,0.0813 0.04121,0.71689 -0.0158,0.76072 -0.06191,0.0477 -0.03999,-1.18276 -0.05646,-1.28657 -0.0349,-0.21984 -0.08733,-0.2329 -0.13626,-0.28683 -0.08507,-0.0936 -0.616236,-0.22833 -0.838197,-0.22833 -0.221944,0 -0.568712,0.0641 -0.672928,0.17569 -0.02625,0.0282 -0.137522,0.0742 -0.226579,0.13728 -0.120789,0.0858 -0.226994,0.18962 -0.269811,0.19904 -0.05998,0.0125 0.130207,-0.20969 0.191666,-0.26436 0.06141,-0.0548 0,2e-5 0,2e-5 z"
       id="path88771-7-9-2"
       sodipodi:nodetypes="cssssssssssszc" />
    <text
       xml:space="preserve"
       style="font-style:normal;font-variant:normal;font-weight:normal;font-stretch:normal;font-size:1.51694px;line-height:1.25;font-family:sans-serif;-inkscape-font-specification:'sans-serif, Normal';font-variant-ligatures:normal;font-variant-caps:normal;font-variant-numeric:normal;font-variant-east-asian:normal;display:inline;fill:#000000;fill-opacity:1;stroke:none;stroke-width:0.387953"
       x="46.741516"
       y="49.147179"
       id="text91680"
       transform="scale(1.0272348,0.97348726)"><tspan
         sodipodi:role="line"
         id="tspan28717"
         x="46.741516"
         y="49.147179">#include &lt;stdio.h&gt;</tspan><tspan
         sodipodi:role="line"
         id="tspan28719"
         x="46.741516"
         y="51.043354" /><tspan
         sodipodi:role="line"
         id="tspan28721"
         x="46.741516"
         y="52.939529">int main(int argc, char *argv[]) {</tspan><tspan
         sodipodi:role="line"
         id="tspan28723"
         x="46.741516"
         y="54.835705" /><tspan
         sodipodi:role="line"
         id="tspan28725"
         x="46.741516"
         y="56.73188">  char* foo = &quot;bar&quot;;</tspan><tspan
         sodipodi:role="line"
         id="tspan28727"
         x="46.741516"
         y="58.628052" /><tspan
         sodipodi:role="line"
         id="tspan28729"
         x="46.741516"
         y="60.524227">  for (int i = 0; i &lt; 10; i++) {</tspan><tspan
         sodipodi:role="line"
         id="tspan28731"
         x="46.741516"
         y="62.420403">    printf(&quot;count: %d\n&quot;, i);</tspan><tspan
         sodipodi:role="line"
         id="tspan28733"
         x="46.741516"
         y="64.316582">    printf(&quot;%s\n&quot;, foo);</tspan><tspan
         sodipodi:role="line"
         id="tspan28735"
         x="46.741516"
         y="66.212753">  }</tspan><tspan
         sodipodi:role="line"
         id="tspan28737"
         x="46.741516"
         y="68.108925">  return 1;</tspan><tspan
         sodipodi:role="line"
         id="tspan28739"
         x="46.741516"
         y="70.005104">}</tspan></text>
  </g>
</svg>
